<?xml version="1.0" encoding="utf-8"?>
<!-- Generator: Adobe Illustrator 19.2.0, SVG Export Plug-In . SVG Version: 6.00 Build 0)  -->
<svg version="1.1" id="Layer_1" xmlns="http://www.w3.org/2000/svg" xmlns:xlink="http://www.w3.org/1999/xlink" x="0px" y="0px"
	 viewBox="0 0 440 160" enable-background="new 0 0 440 160" xml:space="preserve">
<g>
	<path fill="#FBC510" d="M78.7,52.5c-0.4,1.5-1.1,2.8-2,3.9c-0.9,1.2-2.1,2.1-3.6,2.7c-1.4,0.6-3.1,0.9-5,0.9c-1.9,0-3.6-0.3-5-0.9
		c-1.4-0.7-2.7-1.6-3.6-2.7c-1-1.1-1.6-2.4-2-3.9C57.2,51.3,57,50,57,48.6H28.5l5.3,73.6c0,2.2,0.1,2.9,0.5,4.6
		c0.1,0.6,0.2,1.2,0.4,2c0.6,2.9,1.4,4.2,3.3,5.6c2.4,1.6,14.3,2.8,19.8,2.8c5.7,0,17.8-1.2,19.9-3c2.6-2.3,2.7-2.6,3.2-5.6v-0.1
		c0.2-0.9,0.3-1.5,0.4-2.1c0.4-1.5,0.5-2.3,0.5-4.3V122l5.3-73.4h-7.9C79.2,50,79,51.3,78.7,52.5z"/>
	<polygon fill="#FBC510" points="87.1,48.5 87.1,48.6 87.1,48.6 	"/>
</g>
<path fill="#FFCD53" d="M47,48.6l4.7,88.3c0,0,0.1,0,0.1,0l1.3-88.3H47z"/>
<path fill="#FCC60E" d="M104.7,129.8c7.5-6.1,8.4-7.2,8.4-10.9V50.1h15.5v71.2c0,6.5-5.5,12.3-14.7,19.4L104.7,129.8z"/>
<path fill="#FCC60E" d="M146.5,71.8V105c0,2.3,1,3.6,3.6,3.6c2.7,0,7.6-1.9,10.9-3.6V71.8h14.9v50.3h-11.1l-1.6-3.8
	c-6.2,3-14.3,4.9-20.1,4.9c-8.6,0-11.6-6.4-11.6-16.1V71.8H146.5z"/>
<path fill="#FCC60E" d="M195.7,123.1c-5.5,0-13.3-1.3-18.3-3l2.4-11.1c4.1,1.2,9.6,2.3,15.2,2.3c4.4,0,5.2-1.2,5.2-4.2
	c0-3.2-0.1-3.6-8.2-5.6c-12.2-3-13.3-6.3-13.3-15.7c0-10.6,4.1-15.1,19.2-15.1c3.8,0,10.9,0.5,15.3,1.7L211.8,84
	c-4.4-0.8-9.9-1.4-13.8-1.4c-4.3,0-5.4,1.1-5.4,3.4c0,3.1,0.4,3.5,6.4,4.9c14.4,3.2,15.4,6.3,15.4,16.3
	C214.4,117.4,210.1,123.1,195.7,123.1"/>
<path fill="#FCC60E" d="M236.6,123.1c-9.6,0-15.2-3.6-15.2-12.9V83.8h-6.8v-12h6.8V59.7l14.9-2.1v14.2h11.5l-0.8,12h-10.6v24.4
	c0,2.1,1.2,2.8,3.1,2.8c1.7,0,4-0.2,6.2-0.9l1.8,11.3C244.1,122.4,240.1,123.1,236.6,123.1"/>
<path fill="#FCC60E" d="M279.1,122.1h-29.4V53.3H277c14.4,0,19.6,5.8,19.6,15.1v7c0,5-2.2,8.5-7.6,10.9c5.7,1.3,10.1,6.3,10.1,12.7
	v6.7C299.1,115.4,292.9,122.1,279.1,122.1 M281.1,70.6c0-3-1.9-4.9-6.2-4.9h-9.6v15.7h9.6c4.1,0,6.2-2.1,6.2-4.9V70.6z M283.6,99.4
	c0-3.8-2.4-5.8-6.5-5.8h-11.8v16h9.6c4.9,0,8.7-1,8.7-6L283.6,99.4L283.6,99.4z"/>
<path fill="#FCC60E" d="M316,102.1v1.4c0,5.8,2.3,7.3,9.1,7.3c4.6,0,10.8-0.8,15.3-2.2l2.2,11.2c-4.5,1.7-11.9,3.2-18.9,3.2
	c-16.3,0-22.5-8.1-22.5-20.5V90.9c0-10.9,4.9-20.2,21.6-20.2s20.4,9.9,20.4,20.9v10.5H316z M329,88.8c0-3.5-1-6.4-6.2-6.4
	s-6.8,2.9-6.8,6.4V91h13V88.8z"/>
<path fill="#FCC60E" d="M361.1,102.1v1.4c0,5.8,2.3,7.3,9.1,7.3c4.7,0,10.9-0.8,15.3-2.2l2.2,11.2c-4.5,1.7-11.9,3.2-18.9,3.2
	c-16.3,0-22.5-8.1-22.5-20.5V90.9c0-10.9,4.9-20.2,21.6-20.2s20.4,9.9,20.4,20.9v10.5H361.1z M374.1,88.8c0-3.5-1-6.4-6.2-6.4
	s-6.8,2.9-6.8,6.4V91h13V88.8z"/>
<path fill="#FCC60E" d="M406.7,91.4v30.7h-14.9V71.8h12.4l1,4.9c3.1-2.1,9.5-5.1,13.5-5.9l1.2,14.1
	C415.6,86.5,409.9,89.1,406.7,91.4"/>
<polygon fill="#FFFFFF" points="122.3,38.7 122.3,38.7 124.3,25.5 126.8,25.5 123.6,44.2 121.3,44.2 118.6,31.1 118.5,31.1 
	115.8,44.2 113.4,44.2 110.2,25.5 112.7,25.5 114.8,38.7 114.8,38.7 117.5,25.5 119.5,25.5 "/>
<path fill="#FFFFFF" d="M130.5,31.9L130.5,31.9c0.4-0.6,0.8-1.1,1.4-1.4c0.5-0.3,1.1-0.5,1.8-0.5c1.2,0,2.1,0.5,2.8,1.4s1,2.3,1,4.3
	v8.5h-2.6v-8.6c0-1.3-0.2-2.2-0.5-2.8c-0.3-0.5-0.9-0.8-1.6-0.8c-0.5,0-0.9,0.1-1.3,0.4c-0.4,0.3-0.7,0.7-0.9,1.2v10.5H128v-20h2.6
	L130.5,31.9L130.5,31.9z"/>
<path fill="#FFFFFF" d="M145.8,44.2c-0.1-0.3-0.2-0.6-0.2-0.9c-0.1-0.3-0.1-0.6-0.1-0.8l0,0c-0.4,0.6-0.8,1.1-1.3,1.5
	s-1.1,0.6-1.8,0.6c-1.1,0-2-0.4-2.7-1.1c-0.6-0.7-0.9-1.7-0.9-3c0-1.4,0.4-2.4,1.3-3.2c0.8-0.7,2.1-1.1,3.7-1.1h1.8v-1.4
	c0-0.9-0.2-1.5-0.5-2s-0.8-0.7-1.5-0.7c-0.6,0-1.1,0.2-1.4,0.6c-0.3,0.4-0.5,1-0.5,1.6h-2.6c0-1.1,0.4-2.1,1.3-3
	c0.9-0.8,2-1.2,3.4-1.2c1.3,0,2.4,0.4,3.2,1.2c0.8,0.8,1.2,2,1.2,3.5v6.5c0,0.5,0,1,0.1,1.5s0.2,1,0.3,1.5L145.8,44.2L145.8,44.2z
	 M142.9,42.5c0.6,0,1.1-0.2,1.5-0.5s0.8-0.8,1-1.3v-2.9h-1.8c-0.7,0-1.3,0.3-1.7,0.8s-0.6,1.1-0.6,1.9c0,0.6,0.1,1.1,0.4,1.5
	C142,42.3,142.4,42.5,142.9,42.5"/>
<path fill="#FFFFFF" d="M152.8,26.8v3.5h2v1.9h-2v8.3c0,0.7,0.1,1.3,0.3,1.5c0.2,0.3,0.4,0.4,0.7,0.4c0.2,0,0.3,0,0.5,0
	c0.1,0,0.3-0.1,0.4-0.1l0.3,1.8c-0.2,0.1-0.5,0.2-0.8,0.3s-0.7,0.1-1,0.1c-0.9,0-1.7-0.3-2.2-0.9c-0.5-0.6-0.7-1.7-0.7-3.1v-8.3
	h-1.5v-1.9h1.5v-3.5C150.3,26.8,152.8,26.8,152.8,26.8z"/>
<path fill="#FFFFFF" d="M166.9,44.2c-0.1-0.3-0.2-0.6-0.2-0.9c-0.1-0.3-0.1-0.6-0.1-0.8l0,0c-0.4,0.6-0.8,1.1-1.3,1.5
	s-1.1,0.6-1.8,0.6c-1.1,0-2-0.4-2.7-1.1c-0.6-0.7-0.9-1.7-0.9-3c0-1.4,0.4-2.4,1.3-3.2c0.8-0.7,2.1-1.1,3.7-1.1h1.8v-1.4
	c0-0.9-0.2-1.5-0.5-2s-0.8-0.7-1.5-0.7c-0.6,0-1.1,0.2-1.4,0.6c-0.3,0.4-0.5,1-0.5,1.6h-2.6c0-1.1,0.4-2.1,1.3-3
	c0.9-0.8,2-1.2,3.4-1.2c1.3,0,2.4,0.4,3.2,1.2c0.8,0.8,1.2,2,1.2,3.5v6.5c0,0.5,0,1,0.1,1.5s0.2,1,0.3,1.5L166.9,44.2L166.9,44.2z
	 M164,42.5c0.6,0,1.1-0.2,1.5-0.5s0.8-0.8,1-1.3v-2.9h-1.8c-0.7,0-1.3,0.3-1.7,0.8s-0.6,1.1-0.6,1.9c0,0.6,0.1,1.1,0.4,1.5
	C163.1,42.3,163.5,42.5,164,42.5"/>
<path fill="#FFFFFF" d="M176.6,32.5l-1.2-0.1c-0.5,0-0.9,0.2-1.2,0.5s-0.6,0.7-0.7,1.3v10h-2.6V30.3h2.4l0.2,1.9l0,0
	c0.3-0.7,0.6-1.2,1-1.6s0.9-0.6,1.5-0.6c0.2,0,0.3,0,0.5,0s0.3,0.1,0.4,0.1L176.6,32.5z"/>
<path fill="#FFFFFF" d="M182,44.5c-1.6,0-2.8-0.6-3.7-1.7c-0.9-1.1-1.4-2.6-1.4-4.4v-2c0-1.9,0.5-3.4,1.4-4.5
	c0.9-1.2,2.1-1.8,3.6-1.8s2.7,0.5,3.5,1.6s1.2,2.5,1.2,4.4v1.8h-7v0.6c0,1.2,0.2,2.2,0.7,3c0.4,0.8,1.1,1.2,2,1.2
	c0.8,0,1.5-0.1,2-0.3s0.9-0.6,1.3-1l0.7,1.7c-0.4,0.5-1,0.9-1.7,1.2C183.8,44.3,182.9,44.5,182,44.5 M181.8,32
	c-0.7,0-1.3,0.4-1.7,1.1c-0.4,0.7-0.6,1.7-0.7,2.8h4.5v-0.5c0-1-0.2-1.8-0.5-2.4C183.1,32.4,182.5,32,181.8,32"/>
<path fill="#FFFFFF" d="M195.8,39.4l0.2,0.8l0,0l2.5-10h2.8l-4.6,16.1c-0.3,1-0.7,1.8-1.2,2.4c-0.5,0.7-1.3,1-2.3,1
	c-0.2,0-0.4,0-0.7-0.1c-0.2,0-0.5-0.1-0.7-0.2l0.3-1.9c0.1,0,0.2,0,0.4,0.1c0.2,0,0.3,0,0.4,0c0.5,0,0.8-0.2,1.1-0.5
	c0.2-0.3,0.5-0.9,0.7-1.7l0.4-1.4L191,30.1h2.8L195.8,39.4z"/>
<path fill="#FFFFFF" d="M201.2,36.4c0-1.9,0.5-3.4,1.4-4.6c0.9-1.2,2.2-1.8,3.8-1.8s2.9,0.6,3.8,1.8c0.9,1.2,1.4,2.7,1.4,4.6v1.8
	c0,1.9-0.4,3.4-1.3,4.6c-0.9,1.2-2.2,1.7-3.8,1.7s-2.9-0.6-3.8-1.7c-0.9-1.2-1.4-2.7-1.4-4.6L201.2,36.4L201.2,36.4z M203.8,38.2
	c0,1.3,0.2,2.4,0.6,3.2s1.1,1.2,2,1.2s1.5-0.4,1.9-1.2s0.6-1.9,0.6-3.1v-1.8c0-1.3-0.2-2.3-0.6-3.1c-0.4-0.8-1.1-1.2-2-1.2
	s-1.5,0.4-1.9,1.2s-0.6,1.8-0.6,3.1V38.2z"/>
<path fill="#FFFFFF" d="M219.8,42.4L219.8,42.4c-0.4,0.7-0.8,1.2-1.4,1.5c-0.5,0.3-1.1,0.5-1.9,0.5c-1.2,0-2.2-0.5-2.8-1.4
	c-0.7-0.9-1-2.5-1-4.5v-8.2h2.6v8.3c0,1.5,0.2,2.5,0.5,3.1s0.8,0.9,1.4,0.9c0.6,0,1.1-0.1,1.5-0.4c0.4-0.3,0.7-0.7,1-1.3V30.3h2.6
	v13.9H220L219.8,42.4z"/>
<path fill="#FFFFFF" d="M227.9,37.4c0-2.3,0.4-4.1,1.1-5.4c0.8-1.3,1.8-2,3.3-2c0.6,0,1.1,0.1,1.6,0.4s0.9,0.7,1.2,1.2l0,0v-7.4h2.6
	v20.1h-2.3l-0.2-1.5l0,0c-0.3,0.6-0.8,1-1.3,1.3s-1.1,0.4-1.7,0.4c-1.4,0-2.5-0.6-3.2-1.8c-0.8-1.2-1.1-2.9-1.1-5L227.9,37.4
	L227.9,37.4z M230.5,37.7c0,1.5,0.2,2.7,0.6,3.5c0.4,0.8,1,1.3,1.9,1.3c0.5,0,1-0.1,1.3-0.4c0.4-0.3,0.7-0.7,0.9-1.2V34
	c-0.2-0.6-0.5-1-0.9-1.3s-0.8-0.5-1.3-0.5c-0.9,0-1.5,0.5-1.9,1.5s-0.6,2.3-0.6,3.9V37.7z"/>
<path fill="#FFFFFF" d="M245.2,32.5l-1.2-0.1c-0.5,0-0.9,0.2-1.2,0.5s-0.6,0.7-0.7,1.3v10h-2.6V30.3h2.4l0.2,1.9l0,0
	c0.3-0.7,0.6-1.2,1-1.6s0.9-0.6,1.5-0.6c0.2,0,0.3,0,0.5,0s0.3,0.1,0.4,0.1L245.2,32.5z"/>
<path fill="#FFFFFF" d="M248.9,26.6h-2.6v-2.5h2.6V26.6z M248.9,44.2h-2.6V30.3h2.6V44.2z"/>
<path fill="#FFFFFF" d="M253.2,30.3l0.1,1.9l0,0c0.4-0.7,0.8-1.2,1.3-1.6s1.2-0.6,1.9-0.6c1.2,0,2.1,0.4,2.7,1.3
	c0.6,0.9,1,2.3,1,4.2v8.7h-2.6v-8.7c0-1.3-0.2-2.2-0.5-2.7s-0.9-0.8-1.6-0.8c-0.5,0-0.9,0.2-1.3,0.5c-0.4,0.3-0.7,0.7-0.9,1.3v10.4
	h-2.6V30.3H253.2z"/>
<polygon fill="#FFFFFF" points="265.6,37.8 264.6,37.8 264.6,44.2 262,44.2 262,24.1 264.6,24.1 264.6,35.8 265.6,35.8 268.4,30.3 
	271.4,30.3 267.7,36.6 271.9,44.2 268.9,44.2 "/>
<path fill="#FFFFFF" d="M275,26.6h-2.6v-2.5h2.6V26.6z M275,44.2h-2.6V30.3h2.6V44.2z"/>
<path fill="#FFFFFF" d="M279.2,30.3l0.1,1.9l0,0c0.4-0.7,0.8-1.2,1.3-1.6s1.2-0.6,1.9-0.6c1.2,0,2.1,0.4,2.7,1.3
	c0.6,0.9,1,2.3,1,4.2v8.7h-2.6v-8.7c0-1.3-0.2-2.2-0.5-2.7s-0.9-0.8-1.6-0.8c-0.5,0-0.9,0.2-1.3,0.5s-0.7,0.7-0.9,1.3v10.4h-2.6
	V30.3H279.2z"/>
<path fill="#FFFFFF" d="M287.6,36.7c0-2,0.4-3.7,1.1-4.9c0.8-1.2,1.9-1.8,3.3-1.8c0.7,0,1.2,0.2,1.7,0.5s0.9,0.8,1.2,1.3l0,0
	l0.2-1.5h2.2v13.9c0,1.8-0.4,3.2-1.3,4.2s-2.1,1.5-3.8,1.5c-0.6,0-1.2-0.1-1.8-0.3c-0.6-0.2-1.2-0.4-1.8-0.8l0.5-1.8
	c0.5,0.3,0.9,0.5,1.4,0.7s1,0.2,1.5,0.2c0.9,0,1.6-0.3,2-0.9c0.4-0.6,0.6-1.6,0.6-2.8V43l0,0c-0.3,0.5-0.7,0.9-1.2,1.1
	c-0.5,0.2-1,0.4-1.6,0.4c-1.4,0-2.5-0.5-3.3-1.6s-1.1-2.6-1.1-4.4v-1.8H287.6z M290.2,38.4c0,1.3,0.2,2.2,0.6,3
	c0.4,0.7,1,1.1,1.9,1.1c0.5,0,1-0.1,1.3-0.4c0.4-0.3,0.7-0.7,0.9-1.2v-7c-0.2-0.5-0.5-1-0.9-1.3s-0.8-0.5-1.3-0.5
	c-0.9,0-1.5,0.4-1.9,1.3c-0.4,0.8-0.6,2-0.6,3.4V38.4z"/>
<path fill="#FFFFFF" d="M306.6,26.8v3.5h2v1.9h-2v8.3c0,0.7,0.1,1.3,0.3,1.5c0.2,0.3,0.4,0.4,0.7,0.4c0.2,0,0.3,0,0.5,0
	c0.1,0,0.3-0.1,0.4-0.1l0.3,1.8c-0.2,0.1-0.5,0.2-0.8,0.3s-0.7,0.1-1,0.1c-0.9,0-1.7-0.3-2.2-0.9c-0.5-0.6-0.7-1.7-0.7-3.1v-8.3
	h-1.5v-1.9h1.5v-3.5C304.1,26.8,306.6,26.8,306.6,26.8z"/>
<path fill="#FFFFFF" d="M308.9,36.4c0-1.9,0.5-3.4,1.4-4.6c0.9-1.2,2.2-1.8,3.8-1.8c1.6,0,2.9,0.6,3.8,1.8s1.4,2.7,1.4,4.6v1.8
	c0,1.9-0.4,3.4-1.3,4.6c-0.9,1.2-2.2,1.7-3.8,1.7c-1.6,0-2.9-0.6-3.8-1.7c-0.9-1.2-1.4-2.7-1.4-4.6v-1.8H308.9z M311.5,38.2
	c0,1.3,0.2,2.4,0.6,3.2s1.1,1.2,2,1.2s1.5-0.4,1.9-1.2s0.6-1.9,0.6-3.1v-1.8c0-1.3-0.2-2.3-0.6-3.1s-1.1-1.2-2-1.2s-1.5,0.4-1.9,1.2
	s-0.6,1.8-0.6,3.1V38.2z"/>
<path fill="#FFFFFF" d="M322.8,30.3l0.1,1.9l0,0c0.4-0.7,0.8-1.2,1.3-1.6s1.2-0.6,1.9-0.6c1.2,0,2.1,0.4,2.7,1.3
	c0.6,0.9,1,2.3,1,4.2v8.7h-2.6v-8.7c0-1.3-0.2-2.2-0.5-2.7s-0.9-0.8-1.6-0.8c-0.5,0-0.9,0.2-1.3,0.5s-0.7,0.7-0.9,1.3v10.4h-2.6
	V30.3H322.8z"/>
<path fill="#FFFFFF" d="M334.4,26.6h-2.6v-2.5h2.6V26.6z M334.4,44.2h-2.6V30.3h2.6V44.2z"/>
<path fill="#FFFFFF" d="M335.8,36.7c0-2,0.4-3.7,1.1-4.9c0.8-1.2,1.9-1.8,3.3-1.8c0.7,0,1.2,0.2,1.7,0.5s0.9,0.8,1.2,1.3l0,0
	l0.2-1.5h2.2v13.9c0,1.8-0.4,3.2-1.3,4.2s-2.1,1.5-3.8,1.5c-0.6,0-1.2-0.1-1.8-0.3c-0.6-0.2-1.2-0.4-1.8-0.8l0.5-1.8
	c0.5,0.3,0.9,0.5,1.4,0.7s1,0.2,1.5,0.2c0.9,0,1.6-0.3,2-0.9c0.4-0.6,0.6-1.6,0.6-2.8V43l0,0c-0.3,0.5-0.7,0.9-1.2,1.1
	c-0.5,0.2-1,0.4-1.6,0.4c-1.4,0-2.5-0.5-3.3-1.6s-1.1-2.6-1.1-4.4v-1.8H335.8z M338.4,38.4c0,1.3,0.2,2.2,0.6,3
	c0.4,0.7,1,1.1,1.9,1.1c0.5,0,1-0.1,1.3-0.4c0.4-0.3,0.6-0.7,0.9-1.2v-7c-0.2-0.5-0.5-1-0.9-1.3s-0.8-0.5-1.3-0.5
	c-0.9,0-1.5,0.4-1.9,1.3c-0.4,0.8-0.6,2-0.6,3.4V38.4z"/>
<path fill="#FFFFFF" d="M350,31.9L350,31.9c0.4-0.6,0.8-1.1,1.4-1.4c0.5-0.3,1.1-0.5,1.8-0.5c1.2,0,2.1,0.5,2.8,1.4
	c0.7,0.9,1,2.3,1,4.3v8.5h-2.6v-8.6c0-1.3-0.2-2.2-0.5-2.8c-0.3-0.5-0.9-0.8-1.6-0.8c-0.5,0-0.9,0.1-1.3,0.4
	c-0.4,0.3-0.7,0.7-0.9,1.2v10.5h-2.6v-20h2.6L350,31.9L350,31.9z"/>
<path fill="#FFFFFF" d="M361.6,26.8v3.5h2v1.9h-2v8.3c0,0.7,0.1,1.3,0.3,1.5c0.2,0.3,0.4,0.4,0.7,0.4c0.2,0,0.3,0,0.5,0
	c0.1,0,0.3-0.1,0.4-0.1l0.3,1.8c-0.2,0.1-0.5,0.2-0.8,0.3s-0.7,0.1-1,0.1c-0.9,0-1.7-0.3-2.2-0.9c-0.5-0.6-0.7-1.7-0.7-3.1v-8.3
	h-1.5v-1.9h1.5v-3.5C359.1,26.8,361.6,26.8,361.6,26.8z"/>
<path fill="#FFFFFF" d="M366.8,39c0-1.2,0.1-2,0.3-2.5c0.2-0.5,0.7-1.1,1.5-2c0.6-0.8,1-1.5,1.3-2.1c0.3-0.6,0.4-1.3,0.4-2.2
	c0-1-0.2-1.7-0.5-2.2s-0.9-0.8-1.6-0.8c-0.6,0-1,0.2-1.4,0.7s-0.6,1.2-0.6,2h-2.6c0-1.6,0.4-2.7,1.3-3.6c0.8-0.8,2-1.2,3.3-1.2
	c1.5,0,2.6,0.4,3.4,1.3s1.2,2.1,1.2,3.7c0,1.1-0.2,2.1-0.7,3c-0.5,0.9-1.1,1.8-2,2.7c-0.4,0.4-0.7,0.9-0.8,1.3
	c-0.1,0.4-0.1,1-0.1,1.7h-2.4V39z M369.4,44.2h-2.6v-2.6h2.6V44.2z"/>
<path fill="#151717" d="M90,19c-2.5-0.6-22.2-2.1-29.6-2.7c-26-1.9-31.3,0.7-34.8,2.4l-0.4,0.2L24.8,19c-0.1,0.1-0.3,0.2-0.4,0.3
	c-1.6,1-4.4,2.6-4.4,5.7v2.7l0.2,2.7l0,0l7.1,92.2c0,4,0.5,5.7,1.3,8.7l0.3,1c1,3.7,1.9,4.8,3.8,7.1l0.6,0.7
	c3.3,4,19.7,4.3,24.6,4.3l0,0c7.9,0,21.5-0.6,24.6-4.3l0.6-0.7c1.9-2.3,2.8-3.4,3.8-7.1l0.3-1c0.8-3.1,1.3-4.7,1.3-8.7l7.1-92.2l0,0
	l0.2-2.5l0.1-2.8V25C95.7,21.7,92.8,19.6,90,19 M87.1,48.5L81.8,122v0.1c0,2-0.1,2.8-0.5,4.3c-0.1,0.6-0.2,1.2-0.4,2.1v0.1
	c-0.5,3-0.6,3.3-3.2,5.6c-2.1,1.8-14.2,3-19.9,3c-5.5,0-17.4-1.2-19.8-2.8c-1.9-1.4-2.7-2.7-3.3-5.6c-0.2-0.8-0.3-1.4-0.4-2
	c-0.4-1.7-0.5-2.4-0.5-4.6l-5.3-73.6H57c0,1.4,0.2,2.7,0.5,3.9c0.4,1.5,1,2.8,2,3.9c0.9,1.1,2.2,2,3.6,2.7c1.4,0.6,3.1,0.9,5,0.9
	s3.6-0.3,5-0.9c1.5-0.6,2.7-1.5,3.6-2.7c0.9-1.1,1.6-2.4,2-3.9c0.3-1.2,0.5-2.5,0.5-3.9h7.9V48.5z M72.9,31.7v16.4
	c0,0.7-0.1,1.4-0.2,2.2c-0.1,0.6-0.3,1.1-0.7,1.6c-0.3,0.4-0.7,0.8-1.3,1.1c-0.3,0.2-1.1,0.5-2.6,0.5c-1.4,0-2.2-0.2-2.6-0.5
	c-0.6-0.3-1-0.7-1.3-1.1c-0.3-0.5-0.6-1.1-0.7-1.7c-0.2-0.8-0.2-1.6-0.2-2.3V33.8l0,0v-2.2c0-3.8-3-6.6-7.3-6.6c0,0,0,0-26.5,0h-2.3
	c0.1-0.1,0.2-0.2,0.3-0.2c0.1-0.1,0.2-0.2,0.4-0.2l0.3-0.1c2.8-1.3,7.4-3.5,31.6-1.8c13.4,1,23.6,1.9,27.2,2.3h-6.9l0,0h-0.5h-0.1
	c-4,0.3-6.8,2.9-6.8,6.6L72.9,31.7L72.9,31.7z M56.1,31.2c0.5,0,0.9,0.1,1,0.2v0.1v0.1l0,0v10.6h-29l-0.8-11h2.3
	C29.6,31.2,56.1,31.2,56.1,31.2z M87.5,42.3h-8.3V31.7l0,0v-0.1v-0.1c0.1-0.1,0.5-0.2,1-0.2h8.1L87.5,42.3z"/>
<path fill="#FFFFFF" d="M41,61c0,0.7,0.7,1.3,1.4,1.3c0.8,0,1.3-0.7,1.3-1.4s-0.7-1.3-1.4-1.3S41,60.2,41,61"/>
<path fill="#FFFFFF" d="M51.4,52.3c0,0.7,0.7,1.3,1.4,1.3c0.8,0,1.3-0.7,1.3-1.4s-0.7-1.3-1.4-1.3C52,50.9,51.4,51.5,51.4,52.3"/>
<path fill="#FFFFFF" d="M47.3,58.7c0.1,1.1,1,2,2.1,1.9s2-1,1.9-2.1c0-1.1-1-2-2.1-1.9C48.2,56.6,47.3,57.6,47.3,58.7"/>
<path fill="#FFFFFF" d="M51.8,65.7c0,0.9,0.8,1.6,1.7,1.6s1.6-0.8,1.6-1.7c0-0.9-0.8-1.6-1.7-1.6C52.4,64,51.7,64.8,51.8,65.7"/>
<path fill="#FFFFFF" d="M48.8,78.8c0,0.8,0.7,1.3,1.4,1.3c0.8,0,1.3-0.7,1.3-1.4c0-0.8-0.7-1.3-1.4-1.3C49.3,77.4,48.8,78,48.8,78.8
	"/>
<path fill="#FFFFFF" d="M46.7,72c0,0.4,0.3,0.6,0.7,0.6s0.6-0.3,0.6-0.7c0-0.4-0.3-0.6-0.7-0.6C47,71.4,46.7,71.7,46.7,72"/>
<path fill="#FFFFFF" d="M45.1,90c0,0.4,0.3,0.6,0.7,0.6s0.6-0.3,0.6-0.7c0-0.4-0.3-0.6-0.7-0.6C45.4,89.3,45.1,89.6,45.1,90"/>
<path fill="#FFFFFF" d="M46.3,83.2c0,0.4,0.3,0.6,0.7,0.6s0.6-0.3,0.6-0.7c0-0.4-0.3-0.6-0.7-0.6C46.6,82.5,46.3,82.8,46.3,83.2"/>
<path fill="#FFFFFF" d="M45.7,53.2c0,0.4,0.3,0.6,0.7,0.6s0.6-0.3,0.6-0.7s-0.3-0.6-0.7-0.6C45.9,52.5,45.7,52.8,45.7,53.2"/>
<path fill="#FFFFFF" d="M40.9,50.2c0,0.4,0.3,0.6,0.7,0.6s0.6-0.3,0.6-0.7s-0.3-0.6-0.7-0.6C41.2,49.6,40.9,49.9,40.9,50.2"/>
<path fill="#FFFFFF" d="M39.3,55.5c0.1,1.3,1.1,2.2,2.4,2.2c1.3-0.1,2.2-1.1,2.2-2.4c-0.1-1.3-1.1-2.2-2.4-2.2
	C40.2,53.2,39.2,54.3,39.3,55.5"/>
<g>
	<polygon fill="#EEB91D" points="87.1,48.5 87.1,48.6 87.1,48.6 	"/>
	<path fill="#EEB91D" d="M38,134.4c2.4,1.6,14.3,2.8,19.8,2.8c5.7,0,17.8-1.2,19.9-3c2.6-2.3,2.7-2.6,3.2-5.6v-0.1
		c0.2-0.9,0.3-1.5,0.4-2.1c0.4-1.5,0.5-2.3,0.5-4.3V122l5.3-73.4h-6c-4.4,92.5-0.8,76.5-23.2,76.5c-14.6,0-21.4,4-22,7.2
		C36.4,133.1,37.1,133.7,38,134.4z"/>
</g>
<path fill="#FFFFFF" d="M72.9,31.7v16.4c0,0.7-0.1,1.4-0.2,2.2c-0.1,0.6-0.3,1.1-0.7,1.6c-0.3,0.4-0.7,0.8-1.3,1.1
	c-0.3,0.2-1.1,0.5-2.6,0.5c-1.4,0-2.2-0.2-2.6-0.5c-0.6-0.3-1-0.7-1.3-1.1c-0.3-0.5-0.6-1.1-0.7-1.7c-0.2-0.8-0.2-1.6-0.2-2.3V33.8
	l0,0v-2.2c0-3.8-3-6.6-7.3-6.6c0,0,0,0-26.5,0h-2.3c0.1-0.1,0.2-0.2,0.3-0.2c0.1-0.1,0.2-0.2,0.4-0.2l0.3-0.1
	c2.8-1.3,7.4-3.5,31.6-1.8c13.4,1,23.6,1.9,27.2,2.3h-6.9l0,0h-0.5h-0.1c-4,0.3-6.8,2.9-6.8,6.6L72.9,31.7L72.9,31.7z"/>
<path fill="#FFFFFF" d="M56.1,31.2c0.5,0,0.9,0.1,1,0.2v0.1v0.1l0,0v10.6h-29l-0.8-11h2.3C29.6,31.2,56.1,31.2,56.1,31.2z"/>
<path fill="#FFFFFF" d="M87.5,42.3h-8.3V31.7l0,0v-0.1v-0.1c0.1-0.1,0.5-0.2,1-0.2h8.1L87.5,42.3z"/>
</svg>
