<?xml version="1.0" standalone="no"?>
<!DOCTYPE svg PUBLIC "-//W3C//DTD SVG 1.1//EN" "http://www.w3.org/Graphics/SVG/1.1/DTD/svg11.dtd" >
<svg xmlns="http://www.w3.org/2000/svg" xmlns:xlink="http://www.w3.org/1999/xlink" version="1.1">
<metadata>
Created by FontForge 20170731 at Fri Jun  3 16:36:00 2022
 By Aleksey,,,
Copyright 2004 Process Type Foundry. All rights reserved.
</metadata>
<defs>
<font id="Klavika-Light" horiz-adv-x="1075" >
  <font-face 
    font-family="Klavika Lt"
    font-weight="300"
    font-stretch="normal"
    units-per-em="2048"
    panose-1="2 0 0 0 0 0 0 0 0 0"
    ascent="1536"
    descent="-512"
    x-height="997"
    cap-height="1364"
    bbox="-31 -514 2359 1913"
    underline-thickness="40"
    underline-position="-312"
    unicode-range="U+0020-FB02"
  />
<missing-glyph horiz-adv-x="1363" 
d="M205 0v1364h954v-1364h-954zM1059 1262h-697l697 -1080v1080zM305 1180v-1080h694z" />
    <glyph glyph-name="fi" unicode="fi" horiz-adv-x="1198" 
d="M1024 0h-119v895h-528v-895h-119v895h-186v102h186v209q0 120 68 180t190 60q107 0 205 -31l-16 -92q-102 20 -181 20q-83 0 -115 -34t-32 -117v-195h647v-997zM1024 1186h-119v219h119v-219z" />
    <glyph glyph-name="fl" unicode="fl" horiz-adv-x="1198" 
d="M711 1417l-17 -92q-90 18 -170 18q-83 0 -115 -34t-32 -117v-195h297l-12 -102h-285v-895h-119v895h-186v102h186v209q0 120 68 180t190 60q100 0 195 -29zM1024 0h-119v1405l119 16v-1421z" />
    <glyph glyph-name="f_f" unicode="ff" horiz-adv-x="1462" 
d="M1452 1417l-16 -92q-99 18 -181 18q-83 0 -115 -34t-32 -117v-195h307l-12 -100h-295v-897h-119v897h-612v-897h-119v897h-186v100h186v209q0 120 68 180t190 60q110 0 205 -29l-16 -92q-99 18 -181 18q-83 0 -115 -34t-32 -117v-195h612v209q0 120 68 180t190 60
q110 0 205 -29z" />
    <glyph glyph-name="f_f_i" unicode="ffi" horiz-adv-x="1929" 
d="M1108 897v-897h-119v897h-612v-897h-119v897h-186v100h186v209q0 120 68 180t190 60q110 0 205 -29l-16 -92q-99 18 -181 18q-83 0 -115 -34t-32 -117v-195h612v209q0 120 68 180t190 60q110 0 205 -29l-16 -92q-99 18 -181 18q-83 0 -115 -34t-32 -117v-195h647v-997
h-119v897h-528zM1755 1186h-119v219h119v-219z" />
    <glyph glyph-name="f_j" unicode="fj" horiz-adv-x="1187" 
d="M377 997h647v-1069q0 -103 -31.5 -151t-172.5 -176q-18 -16 -27 -25l-78 86q8 7 23 20q106 96 131 128q32 42 35 105q1 13 1 32v948h-528v-895h-119v895h-186v102h186v209q0 120 68 180t190 60q107 0 205 -31l-16 -92q-102 20 -181 20q-83 0 -115 -34t-32 -117v-195z
M1024 1186h-119v219h119v-219z" />
    <glyph glyph-name="f_f_j" unicode="ffj" horiz-adv-x="1918" 
d="M1108 997h647v-1069q0 -103 -31.5 -151t-172.5 -176l-9 -9t-8.5 -7.5t-9.5 -8.5l-78 86q120 108 145 136q38 45 43 103q2 18 2 46v950h-528v-897h-119v897h-612v-897h-119v897h-186v100h186v209q0 120 68 180t190 60q110 0 205 -29l-16 -92q-99 18 -181 18
q-83 0 -115 -34t-32 -117v-195h612v209q0 120 68 180t190 60q107 0 205 -31l-16 -92q-102 20 -181 20q-83 0 -115 -34t-32 -117v-195zM1755 1186h-119v219h119v-219z" />
    <glyph glyph-name="f_f_l" unicode="ffl" horiz-adv-x="1929" 
d="M989 997v209q0 120 68 180t190 60q100 0 195 -29l-17 -92q-90 18 -170 18q-83 0 -115 -34t-32 -117v-195h297l-12 -100h-285v-897h-119v897h-612v-897h-119v897h-186v100h186v209q0 120 68 180t190 60q110 0 205 -29l-16 -92q-99 18 -181 18q-83 0 -115 -34t-32 -117
v-195h612zM1755 0h-119v1405l119 16v-1421z" />
    <glyph glyph-name=".notdef" horiz-adv-x="1363" 
d="M205 0v1364h954v-1364h-954zM1059 1262h-697l697 -1080v1080zM305 1180v-1080h694z" />
    <glyph glyph-name=".null" horiz-adv-x="0" 
 />
    <glyph glyph-name="nonmarkingreturn" horiz-adv-x="682" 
 />
    <glyph glyph-name="space" unicode=" " horiz-adv-x="450" 
 />
    <glyph glyph-name="exclam" unicode="!" horiz-adv-x="516" 
d="M293 350h-70l-24 344v711h118v-711zM195 0v176h127v-176h-127z" />
    <glyph glyph-name="quotedbl" unicode="&#x22;" horiz-adv-x="724" 
d="M258 905h-104v500h104v-500zM571 905h-104v500h104v-500z" />
    <glyph glyph-name="numbersign" unicode="#" horiz-adv-x="1472" 
d="M1296 367h-278l-19 -367h-108l18 367h-399l-18 -367h-109l18 367h-278l6 100h279l20 420h-278l6 100h278l19 336h108l-18 -336h399l19 336h108l-18 -336h278l-6 -100h-279l-20 -420h279zM537 887l-21 -420h399l21 420h-399z" />
    <glyph glyph-name="dollar" unicode="$" horiz-adv-x="1046" 
d="M571 -223h-114v205q-181 7 -314 59l21 96q170 -51 348 -51q63 0 107.5 5t75 18t48 29t27 46t12 59.5t2.5 78.5q0 43 -0.5 62t-4.5 47.5t-10 40.5t-21.5 31.5t-33.5 29t-51 25.5t-70.5 29t-94.5 31q-53 17 -92.5 31t-74.5 29.5t-58.5 27t-44 29t-32.5 29.5t-21.5 34.5
t-13.5 38.5t-7 47t-3.5 54.5t-0.5 65.5q0 91 14.5 149t53 101t106 63t174.5 24v205h114v-205q172 -7 277 -34l-15 -101q-178 31 -323 31q-65 0 -104 -2.5t-74.5 -11.5t-53 -23.5t-30.5 -42.5t-17 -64.5t-4 -93.5v-62t4.5 -47t7.5 -37t16.5 -28t24 -23.5t37 -19t49 -20.5
t66.5 -23q83 -28 136.5 -47t103.5 -42t77 -38.5t51.5 -40.5t34 -44t17.5 -54t9 -66t1 -83q0 -125 -28.5 -195.5t-100 -106t-203.5 -40.5v-205z" />
    <glyph glyph-name="percent" unicode="%" horiz-adv-x="1726" 
d="M1186 1348l-559 -1368l-90 34l559 1370zM696 1114v-205q0 -270 -290 -270q-293 0 -293 270v205q0 270 293 270q290 0 290 -270zM215 1116v-209q0 -89 44 -133.5t147 -44.5t145.5 44.5t42.5 133.5v209q0 89 -42.5 133.5t-145.5 44.5t-147 -44.5t-44 -133.5zM1604 455v-205
q0 -270 -291 -270q-293 0 -293 270v205q0 270 293 270q291 0 291 -270zM1122 457v-209q0 -89 44 -133.5t147 -44.5t145.5 44.5t42.5 133.5v209q0 89 -42.5 133.5t-145.5 44.5t-147 -44.5t-44 -133.5z" />
    <glyph glyph-name="ampersand" unicode="&#x26;" horiz-adv-x="1263" 
d="M1182 633h-201v-598q-187 -55 -381 -55q-230 0 -328 75t-98 246v131q0 94 50.5 167t137.5 91q-85 31 -120 89.5t-35 146.5v166q0 292 383 292q79 0 183.5 -13.5t180.5 -33.5l-14 -100q-198 41 -354 41q-137 0 -198.5 -43.5t-61.5 -142.5v-177q0 -82 53.5 -129t157.5 -47
h645v-106zM596 84q137 0 270 31v518h-307q-266 0 -266 -213v-113q0 -125 64.5 -174t238.5 -49z" />
    <glyph glyph-name="quotesingle" unicode="'" horiz-adv-x="411" 
d="M258 905h-104v500h104v-500z" />
    <glyph glyph-name="parenleft" unicode="(" horiz-adv-x="616" 
d="M555 -256l-86 -59q-159 228 -237 456.5t-78 481.5t78 481.5t237 456.5l86 -60q-161 -254 -222 -451t-61 -427t61 -427.5t222 -451.5z" />
    <glyph glyph-name="parenright" unicode=")" horiz-adv-x="616" 
d="M147 -315l-86 59q161 254 222 451.5t61 427.5t-61 427t-222 451l86 60q159 -228 237.5 -456.5t78.5 -481.5t-78.5 -481.5t-237.5 -456.5z" />
    <glyph glyph-name="asterisk" unicode="*" horiz-adv-x="976" 
d="M250 797l166 256h-303v75h307l-168 258l63 41l172 -266l172 266l64 -41l-168 -258h309v-75h-307l168 -256l-63 -41l-175 268l-174 -268z" />
    <glyph glyph-name="plus" unicode="+" horiz-adv-x="1097" 
d="M133 444v107h359v364h114v-364h359v-107h-359v-364h-114v364h-359z" />
    <glyph glyph-name="comma" unicode="," horiz-adv-x="493" 
d="M182 0v176h127v-176l-98 -221l-57 24l73 197h-45z" />
    <glyph glyph-name="hyphen" unicode="-" horiz-adv-x="741" 
d="M133 524v101h475v-101h-475z" />
    <glyph glyph-name="period" unicode="." horiz-adv-x="495" 
d="M184 0v176h127v-176h-127z" />
    <glyph glyph-name="slash" unicode="/" horiz-adv-x="901" 
d="M758 1384l-506 -1624h-119l504 1624h121z" />
    <glyph glyph-name="zero" unicode="0" horiz-adv-x="1146" 
d="M983 993v-663q0 -164 -97.5 -257t-312.5 -93q-409 0 -409 350v663q0 350 409 350q215 0 312.5 -93t97.5 -257zM283 985v-647q0 -131 64 -191.5t226 -60.5t226.5 60.5t64.5 191.5v647q0 131 -64.5 191.5t-226.5 60.5t-226 -60.5t-64 -191.5z" />
    <glyph glyph-name="one" unicode="1" horiz-adv-x="667" 
d="M78 1026l-58 98l347 199h106v-1323h-119v1182z" />
    <glyph glyph-name="two" unicode="2" horiz-adv-x="991" 
d="M109 0v106q309 384 374 469q72 93 105 138t66 99t44 93t11 82v33q0 64 -8.5 100.5t-37.5 65.5t-84 40t-147 11q-142 0 -289 -47l-22 102q59 21 149 36t174 15q117 0 193.5 -20.5t117.5 -64t56.5 -98.5t15.5 -136v-31q0 -105 -46 -190.5t-203 -294.5q-58 -78 -101 -132.5
t-109 -136t-108 -133.5h578v-106h-729z" />
    <glyph glyph-name="three" unicode="3" horiz-adv-x="1005" 
d="M113 20l18 103q154 -37 295 -37q161 0 229 42.5t68 160.5v131q0 192 -231 192h-275v107h262q111 0 165 48.5t54 137.5v146q0 102 -55.5 144t-189.5 42q-130 0 -297 -31l-17 103q159 34 310 34q194 0 281 -70.5t87 -213.5v-144q0 -98 -35.5 -154.5t-128.5 -92.5
q89 -20 139 -79.5t50 -160.5v-147q0 -160 -102.5 -230.5t-317.5 -70.5q-168 0 -309 40z" />
    <glyph glyph-name="four" unicode="4" horiz-adv-x="1105" 
d="M1024 356h-203v-356h-119v356h-641v127l601 840h159v-864h203v-103zM176 459h526v741z" />
    <glyph glyph-name="five" unicode="5" horiz-adv-x="1013" 
d="M184 633v690h676v-106h-557v-478q48 -1 120 -2t116 -2q177 -3 254 -84.5t77 -228.5v-113q0 -110 -36 -180t-126.5 -109.5t-240.5 -39.5q-205 0 -334 45l21 98q137 -37 313 -37q162 0 223.5 50.5t61.5 180.5v89q0 121 -49.5 170.5t-186.5 52.5q-55 1 -168 2t-164 2z" />
    <glyph glyph-name="six" unicode="6" horiz-adv-x="1060" 
d="M283 881v-197q51 21 137 37t155 16q196 0 274.5 -78.5t78.5 -240.5v-113q0 -161 -87 -243t-290 -82q-204 0 -295.5 82.5t-91.5 242.5v578q0 127 23 211t80.5 141.5t153.5 82.5t243 25q135 0 233 -28l-14 -101q-102 23 -199 23q-87 0 -148.5 -7t-107 -25.5t-73 -44
t-44 -67.5t-22.5 -91t-6 -121zM571 631q-140 0 -288 -62v-268q0 -120 67.5 -167.5t200.5 -47.5q144 0 201 48.5t57 166.5v123q0 75 -19 118t-71.5 66t-147.5 23z" />
    <glyph glyph-name="seven" unicode="7" horiz-adv-x="874" 
d="M61 1217v106h766v-100l-573 -1223h-121l574 1217h-646z" />
    <glyph glyph-name="eight" unicode="8" horiz-adv-x="1134" 
d="M946 997q0 -112 -51.5 -185.5t-189.5 -135.5q154 -68 215 -144.5t61 -195.5v-41q0 -165 -98 -240t-316 -75t-315.5 75t-97.5 240v41q0 119 60 195.5t212 144.5q-133 61 -185.5 139.5t-52.5 181.5v27q0 319 379 319t379 -319v-27zM862 342q0 52 -13 87.5t-50.5 67.5
t-88 57.5t-143.5 63.5q-176 -70 -235.5 -123t-59.5 -153v-41q0 -121 65.5 -168t229.5 -47t229.5 47t65.5 168v41zM307 989q0 -90 53.5 -142t206.5 -118q155 67 207.5 117.5t52.5 142.5v51q0 98 -58.5 147.5t-201.5 49.5t-201.5 -49t-58.5 -148v-51z" />
    <glyph glyph-name="nine" unicode="9" horiz-adv-x="1050" 
d="M768 442v197q-51 -21 -137.5 -37t-155.5 -16q-196 0 -274 78.5t-78 240.5v113q0 160 89 242.5t288 82.5q205 0 296 -81t91 -244v-578q0 -128 -22 -211t-79 -141t-153.5 -83t-245.5 -25q-128 0 -233 30l14 101q110 -25 199 -25t152 7t108.5 25.5t72.5 43.5t42.5 68
t20.5 91t5 121zM479 692q141 0 289 62v268q0 120 -67.5 167.5t-200.5 47.5q-144 0 -201 -48.5t-57 -166.5v-123q0 -113 49 -160t188 -47z" />
    <glyph glyph-name="colon" unicode=":" horiz-adv-x="495" 
d="M184 0v176h127v-176h-127zM184 655v176h127v-176h-127z" />
    <glyph glyph-name="semicolon" unicode=";" horiz-adv-x="493" 
d="M182 0v176h127v-176l-98 -221l-57 24l73 197h-45zM182 655v176h127v-176h-127z" />
    <glyph glyph-name="less" unicode="&#x3c;" horiz-adv-x="1126" 
d="M102 457v86l816 475l51 -86l-748 -432l752 -434l-51 -86z" />
    <glyph glyph-name="equal" unicode="=" horiz-adv-x="1042" 
d="M164 633v96h715v-96h-715zM164 281v96h715v-96h-715z" />
    <glyph glyph-name="greater" unicode="&#x3e;" horiz-adv-x="1126" 
d="M1024 543v-86l-819 -477l-51 86l751 434l-747 432l51 86z" />
    <glyph glyph-name="question" unicode="?" horiz-adv-x="937" 
d="M385 473l-70 90q164 128 224 178q36 31 56 49t37.5 41.5t24.5 39.5t12.5 48t6 60t0.5 82q0 57 -2.5 91t-12 66.5t-26 49t-46 29.5t-70.5 17.5t-101 4.5q-126 0 -275 -31l-20 103q139 34 299 34q79 0 137.5 -8.5t100 -28.5t68 -47t41.5 -70t20.5 -91t5.5 -115
q0 -97 -4.5 -147t-27 -99.5t-58 -84t-107.5 -91.5q-42 -33 -109.5 -87.5t-103.5 -82.5zM315 0v197h127v-197h-127z" />
    <glyph glyph-name="at" unicode="@" horiz-adv-x="1538" 
d="M874 571l58 326q-87 23 -146 23t-86 -22t-36 -75q-6 -40 -20.5 -117.5t-20.5 -117.5q-8 -46 7 -62t66 -16q38 0 90 18t88 43zM528 594l39 229q18 100 68.5 142.5t163.5 42.5q50 0 122 -15t119 -37l-75 -434q36 -18 82 -18q68 0 118.5 24.5t80 68t43.5 98.5t14 122
q0 225 -136 349t-379 124q-152 0 -277 -74.5t-199 -214.5t-74 -319q0 -136 38 -246t113.5 -191t195 -125t275.5 -44q195 0 397 88l31 -82q-185 -102 -428 -102q-338 0 -532.5 190t-194.5 512q0 203 86 364t235.5 249.5t333.5 88.5q148 0 266 -42.5t194 -118t116.5 -178
t40.5 -224.5q0 -185 -91.5 -295t-266.5 -110q-105 0 -162 63q-112 -57 -213 -57q-86 0 -121.5 47t-22.5 125z" />
    <glyph glyph-name="A" unicode="A" horiz-adv-x="1271" 
d="M1081 0l-129 358h-635l-127 -358h-118l475 1364h178l475 -1364h-119zM635 1294l-281 -831h561z" />
    <glyph glyph-name="B" unicode="B" horiz-adv-x="1144" 
d="M719 0h-535v1364h512q140 0 216.5 -67.5t76.5 -200.5v-164q0 -83 -36.5 -137t-118.5 -84q84 -11 141 -78t57 -176v-178q0 -136 -87 -207.5t-226 -71.5zM911 279v174q0 90 -55.5 141t-169.5 51h-381v-539h416q95 0 142.5 45t47.5 128zM868 938v174q0 145 -170 145h-393
v-505h352q108 0 159.5 50t51.5 136z" />
    <glyph glyph-name="C" unicode="C" horiz-adv-x="1046" 
d="M274 987v-610q0 -159 77.5 -224t264.5 -65q149 0 304 27l14 -105q-153 -30 -328 -30q-240 0 -346 99t-106 296v614q0 197 106 296t346 99q175 0 328 -30l-14 -105q-155 27 -304 27q-187 0 -264.5 -65t-77.5 -224z" />
    <glyph glyph-name="D" unicode="D" horiz-adv-x="1208" 
d="M184 1364h451q121 0 206 -29.5t132 -86t67.5 -126.5t20.5 -161v-558q0 -91 -20.5 -161t-67.5 -126.5t-132 -86t-206 -29.5h-451v1364zM305 1255v-1146h332q167 0 235 68.5t68 219.5v570q0 151 -68 219.5t-235 68.5h-332z" />
    <glyph glyph-name="E" unicode="E" horiz-adv-x="1097" 
d="M184 0v1364h768v-109h-647v-505h602v-109h-602v-532h649v-109h-770z" />
    <glyph glyph-name="F" unicode="F" horiz-adv-x="1046" 
d="M305 0h-121v1364h777v-109h-656v-526h610v-108h-610v-621z" />
    <glyph glyph-name="G" unicode="G" horiz-adv-x="1169" 
d="M274 985v-606q0 -157 69 -224t255 -67q157 0 287 31v483h121v-565q-196 -57 -416 -57q-123 0 -208 25.5t-135 78t-71.5 123.5t-21.5 170v610q0 199 105 298t347 99q215 0 375 -36l-12 -105q-211 33 -361 33q-188 0 -261 -66t-73 -225z" />
    <glyph glyph-name="H" unicode="H" horiz-adv-x="1269" 
d="M1085 0h-120v647h-660v-647h-121v1364h121v-608h660v608h120v-1364z" />
    <glyph glyph-name="I" unicode="I" horiz-adv-x="509" 
d="M315 1364v-1364h-120v1364h120z" />
    <glyph glyph-name="J" unicode="J" horiz-adv-x="479" 
d="M184 1364h121v-1352q0 -56 -3 -85.5t-16 -63.5t-37.5 -63t-69 -75.5t-109.5 -109.5q-7 -6 -11 -10l-79 86q108 106 145 149t48 72.5t11 87.5v1364z" />
    <glyph glyph-name="K" unicode="K" horiz-adv-x="1165" 
d="M305 1364v-1364h-121v1364h121zM1044 1364l-546 -670l585 -694h-151l-580 694l543 670h149z" />
    <glyph glyph-name="L" unicode="L" horiz-adv-x="1011" 
d="M305 1364v-1255h615v-109h-736v1364h121z" />
    <glyph glyph-name="M" unicode="M" horiz-adv-x="1628" 
d="M1333 0l-28 1243l-398 -1067h-186l-397 1067l-29 -1243h-121l41 1364h176l424 -1114l422 1114h176l41 -1364h-121z" />
    <glyph glyph-name="N" unicode="N" horiz-adv-x="1306" 
d="M946 0l-647 1245v-1245h-115v1364h176l648 -1247v1247h114v-1364h-176z" />
    <glyph glyph-name="O" unicode="O" horiz-adv-x="1261" 
d="M1108 385q0 -90 -26 -162t-81 -127.5t-148.5 -85.5t-221.5 -30t-221.5 30t-148.5 85.5t-81 127.5t-26 162v594q0 90 26 162t81 127.5t148.5 85.5t221.5 30t221.5 -30t148.5 -85.5t81 -127.5t26 -162v-594zM631 88q191 0 273.5 75t82.5 226v586q0 151 -82.5 226t-273.5 75
t-274 -75t-83 -226v-586q0 -151 83 -226t274 -75z" />
    <glyph glyph-name="P" unicode="P" horiz-adv-x="1114" 
d="M184 0v1364h463q375 0 375 -315v-213q0 -316 -375 -316h-342v-520h-121zM901 1049q0 111 -60.5 158.5t-191.5 47.5h-344v-626h344q131 0 191.5 48t60.5 159v213z" />
    <glyph glyph-name="Q" unicode="Q" horiz-adv-x="1261" 
d="M870 -285l-110 -47l-135 312q-126 1 -219 31t-147 85.5t-79.5 127t-25.5 161.5v594q0 90 26 162t81 127.5t148.5 85.5t221.5 30t221.5 -30t148.5 -85.5t81 -127.5t26 -162v-594q0 -163 -85.5 -266.5t-270.5 -130.5zM631 88q191 0 273.5 75t82.5 226v586q0 151 -82.5 226
t-273.5 75t-274 -75t-83 -226v-586q0 -151 83 -226t274 -75z" />
    <glyph glyph-name="R" unicode="R" horiz-adv-x="1267" 
d="M1049 0l-355 524h-26h-363v-524h-121v1364h484q374 0 374 -315v-209q0 -245 -221 -299l365 -541h-137zM922 1049q0 111 -60.5 158.5t-191.5 47.5h-365v-622h365q131 0 191.5 48t60.5 159v209z" />
    <glyph glyph-name="S" unicode="S" horiz-adv-x="1114" 
d="M961 338q0 -89 -17.5 -151t-63 -111t-130 -72.5t-211.5 -23.5q-216 0 -385 65l22 98q183 -55 367 -55q171 0 234 55t63 189v58t-2.5 47.5t-6 40.5t-12 31.5t-18 27.5t-28 21.5t-38.5 20.5t-52 17.5t-65.5 19t-82.5 19.5q-86 20 -142 37t-99.5 42t-66 50.5t-37 69
t-18.5 90t-4 120.5q0 88 18.5 148t65 105t130 66t210.5 21q192 0 352 -47l-14 -102q-178 41 -334 41q-101 0 -162 -12t-93 -43t-42 -71.5t-10 -109.5v-60.5t3 -49t5.5 -40t12.5 -31.5t17.5 -26.5t27.5 -21t37 -19.5t50 -17t62 -18.5t78 -19.5q70 -18 119.5 -32t91 -32
t67 -33t46 -39.5t30.5 -46t16 -58.5t7.5 -70.5t1.5 -87.5z" />
    <glyph glyph-name="T" unicode="T" horiz-adv-x="1062" 
d="M471 0v1255h-420v109h961v-109h-420v-1255h-121z" />
    <glyph glyph-name="U" unicode="U" horiz-adv-x="1290" 
d="M995 1364h121v-977q0 -89 -27.5 -161.5t-83 -128t-147.5 -86.5t-213 -31t-213 31t-147.5 86.5t-83 128t-27.5 161.5v977h121v-977q0 -144 89.5 -221.5t260.5 -77.5t260.5 77.5t89.5 221.5v977z" />
    <glyph glyph-name="V" unicode="V" horiz-adv-x="1208" 
d="M604 109l445 1255h118l-481 -1364h-164l-481 1364h119z" />
    <glyph glyph-name="W" unicode="W" horiz-adv-x="1822" 
d="M1214 0l-303 1278l-303 -1278h-188l-369 1364h117l342 -1272l305 1272h193l305 -1272l342 1272h117l-369 -1364h-189z" />
    <glyph glyph-name="X" unicode="X" horiz-adv-x="1187" 
d="M72 0l456 692l-442 672h131l377 -576l377 576h131l-443 -672l457 -692h-131l-391 596l-391 -596h-131z" />
    <glyph glyph-name="Y" unicode="Y" horiz-adv-x="1112" 
d="M156 1364l399 -823l401 823h125l-465 -944v-420h-120v420l-465 944h125z" />
    <glyph glyph-name="Z" unicode="Z" horiz-adv-x="1179" 
d="M1022 1255l-746 -1146h760v-109h-893v109l744 1146h-723v109h858v-109z" />
    <glyph glyph-name="bracketleft" unicode="[" horiz-adv-x="636" 
d="M575 -258h-370v1876h370v-111h-251v-1654h251v-111z" />
    <glyph glyph-name="backslash" unicode="\" horiz-adv-x="901" 
d="M649 -240l-506 1624h121l504 -1624h-119z" />
    <glyph glyph-name="bracketright" unicode="]" horiz-adv-x="636" 
d="M432 -258h-371v111h252v1654h-252v111h371v-1876z" />
    <glyph glyph-name="asciicircum" unicode="^" horiz-adv-x="929" 
d="M199 780l-97 54l297 571h131l297 -571l-96 -54l-266 514z" />
    <glyph glyph-name="underscore" unicode="_" horiz-adv-x="888" 
d="M881 -74h-873v54h873v-54z" />
    <glyph glyph-name="grave" unicode="`" horiz-adv-x="634" 
d="M481 1202l-55 -84q-158 88 -272 170l59 90q119 -84 268 -176z" />
    <glyph glyph-name="a" unicode="a" horiz-adv-x="993" 
d="M840 729v-729h-103l-8 78q-159 -98 -338 -98q-258 0 -258 278q0 154 70 215.5t223 61.5h295v194q0 101 -55 141.5t-181 40.5q-131 0 -295 -32l-18 100q136 39 307 39q189 0 275 -73t86 -216zM721 188v240h-291q-102 0 -140 -36.5t-38 -135.5q0 -94 32.5 -132t131.5 -38
q74 0 156 27.5t149 74.5z" />
    <glyph glyph-name="b" unicode="b" horiz-adv-x="1040" 
d="M907 727v-395q0 -176 -91 -264t-308 -88q-71 0 -170 10t-164 26v1389l119 16v-479q145 76 328 76q146 0 216 -77t70 -214zM293 817v-708q117 -21 229 -21q79 0 132 16t82 48.5t40.5 74t11.5 101.5v401q0 90 -43.5 132t-140.5 42q-158 0 -311 -86z" />
    <glyph glyph-name="c" unicode="c" horiz-adv-x="819" 
d="M231 678v-359q0 -132 58 -182.5t200 -50.5q93 0 213 20l15 -98q-109 -28 -228 -28q-202 0 -289 87t-87 257v350q0 170 87 257t289 87q115 0 228 -29l-15 -98q-120 20 -213 20q-142 0 -200 -50.5t-58 -182.5z" />
    <glyph glyph-name="d" unicode="d" horiz-adv-x="1050" 
d="M143 256v455q0 307 308 307q142 0 307 -33v420l119 16v-1421h-109l-6 94q-73 -56 -161.5 -85t-174.5 -29q-283 0 -283 276zM758 213v664q-161 34 -312 34q-97 0 -140.5 -48.5t-43.5 -151.5v-455q0 -90 37 -130t135 -40q167 0 324 127z" />
    <glyph glyph-name="e" unicode="e" horiz-adv-x="980" 
d="M242 338q0 -137 57 -195.5t203 -58.5q144 0 315 47l21 -96q-153 -55 -344 -55q-200 0 -285.5 94t-85.5 268v313q0 363 373 363q102 0 174.5 -27t112.5 -78t57.5 -114t17.5 -144v-192h-616v-125zM242 659v-90h499v90q0 131 -55 193.5t-190 62.5q-136 0 -195 -63t-59 -193z
" />
    <glyph glyph-name="f" unicode="f" horiz-adv-x="731" 
d="M721 1417l-16 -92q-99 18 -181 18q-83 0 -115 -34t-32 -117v-195h307l-12 -102h-295v-895h-119v895h-186v102h186v209q0 120 68 180t190 60q110 0 205 -29z" />
    <glyph glyph-name="g" unicode="g" horiz-adv-x="1050" 
d="M899 655q0 -350 -383 -350q-72 0 -133 12q-78 -64 -78 -131q0 -63 90 -71q45 -4 95 -8t91.5 -7.5t100.5 -7.5q132 -10 190 -69.5t58 -167.5q0 -106 -39.5 -165.5t-131 -86.5t-255.5 -27q-73 0 -173.5 13.5t-176.5 35.5l18 94q175 -41 336 -41q100 0 161.5 9.5t92.5 33
t41 51.5t10 76q0 74 -35.5 107t-124.5 39q-189 12 -270 18q-104 8 -150.5 56t-46.5 120q0 98 95 168q-148 84 -148 299v13q0 175 89 262.5t294 87.5q98 0 168 -21h274v-86l-124 -10q65 -82 65 -233v-13zM784 672q0 135 -59.5 189t-208.5 54q-150 0 -209 -53.5t-59 -189.5
v-21q0 -137 63 -190t205 -53q140 0 204 55.5t64 187.5v21z" />
    <glyph glyph-name="h" unicode="h" horiz-adv-x="1067" 
d="M903 0h-119v807q0 54 -27 77t-81 23q-64 0 -178 -33t-205 -81v-793h-119v1405l119 16v-512q89 43 202.5 76t196.5 33q112 0 161.5 -58t49.5 -167v-793z" />
    <glyph glyph-name="i" unicode="i" horiz-adv-x="466" 
d="M293 0h-119v997h119v-997zM293 1186h-119v219h119v-219z" />
    <glyph glyph-name="j" unicode="j" horiz-adv-x="456" 
d="M174 997h119v-1069q0 -45 -5 -74.5t-14 -54t-37 -55.5t-56.5 -58.5t-89.5 -82.5q-19 -17 -30 -27l-77 86q120 108 145 136q38 45 43 103q2 18 2 46v1050zM293 1186h-119v219h119v-219z" />
    <glyph glyph-name="k" unicode="k" horiz-adv-x="964" 
d="M293 0h-119v1405l119 16v-1421zM739 997h148l-398 -491l414 -506h-151l-406 506z" />
    <glyph glyph-name="l" unicode="l" horiz-adv-x="466" 
d="M293 0h-119v1405l119 16v-1421z" />
    <glyph glyph-name="m" unicode="m" horiz-adv-x="1677" 
d="M1513 0h-118v807q0 54 -27 77t-82 23q-71 0 -180.5 -32.5t-202.5 -81.5v-793h-119v807q0 54 -27 77t-81 23q-64 0 -178 -33t-205 -81v-793h-119v997h105l8 -90q90 43 205.5 77t199.5 34q150 0 193 -111q96 44 214.5 77.5t203.5 33.5q112 0 161 -58t49 -167v-793z" />
    <glyph glyph-name="n" unicode="n" horiz-adv-x="1067" 
d="M903 0h-119v807q0 54 -27 77t-81 23q-64 0 -178 -33t-205 -81v-793h-119v997h105l8 -90q90 43 205.5 77t199.5 34q112 0 161.5 -58t49.5 -167v-793z" />
    <glyph glyph-name="o" unicode="o" horiz-adv-x="1019" 
d="M897 342q0 -165 -93.5 -263.5t-293.5 -98.5t-293.5 98.5t-93.5 263.5v313q0 165 93.5 264t293.5 99t293.5 -99t93.5 -264v-313zM778 338v321q0 127 -65 189.5t-203 62.5t-203 -62.5t-65 -189.5v-321q0 -127 65 -189.5t203 -62.5t203 62.5t65 189.5z" />
    <glyph glyph-name="p" unicode="p" horiz-adv-x="1046" 
d="M907 741v-454q0 -307 -307 -307q-147 0 -307 32v-415l-119 -17v1417h109l6 -94q73 56 162 85.5t174 29.5q282 0 282 -277zM293 784v-663q166 -35 311 -35q97 0 140.5 49t43.5 152v454q0 90 -37 130t-135 40q-166 0 -323 -127z" />
    <glyph glyph-name="q" unicode="q" horiz-adv-x="1040" 
d="M133 270v396q0 176 91 264t308 88q70 0 169.5 -10.5t164.5 -26.5v-1384l-118 -17v475q-143 -75 -328 -75q-146 0 -216.5 76.5t-70.5 213.5zM748 180v709q-111 20 -230 20q-152 0 -209 -58.5t-57 -180.5v-402q0 -90 43.5 -132t140.5 -42q159 0 312 86z" />
    <glyph glyph-name="r" unicode="r" horiz-adv-x="638" 
d="M594 1018l14 -117q-102 -44 -315 -184v-717h-119v997h107l6 -151q200 132 307 172z" />
    <glyph glyph-name="s" unicode="s" horiz-adv-x="890" 
d="M768 252q0 -71 -14.5 -119t-51.5 -84t-102 -52.5t-164 -16.5q-76 0 -157 14t-136 37l21 96q131 -41 264 -41q136 0 178.5 32.5t42.5 129.5q0 43 -1 62.5t-9 43.5t-20 34t-41 24t-63.5 23.5t-96.5 23.5q-63 15 -107 30t-74.5 35t-48 40t-27 52.5t-12 63.5t-2.5 82
q0 130 74 193t252 63q164 0 283 -35l-13 -100q-140 28 -278 28q-86 0 -129.5 -16.5t-56.5 -47t-13 -89.5q0 -39 1 -59.5t8.5 -42t17.5 -32t34.5 -23t53 -21t78.5 -21.5q75 -19 124.5 -35t85.5 -37t54.5 -39t29 -50.5t13 -62.5t2.5 -83z" />
    <glyph glyph-name="t" unicode="t" horiz-adv-x="759" 
d="M666 111l22 -93q-94 -38 -209 -38q-120 0 -172.5 49t-52.5 166v700h-193v102h193v236l119 16v-252h305l-12 -102h-293v-688q0 -71 21 -98t93 -27q84 0 179 29z" />
    <glyph glyph-name="u" unicode="u" horiz-adv-x="1067" 
d="M164 997h119v-807q0 -54 27 -77t81 -23q64 0 178 33.5t205 81.5v792h119v-997h-105l-8 90q-89 -43 -205 -76.5t-200 -33.5q-112 0 -161.5 58t-49.5 167v792z" />
    <glyph glyph-name="v" unicode="v" horiz-adv-x="919" 
d="M889 997l-338 -997h-182l-338 997h121l307 -913l309 913h121z" />
    <glyph glyph-name="w" unicode="w" horiz-adv-x="1437" 
d="M457 0h-178l-228 997h113l205 -917l270 917h160l268 -917l207 917h112l-227 -997h-178l-262 911z" />
    <glyph glyph-name="x" unicode="x" horiz-adv-x="903" 
d="M180 0h-129l336 502l-330 495h127l267 -399l268 399h127l-332 -495l338 -502h-129l-272 408z" />
    <glyph glyph-name="y" unicode="y" horiz-adv-x="909" 
d="M889 997l-338 -997l-148 -403h-116l149 403h-67l-338 997h121l307 -913l309 913h121z" />
    <glyph glyph-name="z" unicode="z" horiz-adv-x="894" 
d="M127 901l2 96h647l-2 -96l-536 -805h555v-96h-680v96l538 805h-524z" />
    <glyph glyph-name="braceleft" unicode="{" horiz-adv-x="632" 
d="M123 717h33q49 0 69.5 19.5t20.5 64.5v614q0 203 205 203h141v-107h-150q-77 0 -77 -81v-623q0 -140 -129 -143q129 -5 129 -144v-622q0 -82 77 -82h150v-107h-141q-205 0 -205 203v614q0 45 -20.5 64.5t-69.5 19.5h-33v107z" />
    <glyph glyph-name="bar" unicode="|" horiz-adv-x="509" 
d="M295 1618v-2048h-80v2048h80z" />
    <glyph glyph-name="braceright" unicode="}" horiz-adv-x="632" 
d="M477 717h33v-107h-33q-49 0 -69.5 -19.5t-20.5 -64.5v-614q0 -203 -205 -203h-141v107h149q78 0 78 82v622q0 139 129 144q-129 3 -129 143v623q0 81 -78 81h-149v107h141q205 0 205 -203v-614q0 -45 20.5 -64.5t69.5 -19.5z" />
    <glyph glyph-name="asciitilde" unicode="~" horiz-adv-x="1013" 
d="M848 700l84 -36q-17 -49 -36 -86t-48 -73t-70.5 -55.5t-93.5 -19.5q-42 0 -81.5 16.5t-70 40t-59 47t-60.5 40t-63 16.5q-57 0 -90.5 -39.5t-71.5 -130.5l-86 39q43 111 103 171t149 60q42 0 81.5 -17t69.5 -41t58.5 -48t61 -41t63.5 -17q27 0 49 11t36.5 24t30 41t23 45
t21.5 53z" />
    <glyph glyph-name="nbspace" unicode="&#xa0;" horiz-adv-x="450" 
 />
    <glyph glyph-name="exclamdown" unicode="&#xa1;" horiz-adv-x="516" 
d="M223 647h70l24 -344v-706h-118v706zM195 821v176h127v-176h-127z" />
    <glyph glyph-name="cent" unicode="&#xa2;" horiz-adv-x="860" 
d="M436 -20v186q-168 13 -240.5 99t-72.5 243v350q0 156 72.5 242.5t240.5 99.5v186h115v-186q106 -7 176 -26l-14 -99q-126 21 -213 21q-142 0 -200 -51t-58 -183v-358q0 -132 58 -183t200 -51q87 0 213 21l14 -98q-86 -23 -176 -29v-184h-115z" />
    <glyph glyph-name="sterling" unicode="&#xa3;" horiz-adv-x="1116" 
d="M164 629v102h190q-100 157 -100 313q0 157 84 228t289 71q160 0 299 -40l-19 -103q-141 37 -276 37q-155 0 -206.5 -40t-51.5 -157q0 -139 110 -309h408l-8 -102h-357q23 -48 23 -119q0 -198 -195 -404h609v-106h-766v106q104 85 168.5 193t64.5 209q0 62 -27 121h-239z
" />
    <glyph glyph-name="currency" unicode="&#xa4;" horiz-adv-x="1105" 
d="M952 1120l-129 -129q41 -61 41 -157v-295q0 -97 -41 -158l129 -129l-78 -78l-135 135q-70 -37 -186 -37t-188 35l-134 -133l-77 78l127 127q-41 61 -41 160v295q0 96 41 157l-127 129l77 78l134 -135q70 37 188 37q110 0 186 -37l135 135zM350 807v-242
q0 -103 40.5 -146.5t162.5 -43.5q121 0 161 43.5t40 146.5v242q0 103 -40 146.5t-161 43.5q-122 0 -162.5 -43.5t-40.5 -146.5z" />
    <glyph glyph-name="yen" unicode="&#xa5;" horiz-adv-x="1112" 
d="M137 633v96h207l-293 594h125l379 -782l381 782h125l-293 -594h207v-96h-254l-105 -213v-43h359v-92h-359v-285h-120v285h-359v92h359v43l-105 213h-254z" />
    <glyph glyph-name="brokenbar" unicode="&#xa6;" horiz-adv-x="509" 
d="M295 1618v-854h-80v854h80zM295 -430h-80v854h80v-854z" />
    <glyph glyph-name="section" unicode="&#xa7;" horiz-adv-x="1146" 
d="M524 33l-106 -33q-132 386 -203.5 666.5t-71.5 492.5q0 120 63 172.5t195 52.5q64 0 151 -14t150 -35l-18 -92q-163 39 -274 39q-93 0 -120.5 -26t-27.5 -105q0 -107 20 -235t64.5 -292t79 -277.5t98.5 -313.5zM633 971l106 33q132 -385 203.5 -666.5t71.5 -493.5
q0 -120 -63 -172.5t-195 -52.5q-64 0 -151 14t-150 35l18 92q69 -17 150.5 -28t124.5 -11q93 0 120 26.5t27 105.5q0 107 -20 235t-64.5 292t-79 277.5t-98.5 313.5z" />
    <glyph glyph-name="dieresis" unicode="&#xa8;" horiz-adv-x="802" 
d="M164 1143v135h127v-135h-127zM512 1143v135h127v-135h-127z" />
    <glyph glyph-name="copyright" unicode="&#xa9;" horiz-adv-x="1691" 
d="M143 682q0 145 51 274t141 224t222.5 150.5t288.5 55.5q207 0 368.5 -95t247.5 -255t86 -354t-86 -353t-247.5 -254t-368.5 -95q-155 0 -288 55.5t-223 150.5t-141 223.5t-51 272.5zM242 682q0 -127 42 -239t118.5 -194.5t191.5 -130.5t252 -48t252 48t191.5 130.5
t118.5 194.5t42 239t-42 239t-118.5 195.5t-191.5 131.5t-252 48t-252 -48t-191.5 -131.5t-118.5 -195.5t-42 -239zM604 535v294q0 109 56.5 159t189.5 50q106 0 207 -24l-10 -80q-95 20 -191 20q-97 0 -129.5 -25.5t-32.5 -101.5v-290q0 -76 32.5 -101.5t129.5 -25.5
q96 0 191 20l10 -80q-101 -24 -207 -24q-133 0 -189.5 50t-56.5 159z" />
    <glyph glyph-name="ordfeminine" unicode="&#xaa;" horiz-adv-x="774" 
d="M600 1262v-455h-76l-6 41q-87 -53 -170 -53q-93 0 -138.5 42.5t-45.5 133.5q0 100 42.5 136t139.5 36h166v114q0 49 -28.5 70t-96.5 21q-87 0 -184 -23l-15 76q91 24 195 24q117 0 167 -39t50 -124zM512 928v135h-162q-59 0 -78.5 -17.5t-19.5 -74.5t23.5 -78t76.5 -21
q36 0 83 17t77 39z" />
    <glyph glyph-name="guillemotleft" unicode="&#xab;" horiz-adv-x="978" 
d="M113 500l262 395l90 -61l-221 -334l221 -334l-90 -62zM494 500l262 395l90 -61l-221 -334l221 -334l-90 -62z" />
    <glyph glyph-name="logicalnot" unicode="&#xac;" horiz-adv-x="1159" 
d="M133 444v107h832v-471h-111v364h-721z" />
    <glyph glyph-name="registered" unicode="&#xae;" horiz-adv-x="1026" 
d="M143 1055q0 158 101.5 264t269.5 106t268.5 -106t100.5 -264q0 -157 -101 -264t-268 -107t-269 107t-102 264zM215 1055q0 -130 79 -215.5t220 -85.5t219 85.5t78 215.5q0 131 -78 217t-219 86t-220 -86.5t-79 -216.5zM621 893l-86 113h-82v-113h-50v340h132
q102 0 102 -88v-51q0 -57 -49 -78l92 -123h-59zM588 1145q0 25 -12 34t-41 9h-82v-137h82q53 0 53 43v51z" />
    <glyph glyph-name="macron" unicode="&#xaf;" horiz-adv-x="770" 
d="M143 1159v98h484v-98h-484z" />
    <glyph glyph-name="degree" unicode="&#xb0;" horiz-adv-x="733" 
d="M580 1128q0 -92 -57.5 -152.5t-155.5 -60.5q-100 0 -156.5 60t-56.5 153q0 92 57.5 153.5t155.5 61.5t155.5 -61.5t57.5 -153.5zM506 1128q0 62 -36.5 106t-102.5 44t-103 -44t-37 -106q0 -61 37 -104t103 -43t102.5 43t36.5 104z" />
    <glyph glyph-name="plusminus" unicode="&#xb1;" horiz-adv-x="1159" 
d="M164 608v107h358v364h115v-364h358v-107h-358v-364h-115v364h-358zM995 106v-106h-831v106h831z" />
    <glyph glyph-name="twosuperior" unicode="&#xb2;" horiz-adv-x="790" 
d="M154 498v82q21 27 79 100t129 164q68 88 99 139t36 72.5t5 58.5v27q0 63 -26 86.5t-118 23.5q-67 0 -186 -26l-16 86q94 32 206 32q127 0 184.5 -47.5t57.5 -142.5v-53q0 -55 -26.5 -113t-112.5 -170q-142 -185 -174 -225h325v-94h-462z" />
    <glyph glyph-name="threesuperior" unicode="&#xb3;" horiz-adv-x="765" 
d="M143 510l15 86q94 -25 186 -25q93 0 126.5 26t33.5 91v74q0 108 -129 108h-170v93h172q61 0 84.5 24.5t23.5 67.5v100q0 55 -32 76.5t-105 21.5q-86 0 -178 -18l-14 84q83 24 188 24q240 0 240 -184v-102q0 -50 -18.5 -81.5t-65.5 -57.5q102 -39 102 -154v-78
q0 -109 -61 -157t-205 -48q-87 0 -193 29z" />
    <glyph glyph-name="acute" unicode="&#xb4;" horiz-adv-x="634" 
d="M209 1118l-55 84q149 92 268 176l59 -90q-114 -82 -272 -170z" />
    <glyph glyph-name="mu" unicode="&#xb5;" horiz-adv-x="1067" 
d="M164 -403v1400h119v-807q0 -54 27 -77t81 -23q64 0 178 33.5t205 81.5v792h119v-997h-105l-8 90q-89 -43 -205 -76.5t-200 -33.5q-48 0 -92 14v-397h-119z" />
    <glyph glyph-name="paragraph" unicode="&#xb6;" horiz-adv-x="1028" 
d="M709 1364h114v-1483q0 -43 -11 -68t-54.5 -73.5t-161.5 -163.5l-70 78q128 128 155.5 161.5t27.5 61.5v1487zM154 950q0 177 118 295.5t295 118.5v-825q-177 0 -295 118t-118 293z" />
    <glyph glyph-name="periodcentered" unicode="&#xb7;" horiz-adv-x="495" 
d="M184 567v176h127v-176h-127z" />
    <glyph glyph-name="cedilla" unicode="&#xb8;" horiz-adv-x="641" 
d="M498 -266q0 -70 -51.5 -114t-143.5 -44q-75 0 -160 29l19 71q67 -18 125 -18q116 0 116 72q0 30 -24.5 46.5t-71.5 16.5q-61 0 -119 -12l48 219h86l-31 -143q27 6 57 6q65 0 107.5 -33t42.5 -96z" />
    <glyph glyph-name="onesuperior" unicode="&#xb9;" horiz-adv-x="673" 
d="M164 1118l-41 76l223 129h82v-829h-102v710z" />
    <glyph glyph-name="ordmasculine" unicode="&#xba;" horiz-adv-x="802" 
d="M639 1204v-186q0 -102 -57.5 -162.5t-180.5 -60.5t-180 60.5t-57 162.5v186q0 101 57.5 161t179.5 60q227 0 238 -221zM553 1016v190q0 142 -152 142q-149 0 -149 -142v-190q0 -144 149 -144q152 0 152 144z" />
    <glyph glyph-name="guillemotright" unicode="&#xbb;" horiz-adv-x="978" 
d="M604 905l262 -395l-262 -395l-90 61l221 334l-221 334zM223 905l262 -395l-262 -395l-90 61l221 334l-221 334z" />
    <glyph glyph-name="onequarter" unicode="&#xbc;" horiz-adv-x="1677" 
d="M1077 1343l-534 -1396l-86 33l536 1396zM164 1118l-41 76l223 129h82v-829h-102v710zM1503 186h-121v-186h-98v186h-377v99l348 544h127v-553h121v-90zM1012 276h272v445z" />
    <glyph glyph-name="onehalf" unicode="&#xbd;" horiz-adv-x="1695" 
d="M1077 1343l-534 -1396l-86 33l536 1396zM164 1118l-41 76l223 129h82v-829h-102v710zM1059 0v82q22 28 80 100.5t129 163.5q68 88 99 139.5t35.5 72t4.5 58.5v27q0 64 -26 87.5t-117 23.5q-63 0 -187 -27l-16 86q97 33 207 33q127 0 184 -48t57 -143v-53
q0 -55 -26.5 -113t-112.5 -170q-142 -185 -174 -225h326v-94h-463z" />
    <glyph glyph-name="threequarters" unicode="&#xbe;" horiz-adv-x="1738" 
d="M1139 1343l-535 -1396l-86 33l537 1396zM1565 186h-121v-186h-98v186h-377v99l348 544h127v-553h121v-90zM1073 276h273v445zM143 510l15 86q94 -25 186 -25q93 0 126.5 26t33.5 91v74q0 108 -129 108h-170v93h172q61 0 84.5 24.5t23.5 67.5v100q0 55 -32 76.5t-105 21.5
q-86 0 -178 -18l-14 84q83 24 188 24q240 0 240 -184v-102q0 -50 -18.5 -81.5t-65.5 -57.5q102 -39 102 -154v-78q0 -109 -61 -157t-205 -48q-87 0 -193 29z" />
    <glyph glyph-name="questiondown" unicode="&#xbf;" horiz-adv-x="937" 
d="M553 528l70 -90q-164 -128 -224 -178q-54 -46 -77.5 -69.5t-39.5 -61.5t-18 -73t-2 -115q0 -57 2.5 -91t12 -66.5t26 -49t46 -29.5t70.5 -17.5t101 -4.5q131 0 275 30l20 -102q-143 -35 -299 -35q-95 0 -160.5 14t-107.5 39.5t-65 71.5t-31.5 100.5t-8.5 135.5
q0 97 4.5 147t27 99t58 83.5t107.5 91.5q42 33 109.5 87.5t103.5 82.5zM623 997v-196h-127v196h127z" />
    <glyph glyph-name="Agrave" unicode="&#xc0;" horiz-adv-x="1271" 
d="M1081 0l-129 358h-635l-127 -358h-118l475 1364h178l475 -1364h-119zM635 1294l-281 -831h561zM692 1550l-55 -84q-116 61 -254 158l59 90q108 -79 250 -164z" />
    <glyph glyph-name="Aacute" unicode="&#xc1;" horiz-adv-x="1271" 
d="M1081 0l-129 358h-635l-127 -358h-118l475 1364h178l475 -1364h-119zM635 1294l-281 -831h561zM633 1466l-55 84q136 81 249 164l60 -90q-138 -97 -254 -158z" />
    <glyph glyph-name="Acircumflex" unicode="&#xc2;" horiz-adv-x="1271" 
d="M1081 0l-129 358h-635l-127 -358h-118l475 1364h178l475 -1364h-119zM635 1294l-281 -831h561zM426 1466l-45 80q137 84 256 168q155 -110 254 -168l-43 -80q-80 42 -211 123q-158 -95 -211 -123z" />
    <glyph glyph-name="Atilde" unicode="&#xc3;" horiz-adv-x="1271" 
d="M1081 0l-129 358h-635l-127 -358h-118l475 1364h178l475 -1364h-119zM635 1294l-281 -831h561zM643 1518q-3 1 -18 8t-18 8t-15 6t-17 6.5t-14.5 4t-17 3t-15.5 0.5q-53 0 -110 -57l-53 59q29 44 74.5 72.5t92.5 28.5q37 0 111 -33q81 -37 117 -37q53 0 98 51l60 -53
q-28 -45 -69 -72.5t-89 -27.5q-47 0 -117 33z" />
    <glyph glyph-name="Adieresis" unicode="&#xc4;" horiz-adv-x="1271" 
d="M1081 0l-129 358h-635l-127 -358h-118l475 1364h178l475 -1364h-119zM635 1294l-281 -831h561zM391 1503v123h135v-123h-135zM743 1503v123h136v-123h-136z" />
    <glyph glyph-name="Aring" unicode="&#xc5;" horiz-adv-x="1271" 
d="M1081 0l-129 358h-635l-127 -358h-118l475 1364h178l475 -1364h-119zM635 1294l-281 -831h561zM764 1546q0 -56 -34 -91.5t-95 -35.5t-95 35.5t-34 91.5q0 57 33.5 91t95.5 34t95.5 -34t33.5 -91zM694 1546q0 66 -59 66q-62 0 -62 -66q0 -30 16 -47.5t46 -17.5
q59 0 59 65z" />
    <glyph glyph-name="AE" unicode="&#xc6;" horiz-adv-x="1718" 
d="M1081 0l-129 358h-635l-127 -358h-118l475 1364h1026v-109h-811l170 -485h596v-108h-559l192 -553h414v-109h-494zM635 1294l-281 -831h561z" />
    <glyph glyph-name="Ccedilla" unicode="&#xc7;" horiz-adv-x="1046" 
d="M805 -266q0 -70 -51.5 -114t-143.5 -44q-74 0 -159 29l18 71q67 -18 125 -18q117 0 117 72q0 30 -25 46.5t-72 16.5q-60 0 -118 -12l43 201q-203 13 -294 111.5t-91 281.5v614q0 197 106 296t346 99q175 0 328 -30l-14 -105q-155 27 -304 27q-187 0 -264.5 -65
t-77.5 -224v-610q0 -159 77.5 -224t264.5 -65q149 0 304 27l14 -105q-141 -26 -309 -30l-27 -123q27 6 57 6q65 0 107.5 -33t42.5 -96z" />
    <glyph glyph-name="Egrave" unicode="&#xc8;" horiz-adv-x="1097" 
d="M184 0v1364h768v-109h-647v-505h602v-109h-602v-532h649v-109h-770zM659 1550l-55 -84q-116 61 -254 158l60 90q113 -83 249 -164z" />
    <glyph glyph-name="Eacute" unicode="&#xc9;" horiz-adv-x="1097" 
d="M184 0v1364h768v-109h-647v-505h602v-109h-602v-532h649v-109h-770zM526 1466l-55 84q142 85 250 164l59 -90q-138 -97 -254 -158z" />
    <glyph glyph-name="Ecircumflex" unicode="&#xca;" horiz-adv-x="1097" 
d="M184 0v1364h768v-109h-647v-505h602v-109h-602v-532h649v-109h-770zM371 1466l-45 80q137 84 256 168q155 -110 254 -168l-43 -80q-80 42 -211 123q-158 -95 -211 -123z" />
    <glyph glyph-name="Edieresis" unicode="&#xcb;" horiz-adv-x="1097" 
d="M184 0v1364h768v-109h-647v-505h602v-109h-602v-532h649v-109h-770zM336 1503v123h135v-123h-135zM688 1503v123h135v-123h-135z" />
    <glyph glyph-name="Igrave" unicode="&#xcc;" horiz-adv-x="509" 
d="M315 1364v-1364h-120v1364h120zM322 1550l-56 -84q-116 61 -254 158l60 90q108 -79 250 -164z" />
    <glyph glyph-name="Iacute" unicode="&#xcd;" horiz-adv-x="509" 
d="M315 1364v-1364h-120v1364h120zM252 1466l-55 84q136 81 249 164l60 -90q-138 -97 -254 -158z" />
    <glyph glyph-name="Icircumflex" unicode="&#xce;" horiz-adv-x="509" 
d="M315 1364v-1364h-120v1364h120zM45 1466l-45 80q137 84 256 168q155 -110 254 -168l-43 -80q-80 42 -211 123q-158 -95 -211 -123z" />
    <glyph glyph-name="Idieresis" unicode="&#xcf;" horiz-adv-x="509" 
d="M315 1364v-1364h-120v1364h120zM10 1503v123h135v-123h-135zM362 1503v123h136v-123h-136z" />
    <glyph glyph-name="Eth" unicode="&#xd0;" horiz-adv-x="1284" 
d="M102 643v102h158v619h451q121 0 206 -29.5t132 -86t67.5 -126.5t20.5 -161v-558q0 -91 -20.5 -161t-67.5 -126.5t-132 -86t-206 -29.5h-451v643h-158zM381 1255v-510h289v-102h-289v-534h332q167 0 235 68.5t68 219.5v570q0 151 -68 219.5t-235 68.5h-332z" />
    <glyph glyph-name="Ntilde" unicode="&#xd1;" horiz-adv-x="1306" 
d="M946 0l-647 1245v-1245h-115v1364h176l648 -1247v1247h114v-1364h-176zM682 1518q-3 1 -18 8t-18 8t-15 6t-17 6.5t-14.5 4t-17 3t-15.5 0.5q-53 0 -110 -57l-54 59q29 43 74.5 72t93.5 29q37 0 111 -33q81 -37 117 -37q53 0 98 51l59 -53q-28 -45 -69 -72.5t-88 -27.5
t-117 33z" />
    <glyph glyph-name="Ograve" unicode="&#xd2;" horiz-adv-x="1261" 
d="M1108 385q0 -90 -26 -162t-81 -127.5t-148.5 -85.5t-221.5 -30t-221.5 30t-148.5 85.5t-81 127.5t-26 162v594q0 90 26 162t81 127.5t148.5 85.5t221.5 30t221.5 -30t148.5 -85.5t81 -127.5t26 -162v-594zM631 88q191 0 273.5 75t82.5 226v586q0 151 -82.5 226t-273.5 75
t-274 -75t-83 -226v-586q0 -151 83 -226t274 -75zM719 1550l-55 -84q-116 61 -254 158l59 90q108 -79 250 -164z" />
    <glyph glyph-name="Oacute" unicode="&#xd3;" horiz-adv-x="1261" 
d="M1108 385q0 -90 -26 -162t-81 -127.5t-148.5 -85.5t-221.5 -30t-221.5 30t-148.5 85.5t-81 127.5t-26 162v594q0 90 26 162t81 127.5t148.5 85.5t221.5 30t221.5 -30t148.5 -85.5t81 -127.5t26 -162v-594zM631 88q191 0 273.5 75t82.5 226v586q0 151 -82.5 226t-273.5 75
t-274 -75t-83 -226v-586q0 -151 83 -226t274 -75zM608 1466l-55 84q142 85 250 164l59 -90q-138 -97 -254 -158z" />
    <glyph glyph-name="Ocircumflex" unicode="&#xd4;" horiz-adv-x="1261" 
d="M1108 385q0 -90 -26 -162t-81 -127.5t-148.5 -85.5t-221.5 -30t-221.5 30t-148.5 85.5t-81 127.5t-26 162v594q0 90 26 162t81 127.5t148.5 85.5t221.5 30t221.5 -30t148.5 -85.5t81 -127.5t26 -162v-594zM631 88q191 0 273.5 75t82.5 226v586q0 151 -82.5 226t-273.5 75
t-274 -75t-83 -226v-586q0 -151 83 -226t274 -75zM422 1466l-45 80q137 84 256 168q155 -110 254 -168l-43 -80q-80 42 -211 123q-158 -95 -211 -123z" />
    <glyph glyph-name="Otilde" unicode="&#xd5;" horiz-adv-x="1261" 
d="M1108 385q0 -90 -26 -162t-81 -127.5t-148.5 -85.5t-221.5 -30t-221.5 30t-148.5 85.5t-81 127.5t-26 162v594q0 90 26 162t81 127.5t148.5 85.5t221.5 30t221.5 -30t148.5 -85.5t81 -127.5t26 -162v-594zM631 88q191 0 273.5 75t82.5 226v586q0 151 -82.5 226t-273.5 75
t-274 -75t-83 -226v-586q0 -151 83 -226t274 -75zM645 1518q-3 1 -18 8t-18 8t-15 6t-17 6.5t-14.5 4t-17 3t-15.5 0.5q-53 0 -110 -57l-53 59q29 43 74.5 72t93.5 29q18 0 38 -5t30 -9.5t42 -18.5q81 -37 117 -37q53 0 98 51l60 -53q-28 -45 -69 -72.5t-89 -27.5
q-47 0 -117 33z" />
    <glyph glyph-name="Odieresis" unicode="&#xd6;" horiz-adv-x="1261" 
d="M1108 385q0 -90 -26 -162t-81 -127.5t-148.5 -85.5t-221.5 -30t-221.5 30t-148.5 85.5t-81 127.5t-26 162v594q0 90 26 162t81 127.5t148.5 85.5t221.5 30t221.5 -30t148.5 -85.5t81 -127.5t26 -162v-594zM631 88q191 0 273.5 75t82.5 226v586q0 151 -82.5 226t-273.5 75
t-274 -75t-83 -226v-586q0 -151 83 -226t274 -75zM387 1503v123h135v-123h-135zM739 1503v123h135v-123h-135z" />
    <glyph glyph-name="multiply" unicode="&#xd7;" horiz-adv-x="1122" 
d="M885 897l73 -74l-321 -323l321 -324l-73 -74l-324 322l-323 -322l-74 74l321 324l-321 323l74 74l323 -322z" />
    <glyph glyph-name="Oslash" unicode="&#xd8;" horiz-adv-x="1261" 
d="M1108 1444l-102 -180q102 -102 102 -285v-594q0 -90 -26 -162t-81 -127.5t-148.5 -85.5t-221.5 -30q-193 0 -305 65l-95 -168l-77 41l100 182q-100 100 -100 285v594q0 90 26 162t81 127.5t148.5 85.5t221.5 30q190 0 305 -67l94 170zM631 88q191 0 273.5 75t82.5 226
v586q0 108 -43 178l-563 -1008q80 -57 250 -57zM274 389q0 -112 41 -178l566 1008q-88 57 -250 57q-191 0 -274 -75t-83 -226v-586z" />
    <glyph glyph-name="Ugrave" unicode="&#xd9;" horiz-adv-x="1290" 
d="M995 1364h121v-977q0 -89 -27.5 -161.5t-83 -128t-147.5 -86.5t-213 -31t-213 31t-147.5 86.5t-83 128t-27.5 161.5v977h121v-977q0 -144 89.5 -221.5t260.5 -77.5t260.5 77.5t89.5 221.5v977zM731 1550l-55 -84q-116 61 -254 158l59 90q108 -79 250 -164z" />
    <glyph glyph-name="Uacute" unicode="&#xda;" horiz-adv-x="1290" 
d="M995 1364h121v-977q0 -89 -27.5 -161.5t-83 -128t-147.5 -86.5t-213 -31t-213 31t-147.5 86.5t-83 128t-27.5 161.5v977h121v-977q0 -144 89.5 -221.5t260.5 -77.5t260.5 77.5t89.5 221.5v977zM618 1466l-55 84q142 85 250 164l59 -90q-138 -97 -254 -158z" />
    <glyph glyph-name="Ucircumflex" unicode="&#xdb;" horiz-adv-x="1290" 
d="M995 1364h121v-977q0 -89 -27.5 -161.5t-83 -128t-147.5 -86.5t-213 -31t-213 31t-147.5 86.5t-83 128t-27.5 161.5v977h121v-977q0 -144 89.5 -221.5t260.5 -77.5t260.5 77.5t89.5 221.5v977zM436 1466l-45 80q137 84 256 168q155 -110 254 -168l-43 -80
q-80 42 -211 123q-158 -95 -211 -123z" />
    <glyph glyph-name="Udieresis" unicode="&#xdc;" horiz-adv-x="1290" 
d="M995 1364h121v-977q0 -89 -27.5 -161.5t-83 -128t-147.5 -86.5t-213 -31t-213 31t-147.5 86.5t-83 128t-27.5 161.5v977h121v-977q0 -144 89.5 -221.5t260.5 -77.5t260.5 77.5t89.5 221.5v977zM401 1503v123h136v-123h-136zM754 1503v123h135v-123h-135z" />
    <glyph glyph-name="Yacute" unicode="&#xdd;" horiz-adv-x="1112" 
d="M156 1364l399 -823l401 823h125l-465 -944v-420h-120v420l-465 944h125zM537 1466l-56 84q142 85 250 164l60 -90q-138 -97 -254 -158z" />
    <glyph glyph-name="Thorn" unicode="&#xde;" horiz-adv-x="1114" 
d="M184 0v1364h121v-250h342q375 0 375 -315v-213q0 -316 -375 -316h-342v-270h-121zM901 799q0 111 -60.5 159t-191.5 48h-344v-627h344q131 0 191.5 48t60.5 159v213z" />
    <glyph glyph-name="germandbls" unicode="&#xdf;" horiz-adv-x="1214" 
d="M637 678q0 52 14 94t47 102q58 104 73 155t15 118q0 93 -57 144.5t-176 51.5q-124 0 -187 -68t-63 -216v-1059h-119v1085q0 170 97.5 265.5t273.5 95.5q175 0 262.5 -85t87.5 -216q0 -139 -80 -281q-40 -72 -54.5 -111t-14.5 -79q0 -17 3 -28.5t16 -32t45.5 -47.5
t86.5 -62q55 -36 83 -58t52 -45t33 -48t13 -54t4 -76q0 -63 -11.5 -104t-42 -74.5t-90 -49t-151.5 -15.5q-121 0 -217 38l18 99q42 -13 103 -22t98 -9q104 0 139 25t35 106q0 37 -2 55t-9.5 39.5t-27 39t-48.5 38t-81 53.5q-105 65 -136.5 115.5t-31.5 120.5z" />
    <glyph glyph-name="agrave" unicode="&#xe0;" horiz-adv-x="993" 
d="M840 729v-729h-103l-8 78q-159 -98 -338 -98q-258 0 -258 278q0 154 70 215.5t223 61.5h295v194q0 101 -55 141.5t-181 40.5q-131 0 -295 -32l-18 100q136 39 307 39q189 0 275 -73t86 -216zM721 188v240h-291q-102 0 -140 -36.5t-38 -135.5q0 -94 32.5 -132t131.5 -38
q74 0 156 27.5t149 74.5zM608 1202l-55 -84q-158 88 -272 170l59 90q119 -84 268 -176z" />
    <glyph glyph-name="aacute" unicode="&#xe1;" horiz-adv-x="993" 
d="M840 729v-729h-103l-8 78q-159 -98 -338 -98q-258 0 -258 278q0 154 70 215.5t223 61.5h295v194q0 101 -55 141.5t-181 40.5q-131 0 -295 -32l-18 100q136 39 307 39q189 0 275 -73t86 -216zM721 188v240h-291q-102 0 -140 -36.5t-38 -135.5q0 -94 32.5 -132t131.5 -38
q74 0 156 27.5t149 74.5zM432 1118l-55 84q149 92 268 176l60 -90q-110 -79 -273 -170z" />
    <glyph glyph-name="acircumflex" unicode="&#xe2;" horiz-adv-x="993" 
d="M840 729v-729h-103l-8 78q-159 -98 -338 -98q-258 0 -258 278q0 154 70 215.5t223 61.5h295v194q0 101 -55 141.5t-181 40.5q-131 0 -295 -32l-18 100q136 39 307 39q189 0 275 -73t86 -216zM721 188v240h-291q-102 0 -140 -36.5t-38 -135.5q0 -94 32.5 -132t131.5 -38
q74 0 156 27.5t149 74.5zM287 1120l-45 80q122 73 264 172q163 -115 262 -172l-43 -80q-40 21 -76.5 42t-79 47t-63.5 38q-156 -94 -219 -127z" />
    <glyph glyph-name="atilde" unicode="&#xe3;" horiz-adv-x="993" 
d="M840 729v-729h-103l-8 78q-159 -98 -338 -98q-258 0 -258 278q0 154 70 215.5t223 61.5h295v194q0 101 -55 141.5t-181 40.5q-131 0 -295 -32l-18 100q136 39 307 39q189 0 275 -73t86 -216zM721 188v240h-291q-102 0 -140 -36.5t-38 -135.5q0 -94 32.5 -132t131.5 -38
q74 0 156 27.5t149 74.5zM516 1163q-6 3 -21 9.5t-20.5 9t-17.5 7t-19.5 6.5t-17.5 3.5t-19 1.5q-53 0 -110 -57l-53 59q29 43 74.5 72t93.5 29q18 0 38 -5t30 -9.5t42 -18.5q81 -37 117 -37q53 0 98 51l60 -53q-28 -45 -69.5 -73t-88.5 -28t-117 33z" />
    <glyph glyph-name="adieresis" unicode="&#xe4;" horiz-adv-x="993" 
d="M840 729v-729h-103l-8 78q-159 -98 -338 -98q-258 0 -258 278q0 154 70 215.5t223 61.5h295v194q0 101 -55 141.5t-181 40.5q-131 0 -295 -32l-18 100q136 39 307 39q189 0 275 -73t86 -216zM721 188v240h-291q-102 0 -140 -36.5t-38 -135.5q0 -94 32.5 -132t131.5 -38
q74 0 156 27.5t149 74.5zM287 1143v135h127v-135h-127zM635 1143v135h127v-135h-127z" />
    <glyph glyph-name="aring" unicode="&#xe5;" horiz-adv-x="993" 
d="M840 729v-729h-103l-8 78q-159 -98 -338 -98q-258 0 -258 278q0 154 70 215.5t223 61.5h295v194q0 101 -55 141.5t-181 40.5q-131 0 -295 -32l-18 100q136 39 307 39q189 0 275 -73t86 -216zM721 188v240h-291q-102 0 -140 -36.5t-38 -135.5q0 -94 32.5 -132t131.5 -38
q74 0 156 27.5t149 74.5zM635 1239q0 -56 -36 -93.5t-97 -37.5t-97 37.5t-36 93.5q0 57 35.5 93t97.5 36t97.5 -36t35.5 -93zM565 1239q0 32 -16.5 51t-46.5 19t-48 -19.5t-18 -50.5q0 -30 18 -50t48 -20t46.5 20t16.5 50z" />
    <glyph glyph-name="ae" unicode="&#xe6;" horiz-adv-x="1579" 
d="M479 1018q217 0 301 -139q57 74 127 106.5t187 32.5q102 0 174.5 -27t112.5 -78t57.5 -114t17.5 -144v-192h-616v-152q5 -121 62.5 -174t189.5 -53q67 0 162.5 12t160.5 29l21 -96q-162 -49 -344 -49q-225 0 -310 120q-143 -120 -348 -120q-150 0 -225.5 68.5
t-75.5 215.5q0 83 17.5 137.5t56 85t90 42.5t129.5 12h295v139q0 114 -54 172.5t-173 58.5q-126 0 -304 -32l-16 100q142 39 305 39zM840 659v-90h499v90q0 131 -55 193.5t-190 62.5q-136 0 -195 -63t-59 -193zM436 86q171 0 303 109q-18 58 -18 147v92h-289
q-103 0 -141.5 -33.5t-38.5 -138.5q0 -101 43.5 -138.5t140.5 -37.5z" />
    <glyph glyph-name="ccedilla" unicode="&#xe7;" horiz-adv-x="819" 
d="M231 678v-359q0 -132 58 -182.5t200 -50.5q93 0 213 20l15 -98q-104 -24 -221 -28l-27 -123q27 6 57 6q65 0 107.5 -33t42.5 -96q0 -70 -51.5 -114t-143.5 -44q-74 0 -159 29l18 71q67 -18 125 -18q117 0 117 72q0 30 -25 46.5t-72 16.5q-60 0 -118 -12l43 203
q-159 17 -228 102t-69 238v350q0 170 87 257t289 87q115 0 228 -29l-15 -98q-120 20 -213 20q-142 0 -200 -50.5t-58 -182.5z" />
    <glyph glyph-name="egrave" unicode="&#xe8;" horiz-adv-x="980" 
d="M242 338q0 -137 57 -195.5t203 -58.5q144 0 315 47l21 -96q-153 -55 -344 -55q-200 0 -285.5 94t-85.5 268v313q0 363 373 363q102 0 174.5 -27t112.5 -78t57.5 -114t17.5 -144v-192h-616v-125zM242 659v-90h499v90q0 131 -55 193.5t-190 62.5q-136 0 -195 -63t-59 -193z
M600 1202l-55 -84q-163 91 -273 170l60 90q119 -84 268 -176z" />
    <glyph glyph-name="eacute" unicode="&#xe9;" horiz-adv-x="980" 
d="M242 338q0 -137 57 -195.5t203 -58.5q144 0 315 47l21 -96q-153 -55 -344 -55q-200 0 -285.5 94t-85.5 268v313q0 363 373 363q102 0 174.5 -27t112.5 -78t57.5 -114t17.5 -144v-192h-616v-125zM242 659v-90h499v90q0 131 -55 193.5t-190 62.5q-136 0 -195 -63t-59 -193z
M440 1118l-55 84q149 92 268 176l60 -90q-110 -79 -273 -170z" />
    <glyph glyph-name="ecircumflex" unicode="&#xea;" horiz-adv-x="980" 
d="M242 338q0 -137 57 -195.5t203 -58.5q144 0 315 47l21 -96q-153 -55 -344 -55q-200 0 -285.5 94t-85.5 268v313q0 363 373 363q102 0 174.5 -27t112.5 -78t57.5 -114t17.5 -144v-192h-616v-125zM242 659v-90h499v90q0 131 -55 193.5t-190 62.5q-136 0 -195 -63t-59 -193z
M297 1120l-45 80q122 73 264 172q163 -115 262 -172l-43 -80q-40 21 -76.5 42t-79 47t-63.5 38q-156 -94 -219 -127z" />
    <glyph glyph-name="edieresis" unicode="&#xeb;" horiz-adv-x="980" 
d="M242 338q0 -137 57 -195.5t203 -58.5q144 0 315 47l21 -96q-153 -55 -344 -55q-200 0 -285.5 94t-85.5 268v313q0 363 373 363q102 0 174.5 -27t112.5 -78t57.5 -114t17.5 -144v-192h-616v-125zM242 659v-90h499v90q0 131 -55 193.5t-190 62.5q-136 0 -195 -63t-59 -193z
M256 1143v135h127v-135h-127zM604 1143v135h127v-135h-127z" />
    <glyph glyph-name="igrave" unicode="&#xec;" horiz-adv-x="466" 
d="M293 0h-119v997h119v-997zM309 1202l-55 -84q-158 88 -272 170l59 90q119 -84 268 -176z" />
    <glyph glyph-name="iacute" unicode="&#xed;" horiz-adv-x="466" 
d="M293 0h-119v997h119v-997zM227 1118l-55 84q149 92 268 176l60 -90q-110 -79 -273 -170z" />
    <glyph glyph-name="icircumflex" unicode="&#xee;" horiz-adv-x="466" 
d="M293 0h-119v997h119v-997zM16 1120l-45 80q129 76 265 172q163 -115 262 -172l-43 -80q-40 21 -76.5 42t-79 47t-63.5 38q-149 -90 -220 -127z" />
    <glyph glyph-name="idieresis" unicode="&#xef;" horiz-adv-x="466" 
d="M293 0h-119v997h119v-997zM-4 1143v135h127v-135h-127zM344 1143v135h127v-135h-127z" />
    <glyph glyph-name="eth" unicode="&#xf0;" horiz-adv-x="1050" 
d="M399 1120l150 117q-94 59 -242 106l31 93q178 -57 295 -133l131 104l51 -68l-113 -88q205 -172 205 -487v-422q0 -165 -93.5 -263.5t-293.5 -98.5t-293.5 98.5t-93.5 263.5v242q0 185 96.5 273.5t268.5 88.5q164 0 290 -96q-3 211 -167 336l-172 -133zM520 86
q138 0 203 62.5t65 189.5v379q-38 49 -116 86t-164 37q-137 0 -196.5 -61.5t-59.5 -190.5v-250q0 -127 65 -189.5t203 -62.5z" />
    <glyph glyph-name="ntilde" unicode="&#xf1;" horiz-adv-x="1067" 
d="M903 0h-119v807q0 54 -27 77t-81 23q-64 0 -178 -33t-205 -81v-793h-119v997h105l8 -90q90 43 205.5 77t199.5 34q112 0 161.5 -58t49.5 -167v-793zM547 1163q-6 3 -21 9.5t-20.5 9t-17.5 7t-19.5 6.5t-17.5 3.5t-19 1.5q-53 0 -110 -57l-54 59q29 43 74.5 72t93.5 29
q37 0 111 -33q81 -37 117 -37q53 0 98 51l59 -53q-28 -45 -69 -73t-88 -28t-117 33z" />
    <glyph glyph-name="ograve" unicode="&#xf2;" horiz-adv-x="1019" 
d="M897 342q0 -165 -93.5 -263.5t-293.5 -98.5t-293.5 98.5t-93.5 263.5v313q0 165 93.5 264t293.5 99t293.5 -99t93.5 -264v-313zM778 338v321q0 127 -65 189.5t-203 62.5t-203 -62.5t-65 -189.5v-321q0 -127 65 -189.5t203 -62.5t203 62.5t65 189.5zM635 1202l-55 -84
q-163 91 -273 170l60 90q119 -84 268 -176z" />
    <glyph glyph-name="oacute" unicode="&#xf3;" horiz-adv-x="1019" 
d="M897 342q0 -165 -93.5 -263.5t-293.5 -98.5t-293.5 98.5t-93.5 263.5v313q0 165 93.5 264t293.5 99t293.5 -99t93.5 -264v-313zM778 338v321q0 127 -65 189.5t-203 62.5t-203 -62.5t-65 -189.5v-321q0 -127 65 -189.5t203 -62.5t203 62.5t65 189.5zM465 1118l-55 84
q149 92 268 176l59 -90q-114 -82 -272 -170z" />
    <glyph glyph-name="ocircumflex" unicode="&#xf4;" horiz-adv-x="1019" 
d="M897 342q0 -165 -93.5 -263.5t-293.5 -98.5t-293.5 98.5t-93.5 263.5v313q0 165 93.5 264t293.5 99t293.5 -99t93.5 -264v-313zM778 338v321q0 127 -65 189.5t-203 62.5t-203 -62.5t-65 -189.5v-321q0 -127 65 -189.5t203 -62.5t203 62.5t65 189.5zM293 1120l-45 80
q122 73 264 172q163 -115 262 -172l-43 -80q-40 21 -76.5 42t-79 47t-63.5 38q-156 -94 -219 -127z" />
    <glyph glyph-name="otilde" unicode="&#xf5;" horiz-adv-x="1019" 
d="M897 342q0 -165 -93.5 -263.5t-293.5 -98.5t-293.5 98.5t-93.5 263.5v313q0 165 93.5 264t293.5 99t293.5 -99t93.5 -264v-313zM778 338v321q0 127 -65 189.5t-203 62.5t-203 -62.5t-65 -189.5v-321q0 -127 65 -189.5t203 -62.5t203 62.5t65 189.5zM526 1163q-5 2 -24 11
t-25 11t-19.5 7t-24 6.5t-21.5 1.5q-54 0 -111 -57l-53 59q29 43 74.5 72t93.5 29q18 0 38 -5t30 -9.5t42 -18.5q81 -37 117 -37q53 0 98 51l60 -53q-28 -45 -69.5 -73t-88.5 -28t-117 33z" />
    <glyph glyph-name="odieresis" unicode="&#xf6;" horiz-adv-x="1019" 
d="M897 342q0 -165 -93.5 -263.5t-293.5 -98.5t-293.5 98.5t-93.5 263.5v313q0 165 93.5 264t293.5 99t293.5 -99t93.5 -264v-313zM778 338v321q0 127 -65 189.5t-203 62.5t-203 -62.5t-65 -189.5v-321q0 -127 65 -189.5t203 -62.5t203 62.5t65 189.5zM272 1143v135h127
v-135h-127zM621 1143v135h127v-135h-127z" />
    <glyph glyph-name="divide" unicode="&#xf7;" horiz-adv-x="1159" 
d="M995 551v-107h-831v107h831zM516 90v156h127v-156h-127zM516 750v155h127v-155h-127z" />
    <glyph glyph-name="oslash" unicode="&#xf8;" horiz-adv-x="1019" 
d="M897 342q0 -165 -93.5 -263.5t-293.5 -98.5q-142 0 -234 53l-81 -135l-72 43l86 143q-86 93 -86 258v313q0 165 93.5 264t293.5 99q138 0 233 -53l82 135l72 -45l-88 -144q88 -91 88 -256v-313zM242 338q0 -90 30 -148l414 680q-65 41 -176 41q-138 0 -203 -62.5
t-65 -189.5v-321zM778 338v321q0 92 -33 148l-411 -680q61 -41 176 -41q138 0 203 62.5t65 189.5z" />
    <glyph glyph-name="ugrave" unicode="&#xf9;" horiz-adv-x="1067" 
d="M164 997h119v-807q0 -54 27 -77t81 -23q64 0 178 33.5t205 81.5v792h119v-997h-105l-8 90q-89 -43 -205 -76.5t-200 -33.5q-112 0 -161.5 58t-49.5 167v792zM633 1202l-55 -84q-163 91 -273 170l60 90q119 -84 268 -176z" />
    <glyph glyph-name="uacute" unicode="&#xfa;" horiz-adv-x="1067" 
d="M164 997h119v-807q0 -54 27 -77t81 -23q64 0 178 33.5t205 81.5v792h119v-997h-105l-8 90q-89 -43 -205 -76.5t-200 -33.5q-112 0 -161.5 58t-49.5 167v792zM483 1118l-55 84q149 92 268 176l60 -90q-110 -79 -273 -170z" />
    <glyph glyph-name="ucircumflex" unicode="&#xfb;" horiz-adv-x="1067" 
d="M164 997h119v-807q0 -54 27 -77t81 -23q64 0 178 33.5t205 81.5v792h119v-997h-105l-8 90q-89 -43 -205 -76.5t-200 -33.5q-112 0 -161.5 58t-49.5 167v792zM330 1120l-45 80q122 73 264 172q163 -115 262 -172l-43 -80q-40 21 -76.5 42t-79 47t-63.5 38
q-156 -94 -219 -127z" />
    <glyph glyph-name="udieresis" unicode="&#xfc;" horiz-adv-x="1067" 
d="M164 997h119v-807q0 -54 27 -77t81 -23q64 0 178 33.5t205 81.5v792h119v-997h-105l-8 90q-89 -43 -205 -76.5t-200 -33.5q-112 0 -161.5 58t-49.5 167v792zM303 1143v135h127v-135h-127zM651 1143v135h127v-135h-127z" />
    <glyph glyph-name="yacute" unicode="&#xfd;" horiz-adv-x="909" 
d="M889 997l-338 -997l-148 -403h-116l149 403h-67l-338 997h121l307 -913l309 913h121zM420 1118l-55 84q149 92 268 176l59 -90q-114 -82 -272 -170z" />
    <glyph glyph-name="thorn" unicode="&#xfe;" horiz-adv-x="1060" 
d="M184 -428v1833l119 16v-516q72 55 159.5 84t172.5 29q283 0 283 -277v-454q0 -307 -308 -307q-147 0 -307 32v-415zM303 784v-663q166 -35 311 -35q97 0 141 49t44 152v454q0 90 -37 130t-135 40q-167 0 -324 -127z" />
    <glyph glyph-name="ydieresis" unicode="&#xff;" horiz-adv-x="909" 
d="M889 997l-338 -997l-148 -403h-116l149 403h-67l-338 997h121l307 -913l309 913h121zM223 1143v135h127v-135h-127zM571 1143v135h127v-135h-127z" />
    <glyph glyph-name="Amacron" unicode="&#x100;" horiz-adv-x="1271" 
d="M1081 0l-129 358h-635l-127 -358h-118l475 1364h178l475 -1364h-119zM635 1294l-281 -831h561zM393 1513v93h484v-93h-484z" />
    <glyph glyph-name="amacron" unicode="&#x101;" horiz-adv-x="993" 
d="M840 729v-729h-103l-8 78q-159 -98 -338 -98q-258 0 -258 278q0 154 70 215.5t223 61.5h295v194q0 101 -55 141.5t-181 40.5q-131 0 -295 -32l-18 100q136 39 307 39q189 0 275 -73t86 -216zM721 188v240h-291q-102 0 -140 -36.5t-38 -135.5q0 -94 32.5 -132t131.5 -38
q74 0 156 27.5t149 74.5zM272 1159v98h484v-98h-484z" />
    <glyph glyph-name="Abreve" unicode="&#x102;" horiz-adv-x="1271" 
d="M1081 0l-129 358h-635l-127 -358h-118l475 1364h178l475 -1364h-119zM635 1294l-281 -831h561zM819 1667l68 -61q-39 -57 -103 -98.5t-149 -41.5t-149 41.5t-103 98.5l68 61q80 -108 184 -108t184 108z" />
    <glyph glyph-name="abreve" unicode="&#x103;" horiz-adv-x="993" 
d="M840 729v-729h-103l-8 78q-159 -98 -338 -98q-258 0 -258 278q0 154 70 215.5t223 61.5h295v194q0 101 -55 141.5t-181 40.5q-131 0 -295 -32l-18 100q136 39 307 39q189 0 275 -73t86 -216zM721 188v240h-291q-102 0 -140 -36.5t-38 -135.5q0 -94 32.5 -132t131.5 -38
q74 0 156 27.5t149 74.5zM719 1313l67 -62q-39 -57 -102.5 -98t-148.5 -41t-149 41t-103 98l67 62q80 -109 185 -109q104 0 184 109z" />
    <glyph glyph-name="Aogonek" unicode="&#x104;" horiz-adv-x="1271" 
d="M1200 -393q-57 -31 -131 -31t-124 39.5t-50 116.5q0 79 50.5 149t135.5 119l-129 358h-635l-127 -358h-118l475 1364h178l475 -1364q-98 -67 -149.5 -127.5t-51.5 -132.5q0 -74 84 -74q46 0 93 17zM635 1294l-281 -831h561z" />
    <glyph glyph-name="aogonek" unicode="&#x105;" horiz-adv-x="993" 
d="M840 -393q-57 -31 -131 -31t-124 39.5t-50 116.5q0 151 202 268l-8 78q-159 -98 -338 -98q-258 0 -258 278q0 154 70 215.5t223 61.5h295v194q0 101 -55 141.5t-181 40.5q-131 0 -295 -32l-18 100q136 39 307 39q189 0 275 -73t86 -216v-729q-98 -67 -149.5 -127.5
t-51.5 -132.5q0 -74 84 -74q45 0 92 17zM721 188v240h-291q-102 0 -140 -36.5t-38 -135.5q0 -94 32.5 -132t131.5 -38q74 0 156 27.5t149 74.5z" />
    <glyph glyph-name="Cacute" unicode="&#x106;" horiz-adv-x="1046" 
d="M274 987v-610q0 -159 77.5 -224t264.5 -65q149 0 304 27l14 -105q-153 -30 -328 -30q-240 0 -346 99t-106 296v614q0 197 106 296t346 99q175 0 328 -30l-14 -105q-155 27 -304 27q-187 0 -264.5 -65t-77.5 -224zM545 1466l-56 84q142 85 250 164l60 -90
q-138 -97 -254 -158z" />
    <glyph glyph-name="cacute" unicode="&#x107;" horiz-adv-x="819" 
d="M231 678v-359q0 -132 58 -182.5t200 -50.5q93 0 213 20l15 -98q-109 -28 -228 -28q-202 0 -289 87t-87 257v350q0 170 87 257t289 87q115 0 228 -29l-15 -98q-120 20 -213 20q-142 0 -200 -50.5t-58 -182.5zM393 1118l-55 84q149 92 268 176l60 -90q-110 -79 -273 -170z
" />
    <glyph glyph-name="Ccircumflex" unicode="&#x108;" horiz-adv-x="1046" 
d="M274 987v-610q0 -159 77.5 -224t264.5 -65q149 0 304 27l14 -105q-153 -30 -328 -30q-240 0 -346 99t-106 296v614q0 197 106 296t346 99q175 0 328 -30l-14 -105q-155 27 -304 27q-187 0 -264.5 -65t-77.5 -224zM399 1466l-45 80q137 84 256 168q155 -110 254 -168
l-43 -80q-80 42 -211 123q-158 -95 -211 -123z" />
    <glyph glyph-name="ccircumflex" unicode="&#x109;" horiz-adv-x="819" 
d="M231 678v-359q0 -132 58 -182.5t200 -50.5q93 0 213 20l15 -98q-109 -28 -228 -28q-202 0 -289 87t-87 257v350q0 170 87 257t289 87q115 0 228 -29l-15 -98q-120 20 -213 20q-142 0 -200 -50.5t-58 -182.5zM262 1120l-45 80q122 73 264 172q163 -115 262 -172l-43 -80
q-40 21 -76.5 42t-79 47t-63.5 38q-156 -94 -219 -127z" />
    <glyph glyph-name="Cdotaccent" unicode="&#x10a;" horiz-adv-x="1046" 
d="M274 987v-610q0 -159 77.5 -224t264.5 -65q149 0 304 27l14 -105q-153 -30 -328 -30q-240 0 -346 99t-106 296v614q0 197 106 296t346 99q175 0 328 -30l-14 -105q-155 27 -304 27q-187 0 -264.5 -65t-77.5 -224zM668 1487h-119v219h119v-219z" />
    <glyph glyph-name="cdotaccent" unicode="&#x10b;" horiz-adv-x="819" 
d="M231 678v-359q0 -132 58 -182.5t200 -50.5q93 0 213 20l15 -98q-109 -28 -228 -28q-202 0 -289 87t-87 257v350q0 170 87 257t289 87q115 0 228 -29l-15 -98q-120 20 -213 20q-142 0 -200 -50.5t-58 -182.5zM506 1186h-119v219h119v-219z" />
    <glyph glyph-name="Ccaron" unicode="&#x10c;" horiz-adv-x="1046" 
d="M274 987v-610q0 -159 77.5 -224t264.5 -65q149 0 304 27l14 -105q-153 -30 -328 -30q-240 0 -346 99t-106 296v614q0 197 106 296t346 99q175 0 328 -30l-14 -105q-155 27 -304 27q-187 0 -264.5 -65t-77.5 -224zM346 1642l45 80q63 -33 219 -127q21 12 63.5 38t79 47
t76.5 42l43 -80q-99 -57 -262 -172q-142 99 -264 172z" />
    <glyph glyph-name="ccaron" unicode="&#x10d;" horiz-adv-x="819" 
d="M231 678v-359q0 -132 58 -182.5t200 -50.5q93 0 213 20l15 -98q-109 -28 -228 -28q-202 0 -289 87t-87 257v350q0 170 87 257t289 87q115 0 228 -29l-15 -98q-120 20 -213 20q-142 0 -200 -50.5t-58 -182.5zM205 1274l45 80q63 -33 219 -127q21 12 63.5 38t79 47t76.5 42
l43 -80q-99 -57 -262 -172q-142 99 -264 172z" />
    <glyph glyph-name="Dcaron" unicode="&#x10e;" horiz-adv-x="1208" 
d="M184 1364h451q121 0 206 -29.5t132 -86t67.5 -126.5t20.5 -161v-558q0 -91 -20.5 -161t-67.5 -126.5t-132 -86t-206 -29.5h-451v1364zM305 1255v-1146h332q167 0 235 68.5t68 219.5v570q0 151 -68 219.5t-235 68.5h-332zM324 1642l45 80q63 -33 219 -127q21 12 63.5 38
t79 47t76.5 42l43 -80q-99 -57 -262 -172q-142 99 -264 172z" />
    <glyph glyph-name="dcaron" unicode="&#x10f;" horiz-adv-x="1241" 
d="M143 256v455q0 307 308 307q142 0 307 -33v420l119 16v-1421h-109l-6 94q-73 -56 -161.5 -85t-174.5 -29q-283 0 -283 276zM758 213v664q-161 34 -312 34q-97 0 -140.5 -48.5t-43.5 -151.5v-455q0 -90 37 -130t135 -40q167 0 324 127zM1094 1229v176h127v-176l-99 -221
l-57 24l74 197h-45z" />
    <glyph glyph-name="Dcroat" unicode="&#x110;" horiz-adv-x="1284" 
d="M102 643v102h158v619h451q121 0 206 -29.5t132 -86t67.5 -126.5t20.5 -161v-558q0 -91 -20.5 -161t-67.5 -126.5t-132 -86t-206 -29.5h-451v643h-158zM381 1255v-510h289v-102h-289v-534h332q167 0 235 68.5t68 219.5v570q0 151 -68 219.5t-235 68.5h-332z" />
    <glyph glyph-name="dcroat" unicode="&#x111;" horiz-adv-x="1050" 
d="M512 1155v92h246v158l119 16v-174h155v-92h-155v-1155h-109l-6 94q-73 -56 -161.5 -85t-174.5 -29q-283 0 -283 276v455q0 307 308 307q142 0 307 -33v170h-246zM758 213v664q-161 34 -312 34q-97 0 -140.5 -48.5t-43.5 -151.5v-455q0 -90 37 -130t135 -40q167 0 324 127
z" />
    <glyph glyph-name="Emacron" unicode="&#x112;" horiz-adv-x="1097" 
d="M184 0v1364h768v-109h-647v-505h602v-109h-602v-532h649v-109h-770zM354 1513v93h484v-93h-484z" />
    <glyph glyph-name="emacron" unicode="&#x113;" horiz-adv-x="980" 
d="M242 338q0 -137 57 -195.5t203 -58.5q144 0 315 47l21 -96q-153 -55 -344 -55q-200 0 -285.5 94t-85.5 268v313q0 363 373 363q102 0 174.5 -27t112.5 -78t57.5 -114t17.5 -144v-192h-616v-125zM242 659v-90h499v90q0 131 -55 193.5t-190 62.5q-136 0 -195 -63t-59 -193z
M268 1159v98h484v-98h-484z" />
    <glyph glyph-name="Ebreve" unicode="&#x114;" horiz-adv-x="1097" 
d="M184 0v1364h768v-109h-647v-505h602v-109h-602v-532h649v-109h-770zM778 1667l68 -61q-39 -57 -103 -98.5t-149 -41.5t-149 41.5t-103 98.5l68 61q80 -108 184 -108t184 108z" />
    <glyph glyph-name="ebreve" unicode="&#x115;" horiz-adv-x="980" 
d="M242 338q0 -137 57 -195.5t203 -58.5q144 0 315 47l21 -96q-153 -55 -344 -55q-200 0 -285.5 94t-85.5 268v313q0 363 373 363q102 0 174.5 -27t112.5 -78t57.5 -114t17.5 -144v-192h-616v-125zM242 659v-90h499v90q0 131 -55 193.5t-190 62.5q-136 0 -195 -63t-59 -193z
M705 1313l67 -62q-39 -57 -103 -98t-149 -41t-149 41t-103 98l68 62q80 -109 184 -109q105 0 185 109z" />
    <glyph glyph-name="Edotaccent" unicode="&#x116;" horiz-adv-x="1097" 
d="M184 0v1364h768v-109h-647v-505h602v-109h-602v-532h649v-109h-770zM649 1487h-119v219h119v-219z" />
    <glyph glyph-name="edotaccent" unicode="&#x117;" horiz-adv-x="980" 
d="M242 338q0 -137 57 -195.5t203 -58.5q144 0 315 47l21 -96q-153 -55 -344 -55q-200 0 -285.5 94t-85.5 268v313q0 363 373 363q102 0 174.5 -27t112.5 -78t57.5 -114t17.5 -144v-192h-616v-125zM242 659v-90h499v90q0 131 -55 193.5t-190 62.5q-136 0 -195 -63t-59 -193z
M557 1186h-119v219h119v-219z" />
    <glyph glyph-name="Eogonek" unicode="&#x118;" horiz-adv-x="1097" 
d="M184 0v1364h768v-109h-647v-505h602v-109h-602v-532h649v-109h-96q-98 -67 -149.5 -127.5t-51.5 -132.5q0 -74 84 -74q46 0 93 17l24 -76q-57 -31 -131 -31t-124 39.5t-50 116.5q0 79 55.5 151t141.5 117h-566z" />
    <glyph glyph-name="eogonek" unicode="&#x119;" horiz-adv-x="980" 
d="M694 -393q-57 -31 -131 -31t-124 39.5t-50 116.5q0 81 67.5 145.5t166.5 110.5q-86 -8 -129 -8q-200 0 -285.5 94t-85.5 268v313q0 363 373 363q102 0 174.5 -27t112.5 -78t57.5 -114t17.5 -144v-192h-616v-125q0 -137 57 -195.5t203 -58.5q144 0 315 47l21 -96
q-149 -54 -246.5 -133.5t-97.5 -161.5q0 -74 84 -74q45 0 92 17zM242 659v-90h499v90q0 131 -55 193.5t-190 62.5q-136 0 -195 -63t-59 -193z" />
    <glyph glyph-name="Ecaron" unicode="&#x11a;" horiz-adv-x="1097" 
d="M184 0v1364h768v-109h-647v-505h602v-109h-602v-532h649v-109h-770zM336 1642l45 80q63 -33 219 -127q21 12 63.5 38t79 47t76.5 42l43 -80q-99 -57 -262 -172q-142 99 -264 172z" />
    <glyph glyph-name="ecaron" unicode="&#x11b;" horiz-adv-x="980" 
d="M242 338q0 -137 57 -195.5t203 -58.5q144 0 315 47l21 -96q-153 -55 -344 -55q-200 0 -285.5 94t-85.5 268v313q0 363 373 363q102 0 174.5 -27t112.5 -78t57.5 -114t17.5 -144v-192h-616v-125zM242 659v-90h499v90q0 131 -55 193.5t-190 62.5q-136 0 -195 -63t-59 -193z
M246 1274l45 80q63 -33 219 -127q21 12 63.5 38t79 47t76.5 42l43 -80q-99 -57 -262 -172q-142 99 -264 172z" />
    <glyph glyph-name="Gcircumflex" unicode="&#x11c;" horiz-adv-x="1169" 
d="M274 985v-606q0 -157 69 -224t255 -67q157 0 287 31v483h121v-565q-196 -57 -416 -57q-123 0 -208 25.5t-135 78t-71.5 123.5t-21.5 170v610q0 199 105 298t347 99q215 0 375 -36l-12 -105q-211 33 -361 33q-188 0 -261 -66t-73 -225zM408 1466l-46 80q137 84 256 168
q155 -110 254 -168l-43 -80q-80 42 -211 123q-17 -10 -48.5 -29.5t-51 -31t-50 -29t-60.5 -33.5z" />
    <glyph glyph-name="gcircumflex" unicode="&#x11d;" horiz-adv-x="1050" 
d="M899 655q0 -350 -383 -350q-72 0 -133 12q-78 -64 -78 -131q0 -63 90 -71q45 -4 95 -8t91.5 -7.5t100.5 -7.5q132 -10 190 -69.5t58 -167.5q0 -106 -39.5 -165.5t-131 -86.5t-255.5 -27q-73 0 -173.5 13.5t-176.5 35.5l18 94q175 -41 336 -41q100 0 161.5 9.5t92.5 33
t41 51.5t10 76q0 74 -35.5 107t-124.5 39q-189 12 -270 18q-104 8 -150.5 56t-46.5 120q0 98 95 168q-148 84 -148 299v13q0 175 89 262.5t294 87.5q98 0 168 -21h274v-86l-124 -10q65 -82 65 -233v-13zM784 672q0 135 -59.5 189t-208.5 54q-150 0 -209 -53.5t-59 -189.5
v-21q0 -137 63 -190t205 -53q140 0 204 55.5t64 187.5v21zM315 1120l-45 80q129 76 265 172q163 -115 262 -172l-43 -80q-40 21 -76.5 42t-79 47t-63.5 38q-149 -90 -220 -127z" />
    <glyph glyph-name="Gbreve" unicode="&#x11e;" horiz-adv-x="1169" 
d="M274 985v-606q0 -157 69 -224t255 -67q157 0 287 31v483h121v-565q-196 -57 -416 -57q-123 0 -208 25.5t-135 78t-71.5 123.5t-21.5 170v610q0 199 105 298t347 99q215 0 375 -36l-12 -105q-211 33 -361 33q-188 0 -261 -66t-73 -225zM811 1667l68 -61
q-39 -57 -103 -98.5t-149 -41.5t-149 41.5t-103 98.5l67 61q80 -108 185 -108q104 0 184 108z" />
    <glyph glyph-name="gbreve" unicode="&#x11f;" horiz-adv-x="1050" 
d="M899 655q0 -350 -383 -350q-72 0 -133 12q-78 -64 -78 -131q0 -63 90 -71q45 -4 95 -8t91.5 -7.5t100.5 -7.5q132 -10 190 -69.5t58 -167.5q0 -106 -39.5 -165.5t-131 -86.5t-255.5 -27q-73 0 -173.5 13.5t-176.5 35.5l18 94q175 -41 336 -41q100 0 161.5 9.5t92.5 33
t41 51.5t10 76q0 74 -35.5 107t-124.5 39q-189 12 -270 18q-104 8 -150.5 56t-46.5 120q0 98 95 168q-148 84 -148 299v13q0 175 89 262.5t294 87.5q98 0 168 -21h274v-86l-124 -10q65 -82 65 -233v-13zM784 672q0 135 -59.5 189t-208.5 54q-150 0 -209 -53.5t-59 -189.5
v-21q0 -137 63 -190t205 -53q140 0 204 55.5t64 187.5v21zM717 1313l67 -62q-39 -57 -103 -98t-149 -41t-148.5 41t-102.5 98l67 62q80 -109 184 -109q105 0 185 109z" />
    <glyph glyph-name="Gdotaccent" unicode="&#x120;" horiz-adv-x="1169" 
d="M274 985v-606q0 -157 69 -224t255 -67q157 0 287 31v483h121v-565q-196 -57 -416 -57q-123 0 -208 25.5t-135 78t-71.5 123.5t-21.5 170v610q0 199 105 298t347 99q215 0 375 -36l-12 -105q-211 33 -361 33q-188 0 -261 -66t-73 -225zM684 1487h-119v219h119v-219z" />
    <glyph glyph-name="gdotaccent" unicode="&#x121;" horiz-adv-x="1050" 
d="M899 655q0 -350 -383 -350q-72 0 -133 12q-78 -64 -78 -131q0 -63 90 -71q45 -4 95 -8t91.5 -7.5t100.5 -7.5q132 -10 190 -69.5t58 -167.5q0 -106 -39.5 -165.5t-131 -86.5t-255.5 -27q-73 0 -173.5 13.5t-176.5 35.5l18 94q175 -41 336 -41q100 0 161.5 9.5t92.5 33
t41 51.5t10 76q0 74 -35.5 107t-124.5 39q-189 12 -270 18q-104 8 -150.5 56t-46.5 120q0 98 95 168q-148 84 -148 299v13q0 175 89 262.5t294 87.5q98 0 168 -21h274v-86l-124 -10q65 -82 65 -233v-13zM784 672q0 135 -59.5 189t-208.5 54q-150 0 -209 -53.5t-59 -189.5
v-21q0 -137 63 -190t205 -53q140 0 204 55.5t64 187.5v21zM586 1186h-119v219h119v-219z" />
    <glyph glyph-name="Gcommaaccent" unicode="&#x122;" horiz-adv-x="1169" 
d="M274 985v-606q0 -157 69 -224t255 -67q157 0 287 31v483h121v-565q-196 -57 -416 -57q-123 0 -208 25.5t-135 78t-71.5 123.5t-21.5 170v610q0 199 105 298t347 99q215 0 375 -36l-12 -105q-211 33 -361 33q-188 0 -261 -66t-73 -225zM545 -293v176h127v-176l-99 -221
l-57 25l74 196h-45z" />
    <glyph glyph-name="gcommaaccent" unicode="&#x123;" horiz-adv-x="1050" 
d="M573 1288v-176h-127v176l99 221l57 -24l-74 -197h45zM899 655q0 -350 -383 -350q-72 0 -133 12q-78 -64 -78 -131q0 -63 90 -71q45 -4 95 -8t91.5 -7.5t100.5 -7.5q132 -10 190 -69.5t58 -167.5q0 -106 -39.5 -165.5t-131 -86.5t-255.5 -27q-73 0 -173.5 13.5
t-176.5 35.5l18 94q175 -41 336 -41q100 0 161.5 9.5t92.5 33t41 51.5t10 76q0 74 -35.5 107t-124.5 39q-189 12 -270 18q-104 8 -150.5 56t-46.5 120q0 98 95 168q-148 84 -148 299v13q0 175 89 262.5t294 87.5q98 0 168 -21h274v-86l-124 -10q65 -82 65 -233v-13zM784 672
q0 135 -59.5 189t-208.5 54q-150 0 -209 -53.5t-59 -189.5v-21q0 -137 63 -190t205 -53q140 0 204 55.5t64 187.5v21z" />
    <glyph glyph-name="Hcircumflex" unicode="&#x124;" horiz-adv-x="1269" 
d="M1085 0h-120v647h-660v-647h-121v1364h121v-608h660v608h120v-1364zM426 1466l-45 80q137 84 256 168q155 -110 254 -168l-43 -80q-80 42 -211 123q-158 -95 -211 -123z" />
    <glyph glyph-name="hcircumflex" unicode="&#x125;" horiz-adv-x="1067" 
d="M903 0h-119v807q0 54 -27 77t-81 23q-64 0 -178 -33t-205 -81v-793h-119v1405l119 16v-512q89 43 202.5 76t196.5 33q112 0 161.5 -58t49.5 -167v-793zM33 1528l-45 80q137 84 256 168q155 -110 254 -168l-43 -80q-80 42 -211 123q-158 -95 -211 -123z" />
    <glyph glyph-name="Hbar" unicode="&#x126;" horiz-adv-x="1622" 
d="M195 1065v90h165v209h121v-209h660v209h121v-209h165v-90h-165v-1065h-121v647h-660v-647h-121v1065h-165zM481 756h660v309h-660v-309z" />
    <glyph glyph-name="hbar" unicode="&#x127;" horiz-adv-x="1067" 
d="M45 1143v92h129v170l119 16v-186h262v-92h-262v-234q89 43 202.5 76t196.5 33q112 0 161.5 -58t49.5 -167v-793h-119v807q0 54 -27 77t-81 23q-64 0 -178 -33t-205 -81v-793h-119v1143h-129z" />
    <glyph glyph-name="Itilde" unicode="&#x128;" horiz-adv-x="509" 
d="M315 1364v-1364h-120v1364h120zM268 1518q-5 2 -18 8t-18 8t-15 6.5t-16 6t-14.5 3.5t-16.5 3t-16 1q-54 0 -111 -57l-53 59q29 43 74.5 72t93.5 29q18 0 38 -5t30 -9.5t42 -18.5q81 -37 117 -37q53 0 98 51l60 -53q-28 -45 -69 -72.5t-89 -27.5q-47 0 -117 33z" />
    <glyph glyph-name="itilde" unicode="&#x129;" horiz-adv-x="466" 
d="M293 0h-119v997h119v-997zM248 1163q-6 3 -21 9.5t-20.5 9t-17.5 7t-19.5 6.5t-17.5 3.5t-19 1.5q-53 0 -110 -57l-54 59q29 43 74.5 72t93.5 29q37 0 111 -33q81 -37 117 -37q53 0 98 51l59 -53q-28 -45 -69 -73t-88 -28t-117 33z" />
    <glyph glyph-name="Imacron" unicode="&#x12a;" horiz-adv-x="509" 
d="M315 1364v-1364h-120v1364h120zM12 1513v93h484v-93h-484z" />
    <glyph glyph-name="imacron" unicode="&#x12b;" horiz-adv-x="466" 
d="M293 0h-119v997h119v-997zM-8 1159v98h483v-98h-483z" />
    <glyph glyph-name="Ibreve" unicode="&#x12c;" horiz-adv-x="509" 
d="M315 1364v-1364h-120v1364h120zM438 1667l68 -61q-39 -57 -103 -98.5t-149 -41.5t-149 41.5t-103 98.5l68 61q80 -108 184 -108t184 108z" />
    <glyph glyph-name="ibreve" unicode="&#x12d;" horiz-adv-x="466" 
d="M293 0h-119v997h119v-997zM418 1313l67 -62q-39 -57 -103 -98t-149 -41t-148.5 41t-102.5 98l67 62q80 -109 184 -109q105 0 185 109z" />
    <glyph glyph-name="Iogonek" unicode="&#x12e;" horiz-adv-x="509" 
d="M371 -393q-57 -31 -131 -31q-87 0 -129.5 43.5t-42.5 118.5q0 131 127 262v1364h120v-1364q-143 -136 -143 -260q0 -74 82 -74q45 0 92 17z" />
    <glyph glyph-name="iogonek" unicode="&#x12f;" horiz-adv-x="466" 
d="M174 997h119v-997q-143 -136 -143 -260q0 -74 81 -74q46 0 93 17l24 -76q-57 -31 -131 -31q-87 0 -129.5 43.5t-42.5 118.5q0 129 129 262v997zM293 1186h-119v219h119v-219z" />
    <glyph glyph-name="Idotaccent" unicode="&#x130;" horiz-adv-x="509" 
d="M315 1364v-1364h-120v1364h120zM313 1487h-118v219h118v-219z" />
    <glyph glyph-name="dotlessi" unicode="&#x131;" horiz-adv-x="466" 
d="M293 0h-119v997h119v-997z" />
    <glyph glyph-name="IJ" unicode="&#x132;" horiz-adv-x="989" 
d="M315 1364v-1364h-120v1364h120zM694 1364h121v-1352q0 -56 -3 -85.5t-16 -63.5t-37.5 -63t-69 -75.5t-109.5 -109.5q-7 -6 -11 -10l-80 86q58 56 86 84t56 60t37 45.5t17 37t8.5 37.5t0.5 45v1364z" />
    <glyph glyph-name="ij" unicode="&#x133;" horiz-adv-x="923" 
d="M293 0h-119v997h119v-997zM293 1186h-119v219h119v-219zM641 997h119v-1069q0 -45 -5 -74.5t-14 -54t-37 -55.5t-56.5 -58.5t-89.5 -82.5q-19 -17 -30 -27l-77 86q8 7 23 20q106 96 131 128q32 42 35 105q1 13 1 32v1050zM760 1186h-119v219h119v-219z" />
    <glyph glyph-name="Jcircumflex" unicode="&#x134;" horiz-adv-x="479" 
d="M184 1364h121v-1352q0 -56 -3 -85.5t-16 -63.5t-37.5 -63t-69 -75.5t-109.5 -109.5q-7 -6 -11 -10l-79 86q108 106 145 149t48 72.5t11 87.5v1364zM41 1466l-45 80q137 84 256 168q155 -110 254 -168l-43 -80q-80 42 -211 123q-158 -95 -211 -123z" />
    <glyph glyph-name="jcircumflex" unicode="&#x135;" horiz-adv-x="456" 
d="M174 997h119v-1069q0 -45 -5 -74.5t-14 -54t-37 -55.5t-56.5 -58.5t-89.5 -82.5q-19 -17 -30 -27l-77 86q120 108 145 136q38 45 43 103q2 18 2 46v1050zM20 1120l-45 80q129 76 265 172q163 -115 262 -172l-43 -80q-40 21 -76.5 42t-79 47t-63.5 38q-149 -90 -220 -127z
" />
    <glyph glyph-name="Kcommaaccent" unicode="&#x136;" horiz-adv-x="1165" 
d="M305 1364v-1364h-121v1364h121zM1044 1364l-546 -670l585 -694h-151l-580 694l543 670h149zM532 -293v176h127v-176l-98 -221l-57 25l74 196h-46z" />
    <glyph glyph-name="kcommaaccent" unicode="&#x137;" horiz-adv-x="964" 
d="M293 0h-119v1405l119 16v-1421zM739 997h148l-398 -491l414 -506h-151l-406 506zM436 -293v176h127v-176l-98 -221l-57 25l73 196h-45z" />
    <glyph glyph-name="kgreenlandic" unicode="&#x138;" horiz-adv-x="964" 
d="M293 0h-119v997h119v-997zM739 997h148l-398 -491l414 -506h-151l-406 506z" />
    <glyph glyph-name="Lacute" unicode="&#x139;" horiz-adv-x="1011" 
d="M305 1364v-1255h615v-109h-736v1364h121zM254 1466l-55 84q142 85 250 164l59 -90q-138 -97 -254 -158z" />
    <glyph glyph-name="lacute" unicode="&#x13a;" horiz-adv-x="466" 
d="M293 0h-119v1405l119 16v-1421zM215 1524l-55 84q142 85 250 164l59 -91q-132 -93 -254 -157z" />
    <glyph glyph-name="Lcommaaccent" unicode="&#x13b;" horiz-adv-x="1011" 
d="M305 1364v-1255h615v-109h-736v1364h121zM514 -293v176h127v-176l-98 -221l-58 25l74 196h-45z" />
    <glyph glyph-name="lcommaaccent" unicode="&#x13c;" horiz-adv-x="466" 
d="M293 0h-119v1405l119 16v-1421zM172 -293v176h127v-176l-98 -221l-58 25l74 196h-45z" />
    <glyph glyph-name="Lcaron" unicode="&#x13d;" horiz-adv-x="1011" 
d="M305 1364v-1255h615v-109h-736v1364h121zM653 1229v176h127v-176l-98 -221l-57 24l73 197h-45z" />
    <glyph glyph-name="lcaron" unicode="&#x13e;" horiz-adv-x="655" 
d="M293 0h-119v1405l119 16v-1421zM508 1229v176h127v-176l-98 -221l-58 24l74 197h-45z" />
    <glyph glyph-name="Ldot" unicode="&#x13f;" horiz-adv-x="1011" 
d="M305 1364v-1255h615v-109h-736v1364h121zM571 631v176h127v-176h-127z" />
    <glyph glyph-name="ldot" unicode="&#x140;" horiz-adv-x="704" 
d="M293 0h-119v1405l119 16v-1421zM496 471v176h127v-176h-127z" />
    <glyph glyph-name="Lslash" unicode="&#x141;" horiz-adv-x="1067" 
d="M113 520l-52 92l179 97v655h120v-588l299 164l52 -92l-351 -193v-546h615v-109h-735v590z" />
    <glyph glyph-name="lslash" unicode="&#x142;" horiz-adv-x="649" 
d="M123 520l-51 92l178 97v696l119 16v-647l157 86l52 -92l-209 -115v-653h-119v590z" />
    <glyph glyph-name="Nacute" unicode="&#x143;" horiz-adv-x="1306" 
d="M946 0l-647 1245v-1245h-115v1364h176l648 -1247v1247h114v-1364h-176zM639 1466l-55 84q142 85 250 164l59 -90q-138 -97 -254 -158z" />
    <glyph glyph-name="nacute" unicode="&#x144;" horiz-adv-x="1067" 
d="M903 0h-119v807q0 54 -27 77t-81 23q-64 0 -178 -33t-205 -81v-793h-119v997h105l8 -90q90 43 205.5 77t199.5 34q112 0 161.5 -58t49.5 -167v-793zM475 1118l-55 84q149 92 268 176l60 -90q-110 -79 -273 -170z" />
    <glyph glyph-name="Ncommaaccent" unicode="&#x145;" horiz-adv-x="1306" 
d="M946 0l-647 1245v-1245h-115v1364h176l648 -1247v1247h114v-1364h-176zM575 -293v176h127v-176l-98 -221l-57 25l74 196h-46z" />
    <glyph glyph-name="ncommaaccent" unicode="&#x146;" horiz-adv-x="1067" 
d="M903 0h-119v807q0 54 -27 77t-81 23q-64 0 -178 -33t-205 -81v-793h-119v997h105l8 -90q90 43 205.5 77t199.5 34q112 0 161.5 -58t49.5 -167v-793zM485 -293v176h127v-176l-98 -221l-57 25l73 196h-45z" />
    <glyph glyph-name="Ncaron" unicode="&#x147;" horiz-adv-x="1306" 
d="M946 0l-647 1245v-1245h-115v1364h176l648 -1247v1247h114v-1364h-176zM395 1642l45 80q63 -33 219 -127q191 112 220 127l43 -80q-104 -60 -263 -172q-142 99 -264 172z" />
    <glyph glyph-name="ncaron" unicode="&#x148;" horiz-adv-x="1067" 
d="M903 0h-119v807q0 54 -27 77t-81 23q-64 0 -178 -33t-205 -81v-793h-119v997h105l8 -90q90 43 205.5 77t199.5 34q112 0 161.5 -58t49.5 -167v-793zM289 1274l45 80q63 -33 219 -127q21 12 63.5 38t79 47t76.5 42l43 -80q-99 -57 -262 -172q-142 99 -264 172z" />
    <glyph glyph-name="Eng" unicode="&#x14a;" horiz-adv-x="1306" 
d="M946 0l-647 1245v-1245h-115v1364h176l648 -1247v1247h114v-1436q0 -103 -31.5 -151t-172.5 -176q-18 -16 -27 -25l-78 86q121 108 145 136q39 46 44 103q2 18 2 46v53h-58z" />
    <glyph glyph-name="eng" unicode="&#x14b;" horiz-adv-x="1067" 
d="M784 807q0 54 -27 77t-81 23q-64 0 -178 -33t-205 -81v-793h-119v997h105l8 -90q90 43 205.5 77t199.5 34q112 0 161.5 -58t49.5 -167v-865q0 -103 -31.5 -151t-172.5 -176q-18 -16 -27 -25l-78 86q8 7 23 20q106 96 131 128q32 42 35 105q1 13 1 32v860z" />
    <glyph glyph-name="Omacron" unicode="&#x14c;" horiz-adv-x="1261" 
d="M1108 385q0 -90 -26 -162t-81 -127.5t-148.5 -85.5t-221.5 -30t-221.5 30t-148.5 85.5t-81 127.5t-26 162v594q0 90 26 162t81 127.5t148.5 85.5t221.5 30t221.5 -30t148.5 -85.5t81 -127.5t26 -162v-594zM631 88q191 0 273.5 75t82.5 226v586q0 151 -82.5 226t-273.5 75
t-274 -75t-83 -226v-586q0 -151 83 -226t274 -75zM389 1513v93h483v-93h-483z" />
    <glyph glyph-name="omacron" unicode="&#x14d;" horiz-adv-x="1019" 
d="M897 342q0 -165 -93.5 -263.5t-293.5 -98.5t-293.5 98.5t-93.5 263.5v313q0 165 93.5 264t293.5 99t293.5 -99t93.5 -264v-313zM778 338v321q0 127 -65 189.5t-203 62.5t-203 -62.5t-65 -189.5v-321q0 -127 65 -189.5t203 -62.5t203 62.5t65 189.5zM270 1159v98h484v-98
h-484z" />
    <glyph glyph-name="Obreve" unicode="&#x14e;" horiz-adv-x="1261" 
d="M1108 385q0 -90 -26 -162t-81 -127.5t-148.5 -85.5t-221.5 -30t-221.5 30t-148.5 85.5t-81 127.5t-26 162v594q0 90 26 162t81 127.5t148.5 85.5t221.5 30t221.5 -30t148.5 -85.5t81 -127.5t26 -162v-594zM631 88q191 0 273.5 75t82.5 226v586q0 151 -82.5 226t-273.5 75
t-274 -75t-83 -226v-586q0 -151 83 -226t274 -75zM815 1667l68 -61q-39 -57 -103 -98.5t-149 -41.5t-149 41.5t-103 98.5l67 61q80 -108 185 -108q104 0 184 108z" />
    <glyph glyph-name="obreve" unicode="&#x14f;" horiz-adv-x="1019" 
d="M897 342q0 -165 -93.5 -263.5t-293.5 -98.5t-293.5 98.5t-93.5 263.5v313q0 165 93.5 264t293.5 99t293.5 -99t93.5 -264v-313zM778 338v321q0 127 -65 189.5t-203 62.5t-203 -62.5t-65 -189.5v-321q0 -127 65 -189.5t203 -62.5t203 62.5t65 189.5zM696 1313l68 -62
q-39 -57 -103 -98t-149 -41t-149 41t-103 98l68 62q80 -109 184 -109t184 109z" />
    <glyph glyph-name="Ohungarumlaut" unicode="&#x150;" horiz-adv-x="1261" 
d="M1108 385q0 -90 -26 -162t-81 -127.5t-148.5 -85.5t-221.5 -30t-221.5 30t-148.5 85.5t-81 127.5t-26 162v594q0 90 26 162t81 127.5t148.5 85.5t221.5 30t221.5 -30t148.5 -85.5t81 -127.5t26 -162v-594zM631 88q191 0 273.5 75t82.5 226v586q0 151 -82.5 226t-273.5 75
t-274 -75t-83 -226v-586q0 -151 83 -226t274 -75zM475 1454l-65 76q103 83 243 209l70 -82q-100 -95 -248 -203zM780 1454l-65 78q158 130 243 209l70 -82q-103 -96 -248 -205z" />
    <glyph glyph-name="ohungarumlaut" unicode="&#x151;" horiz-adv-x="1019" 
d="M897 342q0 -165 -93.5 -263.5t-293.5 -98.5t-293.5 98.5t-93.5 263.5v313q0 165 93.5 264t293.5 99t293.5 -99t93.5 -264v-313zM778 338v321q0 127 -65 189.5t-203 62.5t-203 -62.5t-65 -189.5v-321q0 -127 65 -189.5t203 -62.5t203 62.5t65 189.5zM346 1085l-65 76
q103 83 243 209l70 -82q-100 -95 -248 -203zM651 1085l-65 78q158 130 243 209l70 -82q-103 -96 -248 -205z" />
    <glyph glyph-name="OE" unicode="&#x152;" horiz-adv-x="1832" 
d="M1690 0h-1059q-128 0 -221.5 30t-148.5 86t-81 128t-26 162v552q0 90 26 162t81 128t148.5 86t221.5 30h1057v-109h-648v-485h602v-108h-602v-553h650v-109zM631 109h289v1146h-289q-191 0 -274 -75t-83 -226v-544q0 -151 83 -226t274 -75z" />
    <glyph glyph-name="oe" unicode="&#x153;" horiz-adv-x="1636" 
d="M897 326q0 -132 57.5 -187t194.5 -55q67 0 163 12t161 29l20 -96q-162 -49 -344 -49q-119 0 -199.5 38t-118.5 105q-49 -70 -124.5 -106.5t-196.5 -36.5q-200 0 -293.5 98.5t-93.5 263.5v313q0 165 93.5 264t293.5 99q217 0 326 -148q90 148 315 148q102 0 174.5 -27
t112.5 -78t57.5 -114t17.5 -144v-192h-616v-137zM778 326v333q0 127 -65 189.5t-203 62.5t-203 -62.5t-65 -189.5v-321q0 -127 65 -189.5t203 -62.5q268 0 268 240zM897 659v-90h500v90q0 131 -55.5 193.5t-190.5 62.5q-136 0 -195 -63t-59 -193z" />
    <glyph glyph-name="Racute" unicode="&#x154;" horiz-adv-x="1267" 
d="M1049 0l-355 524h-26h-363v-524h-121v1364h484q374 0 374 -315v-209q0 -245 -221 -299l365 -541h-137zM922 1049q0 111 -60.5 158.5t-191.5 47.5h-365v-622h365q131 0 191.5 48t60.5 159v209zM547 1466l-55 84q136 81 249 164l60 -90q-138 -97 -254 -158z" />
    <glyph glyph-name="racute" unicode="&#x155;" horiz-adv-x="638" 
d="M594 1018l14 -117q-102 -44 -315 -184v-717h-119v997h107l6 -151q200 132 307 172zM256 1118l-55 84q149 92 268 176l59 -90q-114 -82 -272 -170z" />
    <glyph glyph-name="Rcommaaccent" unicode="&#x156;" horiz-adv-x="1267" 
d="M1049 0l-355 524h-26h-363v-524h-121v1364h484q374 0 374 -315v-209q0 -245 -221 -299l365 -541h-137zM922 1049q0 111 -60.5 158.5t-191.5 47.5h-365v-622h365q131 0 191.5 48t60.5 159v209zM584 -293v176h127v-176l-99 -221l-57 25l74 196h-45z" />
    <glyph glyph-name="rcommaaccent" unicode="&#x157;" horiz-adv-x="638" 
d="M594 1018l14 -117q-102 -44 -315 -184v-717h-119v997h107l6 -151q200 132 307 172zM168 -293v176h127v-176l-98 -221l-58 25l74 196h-45z" />
    <glyph glyph-name="Rcaron" unicode="&#x158;" horiz-adv-x="1267" 
d="M1049 0l-355 524h-26h-363v-524h-121v1364h484q374 0 374 -315v-209q0 -245 -221 -299l365 -541h-137zM922 1049q0 111 -60.5 158.5t-191.5 47.5h-365v-622h365q131 0 191.5 48t60.5 159v209zM340 1642l45 80q63 -33 219 -127q21 12 63.5 38t79 47t76.5 42l43 -80
q-99 -57 -262 -172q-142 99 -264 172z" />
    <glyph glyph-name="rcaron" unicode="&#x159;" horiz-adv-x="638" 
d="M596 1018l14 -117q-102 -44 -315 -184v-717h-119v997h107l6 -151q200 132 307 172zM119 1274l45 80q63 -33 219 -127q21 12 63.5 38t79 47t76.5 42l43 -80q-99 -57 -262 -172q-142 99 -264 172z" />
    <glyph glyph-name="Sacute" unicode="&#x15a;" horiz-adv-x="1114" 
d="M961 338q0 -89 -17.5 -151t-63 -111t-130 -72.5t-211.5 -23.5q-216 0 -385 65l22 98q183 -55 367 -55q171 0 234 55t63 189v58t-2.5 47.5t-6 40.5t-12 31.5t-18 27.5t-28 21.5t-38.5 20.5t-52 17.5t-65.5 19t-82.5 19.5q-86 20 -142 37t-99.5 42t-66 50.5t-37 69
t-18.5 90t-4 120.5q0 88 18.5 148t65 105t130 66t210.5 21q192 0 352 -47l-14 -102q-178 41 -334 41q-101 0 -162 -12t-93 -43t-42 -71.5t-10 -109.5v-60.5t3 -49t5.5 -40t12.5 -31.5t17.5 -26.5t27.5 -21t37 -19.5t50 -17t62 -18.5t78 -19.5q70 -18 119.5 -32t91 -32
t67 -33t46 -39.5t30.5 -46t16 -58.5t7.5 -70.5t1.5 -87.5zM532 1466l-55 84q142 85 250 164l59 -90q-138 -97 -254 -158z" />
    <glyph glyph-name="sacute" unicode="&#x15b;" horiz-adv-x="890" 
d="M768 252q0 -71 -14.5 -119t-51.5 -84t-102 -52.5t-164 -16.5q-76 0 -157 14t-136 37l21 96q131 -41 264 -41q136 0 178.5 32.5t42.5 129.5q0 43 -1 62.5t-9 43.5t-20 34t-41 24t-63.5 23.5t-96.5 23.5q-63 15 -107 30t-74.5 35t-48 40t-27 52.5t-12 63.5t-2.5 82
q0 130 74 193t252 63q164 0 283 -35l-13 -100q-140 28 -278 28q-86 0 -129.5 -16.5t-56.5 -47t-13 -89.5q0 -39 1 -59.5t8.5 -42t17.5 -32t34.5 -23t53 -21t78.5 -21.5q75 -19 124.5 -35t85.5 -37t54.5 -39t29 -50.5t13 -62.5t2.5 -83zM397 1118l-55 84q149 92 268 176
l60 -90q-110 -79 -273 -170z" />
    <glyph glyph-name="Scircumflex" unicode="&#x15c;" horiz-adv-x="1114" 
d="M961 338q0 -89 -17.5 -151t-63 -111t-130 -72.5t-211.5 -23.5q-216 0 -385 65l22 98q183 -55 367 -55q171 0 234 55t63 189v58t-2.5 47.5t-6 40.5t-12 31.5t-18 27.5t-28 21.5t-38.5 20.5t-52 17.5t-65.5 19t-82.5 19.5q-86 20 -142 37t-99.5 42t-66 50.5t-37 69
t-18.5 90t-4 120.5q0 88 18.5 148t65 105t130 66t210.5 21q192 0 352 -47l-14 -102q-178 41 -334 41q-101 0 -162 -12t-93 -43t-42 -71.5t-10 -109.5v-60.5t3 -49t5.5 -40t12.5 -31.5t17.5 -26.5t27.5 -21t37 -19.5t50 -17t62 -18.5t78 -19.5q70 -18 119.5 -32t91 -32
t67 -33t46 -39.5t30.5 -46t16 -58.5t7.5 -70.5t1.5 -87.5zM395 1466l-45 80q137 84 256 168q155 -110 254 -168l-43 -80q-80 42 -211 123q-158 -95 -211 -123z" />
    <glyph glyph-name="scircumflex" unicode="&#x15d;" horiz-adv-x="890" 
d="M768 252q0 -71 -14.5 -119t-51.5 -84t-102 -52.5t-164 -16.5q-76 0 -157 14t-136 37l21 96q131 -41 264 -41q136 0 178.5 32.5t42.5 129.5q0 43 -1 62.5t-9 43.5t-20 34t-41 24t-63.5 23.5t-96.5 23.5q-63 15 -107 30t-74.5 35t-48 40t-27 52.5t-12 63.5t-2.5 82
q0 130 74 193t252 63q164 0 283 -35l-13 -100q-140 28 -278 28q-86 0 -129.5 -16.5t-56.5 -47t-13 -89.5q0 -39 1 -59.5t8.5 -42t17.5 -32t34.5 -23t53 -21t78.5 -21.5q75 -19 124.5 -35t85.5 -37t54.5 -39t29 -50.5t13 -62.5t2.5 -83zM264 1120l-45 80q122 73 264 172
q163 -115 262 -172l-43 -80q-40 21 -76.5 42t-79 47t-63.5 38q-156 -94 -219 -127z" />
    <glyph glyph-name="Scedilla" unicode="&#x15e;" horiz-adv-x="1114" 
d="M750 -266q0 -70 -51.5 -114t-143.5 -44q-75 0 -160 29l19 71q67 -18 125 -18q116 0 116 72q0 30 -24.5 46.5t-71.5 16.5q-61 0 -119 -12l43 201q-188 7 -329 63l22 98q183 -55 367 -55q171 0 234 55t63 189v58t-2.5 47.5t-6 40.5t-12 31.5t-18 27.5t-28 21.5t-38.5 20.5
t-52 17.5t-65.5 19t-82.5 19.5q-86 20 -142 37t-99.5 42t-66 50.5t-37 69t-18.5 90t-4 120.5q0 88 18.5 148t65 105t130 66t210.5 21q192 0 352 -47l-14 -102q-178 41 -334 41q-101 0 -162 -12t-93 -43t-42 -71.5t-10 -109.5v-60.5t3 -49t5.5 -40t12.5 -31.5t17.5 -26.5
t27.5 -21t37 -19.5t50 -17t62 -18.5t78 -19.5q70 -18 119.5 -32t91 -32t67 -33t46 -39.5t30.5 -46t16 -58.5t7.5 -70.5t1.5 -87.5q0 -87 -17 -147.5t-59 -109t-120.5 -73.5t-195.5 -28l-26 -123q27 6 57 6q65 0 107.5 -33t42.5 -96z" />
    <glyph glyph-name="scedilla" unicode="&#x15f;" horiz-adv-x="890" 
d="M768 252q0 -67 -13 -113t-45 -81.5t-88.5 -53.5t-140.5 -22l-26 -125q27 6 57 6q65 0 107.5 -33t42.5 -96q0 -70 -51.5 -114t-143.5 -44q-75 0 -160 29l19 71q67 -18 125 -18q116 0 116 72q0 30 -24.5 46.5t-71.5 16.5q-61 0 -119 -12l43 201q-154 7 -252 49l21 96
q131 -41 264 -41q136 0 178.5 32.5t42.5 129.5q0 43 -1 62.5t-9 43.5t-20 34t-41 24t-63.5 23.5t-96.5 23.5q-63 15 -107 30t-74.5 35t-48 40t-27 52.5t-12 63.5t-2.5 82q0 130 74 193t252 63q164 0 283 -35l-13 -100q-140 28 -278 28q-86 0 -129.5 -16.5t-56.5 -47
t-13 -89.5q0 -39 1 -59.5t8.5 -42t17.5 -32t34.5 -23t53 -21t78.5 -21.5q75 -19 124.5 -35t85.5 -37t54.5 -39t29 -50.5t13 -62.5t2.5 -83z" />
    <glyph glyph-name="Scaron" unicode="&#x160;" horiz-adv-x="1114" 
d="M961 338q0 -89 -17.5 -151t-63 -111t-130 -72.5t-211.5 -23.5q-216 0 -385 65l22 98q183 -55 367 -55q171 0 234 55t63 189v58t-2.5 47.5t-6 40.5t-12 31.5t-18 27.5t-28 21.5t-38.5 20.5t-52 17.5t-65.5 19t-82.5 19.5q-86 20 -142 37t-99.5 42t-66 50.5t-37 69
t-18.5 90t-4 120.5q0 88 18.5 148t65 105t130 66t210.5 21q192 0 352 -47l-14 -102q-178 41 -334 41q-101 0 -162 -12t-93 -43t-42 -71.5t-10 -109.5v-60.5t3 -49t5.5 -40t12.5 -31.5t17.5 -26.5t27.5 -21t37 -19.5t50 -17t62 -18.5t78 -19.5q70 -18 119.5 -32t91 -32
t67 -33t46 -39.5t30.5 -46t16 -58.5t7.5 -70.5t1.5 -87.5zM328 1642l45 80q63 -33 219 -127q21 12 63.5 38t79 47t76.5 42l43 -80q-99 -57 -262 -172q-142 99 -264 172z" />
    <glyph glyph-name="scaron" unicode="&#x161;" horiz-adv-x="890" 
d="M768 252q0 -71 -14.5 -119t-51.5 -84t-102 -52.5t-164 -16.5q-76 0 -157 14t-136 37l21 96q131 -41 264 -41q136 0 178.5 32.5t42.5 129.5q0 43 -1 62.5t-9 43.5t-20 34t-41 24t-63.5 23.5t-96.5 23.5q-63 15 -107 30t-74.5 35t-48 40t-27 52.5t-12 63.5t-2.5 82
q0 130 74 193t252 63q164 0 283 -35l-13 -100q-140 28 -278 28q-86 0 -129.5 -16.5t-56.5 -47t-13 -89.5q0 -39 1 -59.5t8.5 -42t17.5 -32t34.5 -23t53 -21t78.5 -21.5q75 -19 124.5 -35t85.5 -37t54.5 -39t29 -50.5t13 -62.5t2.5 -83zM201 1274l45 80q63 -33 219 -127
q21 12 63.5 38t79 47t76.5 42l43 -80q-99 -57 -262 -172q-142 99 -264 172z" />
    <glyph glyph-name="Tcommaaccent" unicode="&#x162;" horiz-adv-x="1062" 
d="M471 0v1255h-420v109h961v-109h-420v-1255h-121zM467 -293v176h127v-176l-98 -221l-58 25l74 196h-45z" />
    <glyph glyph-name="Tcommaaccent" unicode="&#x21a;" horiz-adv-x="1062" 
d="M471 0v1255h-420v109h961v-109h-420v-1255h-121zM467 -293v176h127v-176l-98 -221l-58 25l74 196h-45z" />
    <glyph glyph-name="tcommaaccent" unicode="&#x163;" horiz-adv-x="759" 
d="M666 111l22 -93q-94 -38 -209 -38q-120 0 -172.5 49t-52.5 166v700h-193v102h193v236l119 16v-252h305l-12 -102h-293v-688q0 -71 21 -98t93 -27q84 0 179 29zM393 -293v176h127v-176l-98 -221l-57 25l73 196h-45z" />
    <glyph glyph-name="tcommaaccent" unicode="&#x21b;" horiz-adv-x="759" 
d="M666 111l22 -93q-94 -38 -209 -38q-120 0 -172.5 49t-52.5 166v700h-193v102h193v236l119 16v-252h305l-12 -102h-293v-688q0 -71 21 -98t93 -27q84 0 179 29zM393 -293v176h127v-176l-98 -221l-57 25l73 196h-45z" />
    <glyph glyph-name="Tcaron" unicode="&#x164;" horiz-adv-x="1062" 
d="M471 0v1255h-420v109h961v-109h-420v-1255h-121zM268 1642l45 80q63 -33 219 -127q191 112 220 127l43 -80q-104 -60 -263 -172q-142 99 -264 172z" />
    <glyph glyph-name="tcaron" unicode="&#x165;" horiz-adv-x="759" 
d="M666 111l22 -93q-94 -38 -209 -38q-120 0 -172.5 49t-52.5 166v700h-193v102h193v236l119 16v-252h305l-12 -102h-293v-688q0 -71 21 -98t93 -27q84 0 179 29zM602 1270v155h123v-155l-76 -158l-57 25l51 133h-41z" />
    <glyph glyph-name="Tbar" unicode="&#x166;" horiz-adv-x="1062" 
d="M113 625v90h358v540h-420v109h961v-109h-420v-540h358v-90h-358v-625h-121v625h-358z" />
    <glyph glyph-name="tbar" unicode="&#x167;" horiz-adv-x="759" 
d="M61 473v86h193v336h-193v102h193v236l119 16v-252h305l-12 -102h-293v-336h266v-86h-266v-266q0 -71 21 -98t93 -27q84 0 179 29l22 -93q-94 -38 -209 -38q-120 0 -172.5 49t-52.5 166v278h-193z" />
    <glyph glyph-name="Utilde" unicode="&#x168;" horiz-adv-x="1290" 
d="M995 1364h121v-977q0 -89 -27.5 -161.5t-83 -128t-147.5 -86.5t-213 -31t-213 31t-147.5 86.5t-83 128t-27.5 161.5v977h121v-977q0 -144 89.5 -221.5t260.5 -77.5t260.5 77.5t89.5 221.5v977zM680 1518q-3 1 -18 8t-18 8t-15 6t-17 6.5t-14.5 4t-17 3t-15.5 0.5
q-53 0 -110 -57l-54 59q29 43 74.5 72t93.5 29q37 0 111 -33q81 -37 117 -37q53 0 98 51l59 -53q-28 -45 -69 -72.5t-88 -27.5t-117 33z" />
    <glyph glyph-name="utilde" unicode="&#x169;" horiz-adv-x="1067" 
d="M164 997h119v-807q0 -54 27 -77t81 -23q64 0 178 33.5t205 81.5v792h119v-997h-105l-8 90q-89 -43 -205 -76.5t-200 -33.5q-112 0 -161.5 58t-49.5 167v792zM565 1163q-5 2 -24 11t-25 11t-19.5 7t-24 6.5t-21.5 1.5q-54 0 -111 -57l-53 59q29 43 74.5 72t93.5 29
q18 0 38 -5t30 -9.5t42 -18.5q81 -37 117 -37q53 0 98 51l60 -53q-28 -45 -69.5 -73t-88.5 -28t-117 33z" />
    <glyph glyph-name="Umacron" unicode="&#x16a;" horiz-adv-x="1290" 
d="M995 1364h121v-977q0 -89 -27.5 -161.5t-83 -128t-147.5 -86.5t-213 -31t-213 31t-147.5 86.5t-83 128t-27.5 161.5v977h121v-977q0 -144 89.5 -221.5t260.5 -77.5t260.5 77.5t89.5 221.5v977zM401 1513v93h484v-93h-484z" />
    <glyph glyph-name="umacron" unicode="&#x16b;" horiz-adv-x="1067" 
d="M164 997h119v-807q0 -54 27 -77t81 -23q64 0 178 33.5t205 81.5v792h119v-997h-105l-8 90q-89 -43 -205 -76.5t-200 -33.5q-112 0 -161.5 58t-49.5 167v792zM313 1159v98h484v-98h-484z" />
    <glyph glyph-name="Ubreve" unicode="&#x16c;" horiz-adv-x="1290" 
d="M995 1364h121v-977q0 -89 -27.5 -161.5t-83 -128t-147.5 -86.5t-213 -31t-213 31t-147.5 86.5t-83 128t-27.5 161.5v977h121v-977q0 -144 89.5 -221.5t260.5 -77.5t260.5 77.5t89.5 221.5v977zM829 1667l68 -61q-39 -57 -103 -98.5t-149 -41.5t-149 41.5t-103 98.5l68 61
q80 -108 184 -108t184 108z" />
    <glyph glyph-name="ubreve" unicode="&#x16d;" horiz-adv-x="1067" 
d="M164 997h119v-807q0 -54 27 -77t81 -23q64 0 178 33.5t205 81.5v792h119v-997h-105l-8 90q-89 -43 -205 -76.5t-200 -33.5q-112 0 -161.5 58t-49.5 167v792zM739 1313l68 -62q-39 -57 -103 -98t-149 -41t-149 41t-103 98l68 62q80 -109 184 -109t184 109z" />
    <glyph glyph-name="Uring" unicode="&#x16e;" horiz-adv-x="1290" 
d="M995 1364h121v-977q0 -89 -27.5 -161.5t-83 -128t-147.5 -86.5t-213 -31t-213 31t-147.5 86.5t-83 128t-27.5 161.5v977h121v-977q0 -144 89.5 -221.5t260.5 -77.5t260.5 77.5t89.5 221.5v977zM774 1546q0 -56 -34 -91.5t-95 -35.5t-95 35.5t-34 91.5q0 57 33.5 91
t95.5 34t95.5 -34t33.5 -91zM705 1546q0 66 -60 66q-61 0 -61 -66q0 -30 15.5 -47.5t45.5 -17.5q60 0 60 65z" />
    <glyph glyph-name="uring" unicode="&#x16f;" horiz-adv-x="1067" 
d="M164 997h119v-807q0 -54 27 -77t81 -23q64 0 178 33.5t205 81.5v792h119v-997h-105l-8 90q-89 -43 -205 -76.5t-200 -33.5q-112 0 -161.5 58t-49.5 167v792zM666 1239q0 -56 -36.5 -93.5t-97.5 -37.5t-97 37.5t-36 93.5q0 57 35.5 93t97.5 36t98 -36t36 -93zM596 1239
q0 31 -17 50.5t-47 19.5t-47.5 -19.5t-17.5 -50.5q0 -30 17.5 -50t47.5 -20t47 20t17 50z" />
    <glyph glyph-name="Uhungarumlaut" unicode="&#x170;" horiz-adv-x="1290" 
d="M995 1364h121v-977q0 -89 -27.5 -161.5t-83 -128t-147.5 -86.5t-213 -31t-213 31t-147.5 86.5t-83 128t-27.5 161.5v977h121v-977q0 -144 89.5 -221.5t260.5 -77.5t260.5 77.5t89.5 221.5v977zM469 1454l-66 76q112 90 244 209l70 -82q-100 -95 -248 -203zM774 1454
l-65 78q158 130 243 209l70 -82q-103 -96 -248 -205z" />
    <glyph glyph-name="uhungarumlaut" unicode="&#x171;" horiz-adv-x="1067" 
d="M164 997h119v-807q0 -54 27 -77t81 -23q64 0 178 33.5t205 81.5v792h119v-997h-105l-8 90q-89 -43 -205 -76.5t-200 -33.5q-112 0 -161.5 58t-49.5 167v792zM350 1085l-65 76q103 83 243 209l70 -82q-100 -95 -248 -203zM655 1085l-65 78q167 138 244 209l69 -82
q-103 -96 -248 -205z" />
    <glyph glyph-name="Uogonek" unicode="&#x172;" horiz-adv-x="1290" 
d="M825 -393q-57 -31 -131 -31t-124 39.5t-50 116.5q0 38 20.5 76.5t54.5 71t67.5 57.5t70.5 47q-58 -4 -88 -4q-121 0 -213 31t-147.5 86.5t-83 128t-27.5 161.5v977h121v-977q0 -144 89.5 -221.5t260.5 -77.5t260.5 77.5t89.5 221.5v977h121v-977q0 -235 -176 -340
q-11 -7 -41 -27l-46.5 -31t-46 -31.5t-47 -34.5t-41.5 -34.5t-38 -37.5t-28 -36t-20.5 -38t-6.5 -37q0 -74 84 -74q45 0 92 17z" />
    <glyph glyph-name="uogonek" unicode="&#x173;" horiz-adv-x="1067" 
d="M893 -393q-57 -31 -131 -31t-124 39.5t-50 116.5t56 147t144 121l-8 90q-89 -43 -205 -76.5t-200 -33.5q-112 0 -161.5 58t-49.5 167v792h119v-807q0 -54 27 -77t81 -23q64 0 178 33.5t205 81.5v792h119v-997q-98 -67 -149.5 -127.5t-51.5 -132.5q0 -74 84 -74
q45 0 92 17z" />
    <glyph glyph-name="Wcircumflex" unicode="&#x174;" horiz-adv-x="1822" 
d="M1214 0l-303 1278l-303 -1278h-188l-369 1364h117l342 -1272l305 1272h193l305 -1272l342 1272h117l-369 -1364h-189zM702 1466l-45 80q137 84 256 168q155 -110 254 -168l-43 -80q-80 42 -211 123q-158 -95 -211 -123z" />
    <glyph glyph-name="wcircumflex" unicode="&#x175;" horiz-adv-x="1437" 
d="M457 0h-178l-228 997h113l205 -917l270 917h160l268 -917l207 917h112l-227 -997h-178l-262 911zM502 1120l-45 80q122 73 264 172q163 -115 262 -172l-43 -80q-40 21 -76.5 42t-79 47t-63.5 38q-156 -94 -219 -127z" />
    <glyph glyph-name="Ycircumflex" unicode="&#x176;" horiz-adv-x="1112" 
d="M156 1364l399 -823l401 823h125l-465 -944v-420h-120v420l-465 944h125zM346 1466l-45 80q137 84 256 168q155 -110 254 -168l-43 -80q-80 42 -211 123q-158 -95 -211 -123z" />
    <glyph glyph-name="ycircumflex" unicode="&#x177;" horiz-adv-x="909" 
d="M889 997l-338 -997l-148 -403h-116l149 403h-67l-338 997h121l307 -913l309 913h121zM256 1120l-45 80q122 73 264 172q163 -115 262 -172l-43 -80q-40 21 -76.5 42t-79 47t-63.5 38q-156 -94 -219 -127z" />
    <glyph glyph-name="Ydieresis" unicode="&#x178;" horiz-adv-x="1112" 
d="M156 1364l399 -823l401 823h125l-465 -944v-420h-120v420l-465 944h125zM311 1503v123h135v-123h-135zM664 1503v123h135v-123h-135z" />
    <glyph glyph-name="Zacute" unicode="&#x179;" horiz-adv-x="1179" 
d="M1022 1255l-746 -1146h760v-109h-893v109l744 1146h-723v109h858v-109zM555 1466l-55 84q142 85 250 164l59 -90q-138 -97 -254 -158z" />
    <glyph glyph-name="zacute" unicode="&#x17a;" horiz-adv-x="894" 
d="M127 901l2 96h647l-2 -96l-536 -805h555v-96h-680v96l538 805h-524zM397 1118l-55 84q149 92 268 176l60 -90q-110 -79 -273 -170z" />
    <glyph glyph-name="Zdotaccent" unicode="&#x17b;" horiz-adv-x="1179" 
d="M1022 1255l-746 -1146h760v-109h-893v109l744 1146h-723v109h858v-109zM676 1487h-119v219h119v-219z" />
    <glyph glyph-name="zdotaccent" unicode="&#x17c;" horiz-adv-x="894" 
d="M127 901l2 96h647l-2 -96l-536 -805h555v-96h-680v96l538 805h-524zM535 1186h-119v219h119v-219z" />
    <glyph glyph-name="Zcaron" unicode="&#x17d;" horiz-adv-x="1179" 
d="M1022 1255l-746 -1146h760v-109h-893v109l744 1146h-723v109h858v-109zM338 1642l45 80q63 -33 219 -127q21 12 63.5 38t79 47t76.5 42l43 -80q-99 -57 -262 -172q-142 99 -264 172z" />
    <glyph glyph-name="zcaron" unicode="&#x17e;" horiz-adv-x="894" 
d="M127 901l2 96h647l-2 -96l-536 -805h555v-96h-680v96l538 805h-524zM205 1274l45 80q63 -33 219 -127q21 12 63.5 38t79 47t76.5 42l43 -80q-99 -57 -262 -172q-142 99 -264 172z" />
    <glyph glyph-name="florin" unicode="&#x192;" horiz-adv-x="1038" 
d="M440 772h-186l10 102h187l28 336q10 119 83 177.5t196 58.5q86 0 178 -29l-21 -92q-95 18 -157 18q-84 0 -119 -33.5t-43 -117.5l-27 -318h287l-22 -102h-275l-80 -934q-10 -123 -77.5 -182t-196.5 -59q-78 0 -154 26l21 92q72 -16 129 -16q85 0 119 33t40 112z" />
    <glyph glyph-name="Aringacute" unicode="&#x1fa;" horiz-adv-x="1271" 
d="M1081 0l-129 358h-635l-127 -358h-118l475 1364h178l475 -1364h-119zM635 1294l-281 -831h561zM764 1546q0 -56 -34 -91.5t-95 -35.5t-95 35.5t-34 91.5q0 57 33.5 91t95.5 34t95.5 -34t33.5 -91zM694 1546q0 66 -59 66q-62 0 -62 -66q0 -30 16 -47.5t46 -17.5
q59 0 59 65zM631 1714l-43 68q131 78 203 131l47 -74q-92 -65 -207 -125z" />
    <glyph glyph-name="aringacute" unicode="&#x1fb;" horiz-adv-x="993" 
d="M840 729v-729h-103l-8 78q-159 -98 -338 -98q-258 0 -258 278q0 154 70 215.5t223 61.5h295v194q0 101 -55 141.5t-181 40.5q-131 0 -295 -32l-18 100q136 39 307 39q189 0 275 -73t86 -216zM721 188v240h-291q-102 0 -140 -36.5t-38 -135.5q0 -94 32.5 -132t131.5 -38
q74 0 156 27.5t149 74.5zM641 1227q0 -56 -34 -91.5t-95 -35.5t-95 35.5t-34 91.5q0 57 33.5 91t95.5 34t95.5 -34t33.5 -91zM571 1227q0 65 -59 65q-61 0 -61 -65q0 -30 15.5 -48t45.5 -18q59 0 59 66zM500 1395l-43 67q126 75 202 131l48 -73q-92 -65 -207 -125z" />
    <glyph glyph-name="AEacute" unicode="&#x1fc;" horiz-adv-x="1718" 
d="M1081 0l-129 358h-635l-127 -358h-118l475 1364h1026v-109h-811l170 -485h596v-108h-559l192 -553h414v-109h-494zM635 1294l-281 -831h561zM717 1466l-55 84q136 81 249 164l60 -90q-138 -97 -254 -158z" />
    <glyph glyph-name="aeacute" unicode="&#x1fd;" horiz-adv-x="1579" 
d="M479 1018q217 0 301 -139q57 74 127 106.5t187 32.5q102 0 174.5 -27t112.5 -78t57.5 -114t17.5 -144v-192h-616v-152q5 -121 62.5 -174t189.5 -53q67 0 162.5 12t160.5 29l21 -96q-162 -49 -344 -49q-225 0 -310 120q-143 -120 -348 -120q-150 0 -225.5 68.5
t-75.5 215.5q0 83 17.5 137.5t56 85t90 42.5t129.5 12h295v139q0 114 -54 172.5t-173 58.5q-126 0 -304 -32l-16 100q142 39 305 39zM840 659v-90h499v90q0 131 -55 193.5t-190 62.5q-136 0 -195 -63t-59 -193zM436 86q171 0 303 109q-18 58 -18 147v92h-289
q-103 0 -141.5 -33.5t-38.5 -138.5q0 -101 43.5 -138.5t140.5 -37.5zM770 1118l-55 84q149 92 268 176l59 -90q-114 -82 -272 -170z" />
    <glyph glyph-name="Oslashacute" unicode="&#x1fe;" horiz-adv-x="1261" 
d="M1108 1444l-102 -180q102 -102 102 -285v-594q0 -90 -26 -162t-81 -127.5t-148.5 -85.5t-221.5 -30q-193 0 -305 65l-95 -168l-77 41l100 182q-100 100 -100 285v594q0 90 26 162t81 127.5t148.5 85.5t221.5 30q190 0 305 -67l94 170zM631 88q191 0 273.5 75t82.5 226
v586q0 108 -43 178l-563 -1008q80 -57 250 -57zM274 389q0 -112 41 -178l566 1008q-88 57 -250 57q-191 0 -274 -75t-83 -226v-586zM618 1466l-55 84q142 85 250 164l59 -90q-138 -97 -254 -158z" />
    <glyph glyph-name="oslashacute" unicode="&#x1ff;" horiz-adv-x="1019" 
d="M897 342q0 -165 -93.5 -263.5t-293.5 -98.5q-142 0 -234 53l-81 -135l-72 43l86 143q-86 93 -86 258v313q0 165 93.5 264t293.5 99q138 0 233 -53l82 135l72 -45l-88 -144q88 -91 88 -256v-313zM242 338q0 -90 30 -148l414 680q-65 41 -176 41q-138 0 -203 -62.5
t-65 -189.5v-321zM778 338v321q0 92 -33 148l-411 -680q61 -41 176 -41q138 0 203 62.5t65 189.5zM471 1118l-55 84q149 92 268 176l59 -90q-114 -82 -272 -170z" />
    <glyph glyph-name="Scommaaccent" unicode="&#x218;" horiz-adv-x="1114" 
d="M961 338q0 -89 -17.5 -151t-63 -111t-130 -72.5t-211.5 -23.5q-216 0 -385 65l22 98q183 -55 367 -55q171 0 234 55t63 189v58t-2.5 47.5t-6 40.5t-12 31.5t-18 27.5t-28 21.5t-38.5 20.5t-52 17.5t-65.5 19t-82.5 19.5q-86 20 -142 37t-99.5 42t-66 50.5t-37 69
t-18.5 90t-4 120.5q0 88 18.5 148t65 105t130 66t210.5 21q192 0 352 -47l-14 -102q-178 41 -334 41q-101 0 -162 -12t-93 -43t-42 -71.5t-10 -109.5v-60.5t3 -49t5.5 -40t12.5 -31.5t17.5 -26.5t27.5 -21t37 -19.5t50 -17t62 -18.5t78 -19.5q70 -18 119.5 -32t91 -32
t67 -33t46 -39.5t30.5 -46t16 -58.5t7.5 -70.5t1.5 -87.5zM506 -293v176h127v-176l-98 -221l-58 25l74 196h-45z" />
    <glyph glyph-name="scommaaccent" unicode="&#x219;" horiz-adv-x="890" 
d="M768 252q0 -71 -14.5 -119t-51.5 -84t-102 -52.5t-164 -16.5q-76 0 -157 14t-136 37l21 96q131 -41 264 -41q136 0 178.5 32.5t42.5 129.5q0 43 -1 62.5t-9 43.5t-20 34t-41 24t-63.5 23.5t-96.5 23.5q-63 15 -107 30t-74.5 35t-48 40t-27 52.5t-12 63.5t-2.5 82
q0 130 74 193t252 63q164 0 283 -35l-13 -100q-140 28 -278 28q-86 0 -129.5 -16.5t-56.5 -47t-13 -89.5q0 -39 1 -59.5t8.5 -42t17.5 -32t34.5 -23t53 -21t78.5 -21.5q75 -19 124.5 -35t85.5 -37t54.5 -39t29 -50.5t13 -62.5t2.5 -83zM401 -293v176h127v-176l-98 -221
l-57 25l73 196h-45z" />
    <glyph glyph-name="circumflex" unicode="&#x2c6;" horiz-adv-x="813" 
d="M188 1120l-45 80q129 76 265 172q163 -115 262 -172l-43 -80q-40 21 -76.5 42t-79 47t-63.5 38q-149 -90 -220 -127z" />
    <glyph glyph-name="caron" unicode="&#x2c7;" horiz-adv-x="813" 
d="M143 1274l45 80q71 -37 220 -127q21 12 63.5 38t79 47t76.5 42l43 -80q-99 -57 -262 -172q-136 96 -265 172z" />
    <glyph glyph-name="breve" unicode="&#x2d8;" horiz-adv-x="790" 
d="M580 1313l67 -62q-39 -57 -103 -98t-149 -41t-149 41t-103 98l68 62q80 -109 184 -109q105 0 185 109z" />
    <glyph glyph-name="dotaccent" unicode="&#x2d9;" horiz-adv-x="405" 
d="M262 1186h-119v219h119v-219z" />
    <glyph glyph-name="ring" unicode="&#x2da;" horiz-adv-x="552" 
d="M410 1239q0 -56 -36.5 -93.5t-97.5 -37.5t-97 37.5t-36 93.5q0 57 35.5 93t97.5 36t98 -36t36 -93zM340 1239q0 31 -17 50.5t-47 19.5t-47.5 -19.5t-17.5 -50.5q0 -30 17.5 -50t47.5 -20t47 20t17 50z" />
    <glyph glyph-name="ogonek" unicode="&#x2db;" horiz-adv-x="591" 
d="M449 -393q-57 -31 -132 -31q-74 0 -124 39.5t-50 116.5q0 79 51 149t136 119h119q-98 -67 -149.5 -127.5t-51.5 -132.5q0 -74 84 -74q45 0 92 17z" />
    <glyph glyph-name="tilde" unicode="&#x2dc;" horiz-adv-x="839" 
d="M422 1163q-6 3 -21 9.5t-20.5 9t-17.5 7t-19.5 6.5t-17.5 3.5t-19 1.5q-53 0 -110 -57l-54 59q29 43 74.5 72t93.5 29q37 0 111 -33q81 -37 117 -37q53 0 98 51l59 -53q-28 -45 -69 -73t-88 -28t-117 33z" />
    <glyph glyph-name="hungarumlaut" unicode="&#x2dd;" horiz-adv-x="905" 
d="M209 1085l-66 76q112 90 244 209l70 -82q-100 -95 -248 -203zM514 1085l-65 78q158 130 243 209l70 -82q-103 -96 -248 -205z" />
    <glyph glyph-name="Omega" unicode="&#x3a9;" horiz-adv-x="1363" 
d="M1210 106v-106h-358v106q92 63 134 131.5t42 155.5v606q0 136 -88.5 207.5t-257.5 71.5t-257.5 -71.5t-88.5 -207.5v-606q0 -87 42 -155.5t134 -131.5v-106h-358v106h190q-70 72 -98.5 136.5t-28.5 144.5v602q0 88 26 158t80 124t145 83.5t214 29.5t214 -29.5t145 -83.5
t80 -124t26 -158v-602q0 -80 -28.5 -144.5t-98.5 -136.5h190z" />
    <glyph glyph-name="pi" unicode="&#x3c0;" horiz-adv-x="1425" 
d="M1278 891h-266v-696q0 -68 23 -90.5t91 -22.5q63 0 134 22l22 -92q-76 -32 -164 -32q-120 0 -172.5 49t-52.5 166v696h-395v-891h-119v891h-266v106h1165v-106z" />
    <glyph glyph-name="Wgrave" unicode="&#x1e80;" horiz-adv-x="1822" 
d="M1214 0l-303 1278l-303 -1278h-188l-369 1364h117l342 -1272l305 1272h193l305 -1272l342 1272h117l-369 -1364h-189zM979 1550l-55 -84q-116 61 -254 158l59 90q108 -79 250 -164z" />
    <glyph glyph-name="wgrave" unicode="&#x1e81;" horiz-adv-x="1437" 
d="M457 0h-178l-228 997h113l205 -917l270 917h160l268 -917l207 917h112l-227 -997h-178l-262 911zM788 1202l-55 -84q-158 88 -272 170l59 90q119 -84 268 -176z" />
    <glyph glyph-name="Wacute" unicode="&#x1e82;" horiz-adv-x="1822" 
d="M1214 0l-303 1278l-303 -1278h-188l-369 1364h117l342 -1272l305 1272h193l305 -1272l342 1272h117l-369 -1364h-189zM907 1466l-55 84q142 85 250 164l59 -90q-138 -97 -254 -158z" />
    <glyph glyph-name="wacute" unicode="&#x1e83;" horiz-adv-x="1437" 
d="M457 0h-178l-228 997h113l205 -917l270 917h160l268 -917l207 917h112l-227 -997h-178l-262 911zM702 1118l-55 84q149 92 268 176l60 -90q-110 -79 -273 -170z" />
    <glyph glyph-name="Wdieresis" unicode="&#x1e84;" horiz-adv-x="1822" 
d="M1214 0l-303 1278l-303 -1278h-188l-369 1364h117l342 -1272l305 1272h193l305 -1272l342 1272h117l-369 -1364h-189zM668 1503v123h135v-123h-135zM1020 1503v123h135v-123h-135z" />
    <glyph glyph-name="wdieresis" unicode="&#x1e85;" horiz-adv-x="1437" 
d="M457 0h-178l-228 997h113l205 -917l270 917h160l268 -917l207 917h112l-227 -997h-178l-262 911zM481 1143v135h127v-135h-127zM829 1143v135h127v-135h-127z" />
    <glyph glyph-name="Ygrave" unicode="&#x1ef2;" horiz-adv-x="1112" 
d="M156 1364l399 -823l401 823h125l-465 -944v-420h-120v420l-465 944h125zM629 1550l-56 -84q-116 61 -254 158l60 90q108 -79 250 -164z" />
    <glyph glyph-name="ygrave" unicode="&#x1ef3;" horiz-adv-x="909" 
d="M889 997l-338 -997l-148 -403h-116l149 403h-67l-338 997h121l307 -913l309 913h121zM539 1202l-56 -84q-158 88 -272 170l59 90q111 -78 269 -176z" />
    <glyph glyph-name="endash" unicode="&#x2013;" horiz-adv-x="1015" 
d="M154 524v101h708v-101h-708z" />
    <glyph glyph-name="emdash" unicode="&#x2014;" horiz-adv-x="1282" 
d="M154 524v101h974v-101h-974z" />
    <glyph glyph-name="quoteleft" unicode="&#x2018;" horiz-adv-x="493" 
d="M311 1206v-176h-127v176l99 221l57 -24l-74 -197h45z" />
    <glyph glyph-name="quoteright" unicode="&#x2019;" horiz-adv-x="452" 
d="M193 1229v176h126v-176l-98 -221l-57 24l74 197h-45z" />
    <glyph glyph-name="quotesinglbase" unicode="&#x201a;" horiz-adv-x="493" 
d="M182 0v176h127v-176l-98 -221l-57 24l73 197h-45z" />
    <glyph glyph-name="quotedblleft" unicode="&#x201c;" horiz-adv-x="811" 
d="M629 1206v-176h-127v176l98 221l57 -24l-73 -197h45zM311 1206v-176h-127v176l99 221l57 -24l-74 -197h45z" />
    <glyph glyph-name="quotedblright" unicode="&#x201d;" horiz-adv-x="811" 
d="M182 1229v176h127v-176l-98 -221l-57 24l73 197h-45zM500 1229v176h127v-176l-99 -221l-57 24l74 197h-45z" />
    <glyph glyph-name="quotedblbase" unicode="&#x201e;" horiz-adv-x="811" 
d="M182 0v176h127v-176l-98 -221l-57 24l73 197h-45zM500 0v176h127v-176l-99 -221l-57 24l74 197h-45z" />
    <glyph glyph-name="dagger" unicode="&#x2020;" horiz-adv-x="1015" 
d="M113 885v106h336v373h118v-373h336v-106h-336v-1028h-118v1028h-336z" />
    <glyph glyph-name="daggerdbl" unicode="&#x2021;" horiz-adv-x="1015" 
d="M113 229v107h336v549h-336v106h336v373h118v-373h336v-106h-336v-549h336v-107h-336v-372h-118v372h-336z" />
    <glyph glyph-name="bullet" unicode="&#x2022;" horiz-adv-x="782" 
d="M154 662q0 98 69.5 167.5t167.5 69.5t168 -69.5t70 -167.5t-70 -168t-168 -70t-167.5 70t-69.5 168z" />
    <glyph glyph-name="ellipsis" unicode="&#x2026;" horiz-adv-x="1445" 
d="M184 0v176h127v-176h-127zM659 0v176h127v-176h-127zM1135 0v176h127v-176h-127z" />
    <glyph glyph-name="perthousand" unicode="&#x2030;" horiz-adv-x="2482" 
d="M1186 1348l-559 -1368l-90 34l559 1370zM696 1114v-205q0 -270 -290 -270q-293 0 -293 270v205q0 270 293 270q290 0 290 -270zM215 1116v-209q0 -89 44 -133.5t147 -44.5t145.5 44.5t42.5 133.5v209q0 89 -42.5 133.5t-145.5 44.5t-147 -44.5t-44 -133.5zM1604 455v-205
q0 -270 -291 -270q-293 0 -293 270v205q0 270 293 270q291 0 291 -270zM1122 457v-209q0 -89 44 -133.5t147 -44.5t145.5 44.5t42.5 133.5v209q0 89 -42.5 133.5t-145.5 44.5t-147 -44.5t-44 -133.5zM2359 455v-205q0 -270 -291 -270q-292 0 -292 270v205q0 270 292 270
q291 0 291 -270zM1878 457v-209q0 -89 43.5 -133.5t146.5 -44.5t146 44.5t43 133.5v209q0 89 -43 133.5t-146 44.5t-146.5 -44.5t-43.5 -133.5z" />
    <glyph glyph-name="guilsinglleft" unicode="&#x2039;" horiz-adv-x="598" 
d="M113 500l262 395l90 -61l-221 -334l221 -334l-90 -62z" />
    <glyph glyph-name="guilsinglright" unicode="&#x203a;" horiz-adv-x="598" 
d="M223 895l262 -395l-262 -396l-90 62l221 334l-221 334z" />
    <glyph glyph-name="fraction" unicode="&#x2044;" horiz-adv-x="661" 
d="M641 1343l-535 -1396l-86 33l537 1396z" />
    <glyph glyph-name="Euro" unicode="&#x20ac;" horiz-adv-x="1132" 
d="M82 797v94h186v57q0 197 106.5 296t346.5 99q155 0 299 -30l-14 -105q-132 27 -275 27q-187 0 -264.5 -65t-77.5 -224v-55h428v-94h-428v-260h428v-95h-428v-65q0 -159 77.5 -224t264.5 -65q120 0 275 27l14 -105q-153 -30 -299 -30q-240 0 -346.5 99t-106.5 296v67h-186
v95h186v260h-186z" />
    <glyph glyph-name="uni2113" unicode="&#x2113;" horiz-adv-x="940" 
d="M543 -20q-305 0 -305 309v155q-24 -14 -73.5 -41t-74.5 -41l-49 91q166 95 197 114v559q0 320 282 320q133 0 200.5 -75.5t67.5 -203.5q0 -202 -102.5 -351t-329.5 -298v-227q0 -111 45.5 -158t139.5 -47q125 0 245 57l31 -98q-130 -65 -274 -65zM356 1126v-483
q65 50 110 89.5t87 89t67 99t39.5 111.5t14.5 135q0 82 -40.5 127t-113.5 45q-84 0 -124 -52.5t-40 -160.5z" />
    <glyph glyph-name="uni2116" unicode="&#x2116;" horiz-adv-x="1941" 
d="M860 0l-565 1245v-1245h-111v1364h172l566 -1247v1247h110v-1364h-172zM1849 1112v-231q0 -129 -72 -201t-218 -72t-218.5 72t-72.5 201v231q0 129 72 200.5t219 71.5q283 0 290 -272zM1745 1116q0 87 -45 130.5t-141 43.5q-187 0 -187 -174v-239q0 -175 187 -175
q186 0 186 175v239zM1288 395v92h541v-92h-541z" />
    <glyph glyph-name="trademark" unicode="&#x2122;" horiz-adv-x="1069" 
d="M879 942l-5 297l-96 -246h-82l-94 248l-6 -299h-68l11 422h79l119 -322l121 322h74l14 -422h-67zM242 942v361h-129v61h323v-61h-129v-361h-65z" />
    <glyph glyph-name="estimated" unicode="&#x212e;" horiz-adv-x="1646" 
d="M1554 616h-1171v-411q180 -156 440 -156q180 0 318.5 63.5t277.5 202.5l49 -49q-87 -89 -173 -148.5t-208 -98.5t-264 -39q-152 0 -288.5 54.5t-233 147t-153 218t-56.5 262.5q0 184 99.5 341t268 248.5t363.5 91.5t363.5 -91.5t268 -248.5t99.5 -341v-46zM823 1274
q-251 0 -440 -164v-428h881v428q-189 164 -441 164z" />
    <glyph glyph-name="partialdiff" unicode="&#x2202;" horiz-adv-x="1150" 
d="M872 793l9 47q36 236 -41 357.5t-283 121.5q-132 0 -238 -62l-40 91q133 77 299 77q244 0 353 -161t62 -445l-88 -514q-14 -83 -38 -138.5t-70.5 -100t-124.5 -65.5t-191 -21q-210 0 -289.5 82.5t-50.5 242.5l43 244q14 82 37.5 138t67 100.5t115 65.5t174.5 21
q172 0 294 -81zM580 768q-144 0 -199 -44.5t-76 -162.5l-47 -260q-22 -126 27.5 -170.5t214.5 -44.5q139 0 200 45t84 170l68 377q-49 38 -127.5 64t-144.5 26z" />
    <glyph glyph-name="Delta" unicode="&#x2206;" horiz-adv-x="1470" 
d="M801 1364l536 -1364h-1204l537 1364h131zM735 1253l-440 -1151h879z" />
    <glyph glyph-name="product" unicode="&#x220f;" horiz-adv-x="1656" 
d="M1524 1257h-307v-1462h-119v1462h-539v-1462h-119v1462h-307v107h1391v-107z" />
    <glyph glyph-name="summation" unicode="&#x2211;" horiz-adv-x="1153" 
d="M184 -205v107l504 678l-504 677v107h785v-107h-641l503 -677l-503 -678h641v-107h-785z" />
    <glyph glyph-name="minus" unicode="&#x2212;" horiz-adv-x="802" 
d="M133 451v100h537v-100h-537z" />
    <glyph glyph-name="radical" unicode="&#x221a;" horiz-adv-x="1376" 
d="M641 0h-137l-361 977l111 41l311 -860l359 1337h411v-106h-317z" />
    <glyph glyph-name="infinity" unicode="&#x221e;" horiz-adv-x="1769" 
d="M1636 561q0 -157 -91 -246.5t-247 -89.5q-72 0 -134 22t-113.5 64.5t-87 83.5t-78.5 101q-42 -60 -78.5 -101t-87.5 -83.5t-113.5 -64.5t-134.5 -22q-156 0 -247 89.5t-91 246.5q0 158 91 249t247 91q58 0 111.5 -16t93.5 -40t80 -62.5t68 -72.5t61 -81q43 60 78.5 101
t87 84t113.5 65t134 22q156 0 247 -91t91 -249zM238 561q0 -115 64.5 -176t170.5 -61q58 0 108 18.5t92 56t71 72.5t67 90q-33 51 -63 88.5t-72.5 75.5t-93.5 58t-109 20q-106 0 -170.5 -63t-64.5 -179zM1532 561q0 115 -65 178.5t-171 63.5q-58 0 -109 -20t-93.5 -58
t-72.5 -75.5t-63 -88.5q38 -55 67 -90t71 -72.5t92 -56t108 -18.5q107 0 171.5 61t64.5 176z" />
    <glyph glyph-name="integral" unicode="&#x222b;" horiz-adv-x="792" 
d="M430 -229q0 -96 -52.5 -145.5t-150.5 -49.5q-79 0 -155 31l16 92q78 -21 137 -21q49 0 67.5 23t18.5 70v1419q0 96 52.5 145t150.5 49q83 0 156 -30l-17 -92q-74 20 -137 20q-49 0 -67.5 -22.5t-18.5 -69.5v-1419z" />
    <glyph glyph-name="approxequal" unicode="&#x2248;" horiz-adv-x="1083" 
d="M569 674q95 -56 160 -56q79 0 166 56l45 -80q-97 -82 -211 -82q-54 0 -94 13.5t-90 43.5q-32 19 -53 30t-53 20.5t-64 9.5q-79 0 -166 -56l-45 80q97 82 211 82q55 0 97.5 -14.5t96.5 -46.5zM569 408q95 -56 160 -56q79 0 166 56l45 -80q-97 -82 -211 -82q-54 0 -94 13.5
t-90 43.5q-97 59 -170 59q-81 0 -166 -55l-45 80q97 82 211 82q55 0 97.5 -14.5t96.5 -46.5z" />
    <glyph glyph-name="notequal" unicode="&#x2260;" horiz-adv-x="1042" 
d="M164 633v96h432l119 232l82 -43l-97 -189h179v-96h-228l-133 -256h361v-96h-410l-119 -232l-82 43l97 189h-201v96h250l133 256h-383z" />
    <glyph glyph-name="lessequal" unicode="&#x2264;" horiz-adv-x="1114" 
d="M143 0v106h807v-106h-807zM907 954l-610 -290l610 -291l-47 -99l-700 342v95l700 342z" />
    <glyph glyph-name="greaterequal" unicode="&#x2265;" horiz-adv-x="1114" 
d="M971 106v-106h-807v106h807zM817 664l-610 290l47 99l700 -342v-95l-700 -342l-47 99z" />
    <glyph glyph-name="lozenge" unicode="&#x25ca;" horiz-adv-x="1232" 
d="M102 682l482 682h65l481 -682l-481 -682h-65zM616 1233l-387 -551l387 -551l385 551z" />
    <glyph glyph-name="apple" unicode="&#xf8ff;" horiz-adv-x="1835" 
d="M1620 682h-682v-682h-682v1364h1364v-682z" />
    <glyph glyph-name="Acute" horiz-adv-x="616" 
d="M209 1466l-55 84q136 81 249 164l60 -90q-138 -97 -254 -158z" />
    <glyph glyph-name="Breve" horiz-adv-x="790" 
d="M580 1667l67 -61q-39 -57 -103 -98.5t-149 -41.5t-149 41.5t-103 98.5l68 61q80 -108 184 -108q105 0 185 108z" />
    <glyph glyph-name="Caron" horiz-adv-x="813" 
d="M143 1642l45 80q71 -37 220 -127q21 12 63.5 38t79 47t76.5 42l43 -80q-99 -57 -262 -172q-136 96 -265 172z" />
    <glyph glyph-name="Cedilla" horiz-adv-x="641" 
d="M498 -266q0 -70 -51.5 -114t-143.5 -44q-75 0 -160 29l19 71q67 -18 125 -18q116 0 116 72q0 30 -24.5 46.5t-71.5 16.5q-61 0 -119 -12l48 219h86l-31 -143q27 6 57 6q65 0 107.5 -33t42.5 -96z" />
    <glyph glyph-name="Circumflex" horiz-adv-x="796" 
d="M188 1466l-45 80q137 84 256 168q155 -110 254 -168l-43 -80q-80 42 -211 123q-158 -95 -211 -123z" />
    <glyph glyph-name="commaaccent" horiz-adv-x="667" 
d="M285 -293v176h127v-176l-99 -221l-57 25l74 196h-45z" />
    <glyph glyph-name="Dieresis" horiz-adv-x="815" 
d="M164 1503v123h135v-123h-135zM516 1503v123h135v-123h-135z" />
    <glyph glyph-name="Dotaccent" horiz-adv-x="405" 
d="M262 1487h-119v219h119v-219z" />
    <glyph glyph-name="Grave" horiz-adv-x="616" 
d="M463 1550l-55 -84q-116 61 -254 158l59 90q108 -79 250 -164z" />
    <glyph glyph-name="Hungarumlaut" horiz-adv-x="905" 
d="M209 1454l-66 76q112 90 244 209l70 -82q-100 -95 -248 -203zM514 1454l-65 78q158 130 243 209l70 -82q-103 -96 -248 -205z" />
    <glyph glyph-name="Macron" horiz-adv-x="770" 
d="M143 1513v93h484v-93h-484z" />
    <glyph glyph-name="Ogonek" horiz-adv-x="591" 
d="M449 -393q-57 -31 -132 -31q-74 0 -124 39.5t-50 116.5q0 79 51 149t136 119h119q-98 -67 -149.5 -127.5t-51.5 -132.5q0 -74 84 -74q45 0 92 17z" />
    <glyph glyph-name="Ring" horiz-adv-x="544" 
d="M401 1546q0 -56 -34 -91.5t-95 -35.5t-95 35.5t-34 91.5q0 57 33.5 91t95.5 34t95.5 -34t33.5 -91zM332 1546q0 66 -60 66q-61 0 -61 -66q0 -30 15.5 -47.5t45.5 -17.5q60 0 60 65z" />
    <glyph glyph-name="Tilde" horiz-adv-x="839" 
d="M422 1518q-3 1 -18 8t-18 8t-15 6t-17 6.5t-14.5 4t-17 3t-15.5 0.5q-53 0 -110 -57l-54 59q29 43 74.5 72t93.5 29q37 0 111 -33q81 -37 117 -37q53 0 98 51l59 -53q-28 -45 -69 -72.5t-88 -27.5t-117 33z" />
    <glyph glyph-name="ampersand.salt" horiz-adv-x="1318" 
d="M543 422v104h438q149 0 252 66l45 -88q-54 -37 -135 -59.5t-160 -22.5v-113q0 -157 -106.5 -243t-313.5 -86q-210 0 -304.5 95.5t-94.5 260.5v344q0 174 97 256t312 82q77 0 166 -11t144 -26l-13 -98q-152 28 -297 28q-159 0 -224.5 -50.5t-65.5 -182.5v-346
q0 -127 66.5 -186.5t213.5 -59.5q148 0 225.5 51.5t77.5 171.5v113h-323z" />
    <glyph glyph-name="minus.onum" horiz-adv-x="802" 
d="M133 451v100h537v-100h-537z" />
    <glyph glyph-name="multiply.onum" horiz-adv-x="1122" 
d="M885 897l73 -74l-321 -323l321 -324l-73 -74l-324 322l-323 -322l-74 74l321 324l-321 323l74 74l323 -322z" />
    <glyph glyph-name="numbersign.onum" horiz-adv-x="1325" 
d="M1169 252h-245l-13 -252h-104l12 252h-370l-13 -252h-104l12 252h-231l6 96h231l19 354h-230l6 97h228l14 245h105l-15 -245h371l14 245h105l-15 -245h250l-6 -97h-248l-18 -354h246zM473 702l-18 -354h370l19 354h-371z" />
    <glyph glyph-name="dollar.onum" horiz-adv-x="960" 
d="M408 -197v179q-158 7 -275 51l17 96q156 -43 319 -43q136 0 182.5 33.5t46.5 126.5v51.5t-4.5 38.5t-7.5 31.5t-18 23.5t-27 21t-43.5 18t-57.5 21t-79 24q-58 18 -99 31.5t-75.5 30t-55.5 29.5t-38 33t-25 37t-13.5 46t-6.5 54.5t-1 68.5q0 131 68 191t227 67v178h115
v-178q130 -3 246 -33l-15 -102q-141 30 -278 30q-152 0 -198 -32.5t-46 -137.5q0 -38 0.5 -57t9.5 -40.5t18 -30t38 -23.5t56.5 -24t86.5 -27q65 -20 106.5 -34t81 -31.5t61.5 -30t41.5 -32.5t28 -37t15 -46.5t7.5 -57t1 -71.5q0 -129 -67 -193t-228 -71v-179h-114z" />
    <glyph glyph-name="percent.onum" horiz-adv-x="1499" 
d="M463 20l477 1045l88 -41l-477 -1044zM625 692q0 -219 -256 -219t-256 219v154q0 219 256 219t256 -219v-154zM211 844v-150q0 -68 34 -100.5t124 -32.5t123.5 32.5t33.5 100.5v150q0 68 -33.5 100.5t-123.5 32.5t-124 -32.5t-34 -100.5zM1386 199q0 -219 -256 -219
t-256 219v153q0 108 62 169t194 61t194 -61t62 -169v-153zM973 350v-149q0 -68 33.5 -100.5t123.5 -32.5t124 32.5t34 100.5v149q0 68 -34 100.5t-124 32.5t-123.5 -32.5t-33.5 -100.5z" />
    <glyph glyph-name="plus.onum" horiz-adv-x="1097" 
d="M133 444v107h359v364h114v-364h359v-107h-359v-364h-114v364h-359z" />
    <glyph glyph-name="zero.onum" horiz-adv-x="1146" 
d="M983 715v-385q0 -164 -97.5 -257t-312.5 -93q-409 0 -409 350v385q0 350 409 350q215 0 312.5 -93t97.5 -257zM283 707v-369q0 -131 64 -191.5t226 -60.5t226.5 60.5t64.5 191.5v369q0 131 -64.5 191t-226.5 60t-226 -60t-64 -191z" />
    <glyph glyph-name="one.onum" horiz-adv-x="698" 
d="M109 748l-58 98l346 198h107v-1044h-119v903z" />
    <glyph glyph-name="two.onum" horiz-adv-x="1009" 
d="M133 0v106q134 119 365 320q99 85 146 136t61 83.5t14 75.5v20q0 64 -8.5 100.5t-37.5 65.5t-84 40t-147 11q-134 0 -282 -45l-23 101q147 51 318 51q117 0 193.5 -20.5t117.5 -64t56.5 -99t15.5 -136.5v-18q0 -84 -46.5 -157t-199.5 -212q-105 -95 -293 -252h557v-106
h-723z" />
    <glyph glyph-name="three.onum" horiz-adv-x="1003" 
d="M123 -266l16 102q125 -29 279 -29q174 0 238.5 50t64.5 174v90q0 110 -79 161.5t-208 51.5h-241v106h264q112 0 171.5 51t59.5 140v141q0 102 -59 144t-180 42q-128 0 -289 -30l-17 100q152 37 301 37q363 0 363 -285v-153q0 -178 -172 -236q91 -19 148 -89t57 -169v-110
q0 -168 -101.5 -245t-324.5 -77q-166 0 -291 33z" />
    <glyph glyph-name="four.onum" horiz-adv-x="1136" 
d="M1065 104h-203v-383h-119v383h-641v127l600 813h160v-837h203v-103zM217 207h526v715z" />
    <glyph glyph-name="five.onum" horiz-adv-x="1013" 
d="M195 344v700h675v-106h-557v-489q54 -2 250 -15q177 -11 247.5 -87t70.5 -220v-96q0 -165 -93 -247.5t-311 -82.5q-187 0 -334 43l17 98q155 -35 317 -35q158 0 221.5 51.5t63.5 180.5v72q0 57 -8 92.5t-31.5 64t-67 42.5t-112.5 18q-152 8 -348 16z" />
    <glyph glyph-name="six.onum" horiz-adv-x="1060" 
d="M283 881v-207q51 21 137 37t155 16q196 0 274.5 -78.5t78.5 -240.5v-103q0 -161 -87 -243t-290 -82q-204 0 -295.5 82.5t-91.5 242.5v578q0 127 23 211t80.5 141.5t153.5 82.5t243 25q135 0 233 -28l-14 -101q-102 23 -199 23q-87 0 -148.5 -7t-107 -25.5t-73 -44
t-44 -67.5t-22.5 -91t-6 -121zM571 621q-140 0 -288 -62v-258q0 -120 67.5 -167.5t200.5 -47.5q144 0 201 48.5t57 166.5v113q0 75 -19 118t-71.5 66t-147.5 23z" />
    <glyph glyph-name="seven.onum" horiz-adv-x="899" 
d="M61 938v106h766v-100l-573 -1223l-98 48l551 1169h-646z" />
    <glyph glyph-name="eight.onum" horiz-adv-x="1155" 
d="M956 997q0 -112 -51.5 -185.5t-189.5 -135.5q154 -68 215 -144.5t61 -195.5v-41q0 -165 -97.5 -240t-315.5 -75t-316 75t-98 240v41q0 119 60 195.5t212 144.5q-132 61 -184.5 139.5t-52.5 181.5v27q0 319 379 319q378 0 378 -319v-27zM872 342q0 52 -13 87.5t-50.5 67.5
t-87.5 57.5t-143 63.5q-176 -70 -235.5 -123t-59.5 -153v-41q0 -121 65.5 -168t229.5 -47t229 47t65 168v41zM317 989q0 -90 54 -142t207 -118q155 67 207.5 117.5t52.5 142.5v51q0 98 -58.5 147.5t-201.5 49.5t-202 -49t-59 -148v-51z" />
    <glyph glyph-name="nine.onum" horiz-adv-x="1050" 
d="M768 164v207q-51 -21 -138 -37.5t-155 -16.5q-100 0 -169.5 20.5t-109 63t-56.5 99.5t-17 137v102q0 161 87 243.5t290 82.5q204 0 295.5 -83t91.5 -243v-577q0 -127 -23 -211t-80.5 -142t-153.5 -83t-243 -25q-131 0 -233 29l14 100q102 -23 199 -23q87 0 148.5 7.5
t107 25.5t73 43.5t44 68t22.5 91.5t6 121zM479 424q69 0 149 18t140 43v258q0 120 -67.5 167.5t-200.5 47.5q-144 0 -201 -48.5t-57 -166.5v-112q0 -113 49 -160t188 -47z" />
    <glyph glyph-name="less.onum" horiz-adv-x="1126" 
d="M102 457v86l816 475l51 -86l-748 -432l752 -434l-51 -86z" />
    <glyph glyph-name="equal.onum" horiz-adv-x="1042" 
d="M164 633v96h715v-96h-715zM164 281v96h715v-96h-715z" />
    <glyph glyph-name="greater.onum" horiz-adv-x="1126" 
d="M1024 543v-86l-819 -477l-51 86l751 434l-747 432l51 86z" />
    <glyph glyph-name="cent.onum" horiz-adv-x="989" 
d="M498 -143v217q-177 12 -255.5 88.5t-78.5 218.5v303q0 142 78.5 218.5t255.5 88.5v217h114v-217q127 -3 224 -28l-17 -101q-111 25 -252 25q-157 0 -220.5 -45t-63.5 -166v-287q0 -121 63.5 -166t220.5 -45q141 0 252 25l17 -101q-89 -23 -224 -30v-215h-114z" />
    <glyph glyph-name="sterling.onum" horiz-adv-x="1032" 
d="M143 475v100h170q-46 71 -67 127.5t-21 122.5q0 119 85 179.5t268 60.5q160 0 303 -43l-17 -96q-139 32 -282 32q-126 0 -182 -29t-56 -106q0 -46 18 -96.5t33.5 -77t46.5 -74.5h387l-6 -100h-329q18 -41 18 -88q0 -154 -158 -281h545v-106h-721v102q88 52 152.5 125.5
t64.5 155.5q0 58 -22 92h-230z" />
    <glyph glyph-name="section.onum" horiz-adv-x="1073" 
d="M526 43l-92 -63q-291 378 -291 860q0 120 63.5 172.5t194.5 52.5q64 0 151 -14t150 -35l-18 -92q-163 39 -274 39q-86 0 -117 -27.5t-31 -104.5q0 -221 65.5 -413t198.5 -375zM594 684l92 64q264 -338 264 -824q0 -120 -63.5 -172.5t-194.5 -52.5q-64 0 -151 14t-150 35
l19 92q163 -39 274 -39q86 0 116.5 27t30.5 104q0 222 -62.5 418t-174.5 334z" />
    <glyph glyph-name="yen.onum" horiz-adv-x="1038" 
d="M141 424v90h213l-293 530h125l332 -610l334 610h125l-295 -530h215v-90h-266l-53 -98v-78h319v-88h-319v-160h-119v160h-318v88h318v78l-56 98h-262z" />
    <glyph glyph-name="florin.onum" horiz-adv-x="948" 
d="M367 438h-189l10 103h187l26 301q10 119 78.5 171t192.5 52q98 0 184 -29l-20 -92q-74 19 -158 19q-83 0 -117 -30t-41 -112l-24 -280h278l-16 -103h-271l-55 -626q-10 -119 -67.5 -167t-169.5 -48q-78 0 -154 26l20 92q66 -16 119 -16q75 0 101 28.5t32 108.5z" />
    <glyph glyph-name="endash.onum" horiz-adv-x="1015" 
d="M154 524v101h708v-101h-708z" />
    <glyph glyph-name="divide.onum" horiz-adv-x="1159" 
d="M995 551v-107h-831v107h831zM516 90v156h127v-156h-127zM516 750v155h127v-155h-127z" />
    <glyph glyph-name="Euro.onum" horiz-adv-x="1091" 
d="M113 629v82h163v45q0 155 94.5 232t307.5 77q152 0 270 -31l-16 -100q-107 24 -252 24q-157 0 -221 -45t-64 -165v-37h453v-82h-453v-199h453v-82h-453v-51q0 -121 64 -166t221 -45q141 0 252 25l16 -101q-114 -30 -270 -30q-213 0 -307.5 77t-94.5 232v59h-163v82h163
v199h-163z" />
    <glyph glyph-name="perthousand.onum" horiz-adv-x="2162" 
d="M463 20l477 1045l88 -41l-477 -1044zM625 692q0 -219 -256 -219t-256 219v154q0 219 256 219t256 -219v-154zM211 844v-150q0 -68 34 -100.5t124 -32.5t123.5 32.5t33.5 100.5v150q0 68 -33.5 100.5t-123.5 32.5t-124 -32.5t-34 -100.5zM1386 199q0 -219 -256 -219
t-256 219v153q0 108 62 169t194 61t194 -61t62 -169v-153zM973 350v-149q0 -68 33.5 -100.5t123.5 -32.5t124 32.5t34 100.5v149q0 68 -34 100.5t-124 32.5t-123.5 -32.5t-33.5 -100.5zM2050 199q0 -219 -256 -219t-256 219v153q0 108 62 169t194 61t194 -61t62 -169v-153z
M1636 350v-149q0 -68 34 -100.5t124 -32.5t124 32.5t34 100.5v149q0 68 -34 100.5t-124 32.5t-124 -32.5t-34 -100.5z" />
    <glyph glyph-name="minus.tnum" 
d="M268 451v100h537v-100h-537z" />
    <glyph glyph-name="multiply.tnum" 
d="M860 897l74 -74l-322 -323l322 -324l-74 -74l-323 322l-324 -322l-74 74l322 324l-322 323l74 74l324 -322z" />
    <glyph glyph-name="numbersign.tnum" 
d="M989 367h-180l-18 -367h-101l19 367h-344l-19 -367h-100l18 367h-184l6 92h184l23 436h-189l7 92h188l18 336h101l-19 -336h344l19 336h100l-18 -336h176l-6 -92h-176l-23 -436h180zM393 895l-22 -436h344l22 436h-344z" />
    <glyph glyph-name="dollar.tnum" 
d="M596 -223h-115v205q-170 7 -307 61l19 96q175 -53 344 -53q144 0 199 52t55 184v55.5t-2.5 45t-5.5 38t-11 30t-17 26.5t-27 21.5t-37 21t-50 18.5t-63 21t-80 22q-63 17 -108.5 35.5t-78 34.5t-52 44t-31 47t-16.5 62t-6 70.5t-1 89.5q0 166 71.5 247t245.5 90v205h115
v-205q150 -7 268 -38l-14 -101q-171 35 -316 35q-149 0 -200 -47t-51 -191v-57t3 -45.5t4 -37.5t10 -29t14 -24.5t22.5 -19.5t29.5 -17.5t41 -16t50.5 -18l64.5 -19.5q87 -26 138.5 -44.5t94.5 -44t62 -46.5t32.5 -62t16 -80.5t2.5 -109.5q0 -173 -76.5 -254t-236.5 -92
v-205z" />
    <glyph glyph-name="percent.tnum" horiz-adv-x="1726" 
d="M1186 1348l-559 -1368l-90 34l559 1370zM696 1114v-205q0 -270 -290 -270q-293 0 -293 270v205q0 270 293 270q290 0 290 -270zM215 1116v-209q0 -89 44 -133.5t147 -44.5t145.5 44.5t42.5 133.5v209q0 89 -42.5 133.5t-145.5 44.5t-147 -44.5t-44 -133.5zM1604 455v-205
q0 -270 -291 -270q-293 0 -293 270v205q0 270 293 270q291 0 291 -270zM1122 457v-209q0 -89 44 -133.5t147 -44.5t145.5 44.5t42.5 133.5v209q0 89 -42.5 133.5t-145.5 44.5t-147 -44.5t-44 -133.5z" />
    <glyph glyph-name="plus.tnum" 
d="M121 444v107h358v364h115v-364h358v-107h-358v-364h-115v364h-358z" />
    <glyph glyph-name="zero.tnum" 
d="M946 993v-663q0 -350 -409 -350q-215 0 -312.5 93t-97.5 257v663q0 164 97.5 257t312.5 93q409 0 409 -350zM246 985v-647q0 -131 64.5 -191.5t226.5 -60.5t226 60.5t64 191.5v647q0 131 -64 191.5t-226 60.5t-226.5 -60.5t-64.5 -191.5z" />
    <glyph glyph-name="one.tnum" 
d="M154 0v104h338v1102l-322 -112l-33 100l367 129h106v-1219h334v-104h-790z" />
    <glyph glyph-name="two.tnum" 
d="M164 0v106q58 73 134 165.5t124.5 154t116.5 149.5q134 173 179.5 251.5t45.5 160.5v33q0 64 -8.5 100.5t-37.5 65.5t-84 40t-147 11q-141 0 -288 -47l-23 102q59 20 149.5 35.5t174.5 15.5q117 0 193.5 -20.5t117.5 -64t56.5 -98.5t15.5 -136v-31q0 -104 -46 -189.5
t-204 -295.5q-58 -78 -101 -132.5t-109 -136t-108 -133.5h578v-106h-729z" />
    <glyph glyph-name="three.tnum" 
d="M154 20l16 103q154 -37 307 -37q174 0 238.5 49.5t64.5 173.5v90q0 213 -252 213h-276v107h285q104 0 157.5 47t53.5 129v156q0 101 -61.5 143.5t-197.5 42.5q-145 0 -301 -29l-14 103q141 32 311 32q381 0 381 -284v-154q0 -94 -34.5 -150t-120.5 -87q86 -19 137 -88
t51 -172v-107q0 -169 -98.5 -245t-327.5 -76q-168 0 -319 40z" />
    <glyph glyph-name="four.tnum" 
d="M1006 360h-183v-360h-118v360h-613v119l543 844h188v-864h183v-99zM209 459h496v782z" />
    <glyph glyph-name="five.tnum" 
d="M223 633v690h680v-106h-561v-478q47 -1 121 -2t119 -2q177 -3 254 -84.5t77 -228.5v-113q0 -110 -36 -180t-126.5 -109.5t-240.5 -39.5q-209 0 -338 45l21 98q137 -37 317 -37q162 0 223.5 50.5t61.5 180.5v89q0 121 -49.5 170.5t-186.5 52.5q-55 1 -170 2t-166 2z" />
    <glyph glyph-name="six.tnum" 
d="M287 881v-197q51 21 137.5 37t155.5 16q196 0 274 -78.5t78 -240.5v-113q0 -161 -87 -243t-290 -82q-204 0 -295.5 82.5t-91.5 242.5v578q0 127 23 211t80.5 141.5t153.5 82.5t243 25q135 0 233 -28l-14 -101q-102 23 -199 23q-87 0 -148.5 -7t-107 -25.5t-73 -44
t-44 -67.5t-22.5 -91t-6 -121zM575 631q-140 0 -288 -62v-268q0 -120 67.5 -167.5t200.5 -47.5q144 0 201 48.5t57 166.5v123q0 75 -19 118t-71.5 66t-147.5 23z" />
    <glyph glyph-name="seven.tnum" 
d="M156 1217v106h827v-100l-655 -1223h-129l655 1217h-698z" />
    <glyph glyph-name="eight.tnum" 
d="M915 997q0 -112 -51.5 -185.5t-189.5 -135.5q154 -68 215 -144.5t61 -195.5v-41q0 -165 -97.5 -240t-315.5 -75t-316 75t-98 240v41q0 119 60 195.5t212 144.5q-132 61 -184.5 139.5t-52.5 181.5v27q0 319 379 319q378 0 378 -319v-27zM831 342q0 52 -13 87.5t-50.5 67.5
t-87.5 57.5t-143 63.5q-176 -70 -235.5 -123t-59.5 -153v-41q0 -121 65.5 -168t229.5 -47t229 47t65 168v41zM276 989q0 -90 54 -142t207 -118q155 67 207.5 117.5t52.5 142.5v51q0 98 -58.5 147.5t-201.5 49.5t-202 -49t-59 -148v-51z" />
    <glyph glyph-name="nine.tnum" 
d="M788 442v197q-51 -21 -137 -37t-155 -16q-196 0 -274.5 78.5t-78.5 240.5v113q0 160 89 242.5t288 82.5q205 0 296 -81t91 -244v-578q0 -128 -22 -211t-78.5 -141t-153 -83t-245.5 -25q-129 0 -234 30l14 101q110 -25 199 -25t152 7t108.5 25.5t72.5 43.5t42.5 68
t20.5 91t5 121zM500 692q140 0 288 62v268q0 120 -67.5 167.5t-200.5 47.5q-144 0 -201 -48.5t-57 -166.5v-123q0 -75 19 -118t71.5 -66t147.5 -23z" />
    <glyph glyph-name="less.tnum" 
d="M102 457v86l816 475l51 -86l-748 -432l752 -434l-51 -86z" />
    <glyph glyph-name="equal.tnum" 
d="M180 633v96h715v-96h-715zM180 281v96h715v-96h-715z" />
    <glyph glyph-name="greater.tnum" 
d="M973 543v-86l-819 -477l-52 86l752 434l-748 432l52 86z" />
    <glyph glyph-name="cent.tnum" 
d="M551 -20v186q-168 13 -240.5 99t-72.5 243v350q0 156 72.5 242.5t240.5 99.5v186h115v-186q106 -7 176 -26l-15 -99q-126 21 -213 21q-142 0 -200 -51t-58 -183v-358q0 -132 58 -183t200 -51q87 0 213 21l15 -98q-86 -23 -176 -29v-184h-115z" />
    <glyph glyph-name="sterling.tnum" 
d="M150 629v102h190q-100 157 -100 313q0 158 83.5 228.5t288.5 70.5q160 0 299 -40l-18 -103q-141 37 -277 37q-155 0 -206.5 -40t-51.5 -157q0 -137 111 -309h408l-9 -102h-356q23 -48 23 -119q0 -198 -195 -404h608v-106h-766v106q104 85 169 193t65 209q0 62 -27 121
h-239z" />
    <glyph glyph-name="section.tnum" 
d="M526 33l-106 -33q-132 386 -203.5 666.5t-71.5 492.5q0 120 63 172.5t195 52.5q65 0 152 -14t150 -35l-19 -92q-163 39 -274 39q-93 0 -120.5 -26t-27.5 -105q0 -107 20 -235t64.5 -292t79 -277.5t98.5 -313.5zM606 971l107 33q131 -383 202.5 -665.5t71.5 -494.5
q0 -120 -63 -172.5t-195 -52.5q-64 0 -151 14t-150 35l18 92q69 -17 150.5 -28t124.5 -11q93 0 120 26.5t27 105.5q0 107 -20 235t-64.5 292t-79 277.5t-98.5 313.5z" />
    <glyph glyph-name="yen.tnum" 
d="M139 633v96h205l-252 594h125l320 -782l323 782h125l-256 -594h207v-96h-248l-90 -213v-43h338v-92h-338v-285h-121v285h-338v92h338v43l-92 213h-246z" />
    <glyph glyph-name="florin.tnum" 
d="M467 772h-186l10 102h186l29 336q10 120 82.5 178t195.5 58q87 0 179 -29l-21 -92q-95 18 -158 18q-84 0 -118.5 -33.5t-42.5 -117.5l-27 -318h287l-23 -102h-274l-80 -934q-10 -123 -78 -182t-197 -59q-77 0 -153 26l20 92q72 -16 129 -16q85 0 119.5 33t40.5 112z" />
    <glyph glyph-name="endash.tnum" 
d="M182 524v101h709v-101h-709z" />
    <glyph glyph-name="divide.tnum" 
d="M952 551v-107h-831v107h831zM473 90v156h127v-156h-127zM473 750v155h127v-155h-127z" />
    <glyph glyph-name="Euro.tnum" 
d="M90 786v95h186v67q0 199 102 297t341 98q128 0 262 -28l-14 -105q-122 25 -238 25q-185 0 -258.5 -64.5t-73.5 -224.5v-65h420v-95h-420v-239h420v-94h-420v-76q0 -160 73.5 -224.5t258.5 -64.5q110 0 238 25l14 -105q-107 -28 -262 -28q-239 0 -341 98t-102 297v78h-186
v94h186v239h-186z" />
    <glyph glyph-name="perthousand.tnum" horiz-adv-x="2482" 
d="M1186 1348l-559 -1368l-90 34l559 1370zM696 1114v-205q0 -270 -290 -270q-293 0 -293 270v205q0 270 293 270q290 0 290 -270zM215 1116v-209q0 -89 44 -133.5t147 -44.5t145.5 44.5t42.5 133.5v209q0 89 -42.5 133.5t-145.5 44.5t-147 -44.5t-44 -133.5zM1604 455v-205
q0 -270 -291 -270q-293 0 -293 270v205q0 270 293 270q291 0 291 -270zM1122 457v-209q0 -89 44 -133.5t147 -44.5t145.5 44.5t42.5 133.5v209q0 89 -42.5 133.5t-145.5 44.5t-147 -44.5t-44 -133.5zM2359 455v-205q0 -270 -291 -270q-292 0 -292 270v205q0 270 292 270
q291 0 291 -270zM1878 457v-209q0 -89 43.5 -133.5t146.5 -44.5t146 44.5t43 133.5v209q0 89 -43 133.5t-146 44.5t-146.5 -44.5t-43.5 -133.5z" />
    <glyph glyph-name="minusonum.tnum" 
d="M268 451v100h537v-100h-537z" />
    <glyph glyph-name="multiplyonum.tnum" 
d="M860 897l74 -74l-322 -323l322 -324l-74 -74l-323 322l-324 -322l-74 74l322 324l-322 323l74 74l324 -322z" />
    <glyph glyph-name="numbersignonum.tnum" 
d="M965 252h-164l-13 -252h-100l12 252h-317l-12 -252h-101l13 252h-170l6 94h170l18 359h-168l6 94h166l15 245h100l-14 -245h317l14 245h101l-15 -245h168l-6 -94h-166l-18 -359h164zM408 705l-19 -359h318l18 359h-317z" />
    <glyph glyph-name="dollaronum.tnum" 
d="M483 -197v179q-173 8 -288 51l16 96q156 -43 334 -43q139 0 191 34t52 126q0 41 -1 63t-12 45.5t-22.5 34.5t-45.5 27.5t-68 27l-102 31.5q-79 24 -128 41.5t-88.5 39.5t-59 42t-33 52.5t-16.5 66t-3 88.5q0 129 74 189.5t235 68.5v178h115v-178q145 -3 260 -33l-14 -102
q-141 30 -293 30q-154 0 -206 -33.5t-52 -136.5q0 -21 0.5 -36t4 -30t5 -24t11.5 -20.5t14.5 -17t22.5 -14.5t27.5 -13.5t37.5 -14.5t44 -15t56 -17q87 -27 137.5 -45t95.5 -41.5t65.5 -42.5t35.5 -52t18.5 -68t3.5 -91q0 -127 -73 -192t-236 -72v-179h-115z" />
    <glyph glyph-name="percentonum.tnum" horiz-adv-x="1499" 
d="M463 20l477 1045l88 -41l-477 -1044zM625 692q0 -219 -256 -219t-256 219v154q0 219 256 219t256 -219v-154zM211 844v-150q0 -68 34 -100.5t124 -32.5t123.5 32.5t33.5 100.5v150q0 68 -33.5 100.5t-123.5 32.5t-124 -32.5t-34 -100.5zM1386 199q0 -219 -256 -219
t-256 219v153q0 108 62 169t194 61t194 -61t62 -169v-153zM973 350v-149q0 -68 33.5 -100.5t123.5 -32.5t124 32.5t34 100.5v149q0 68 -34 100.5t-124 32.5t-123.5 -32.5t-33.5 -100.5z" />
    <glyph glyph-name="plusonum.tnum" 
d="M131 444v107h348v364h115v-364h348v-107h-348v-364h-115v364h-348z" />
    <glyph glyph-name="zeroonum.tnum" 
d="M948 715v-385q0 -350 -409 -350q-215 0 -312.5 93t-97.5 257v385q0 164 97.5 257t312.5 93q409 0 409 -350zM248 707v-369q0 -131 64.5 -191.5t226.5 -60.5t226 60.5t64 191.5v369q0 131 -64 191t-226 60t-226.5 -60t-64.5 -191z" />
    <glyph glyph-name="oneonum.tnum" 
d="M174 0v104h340v824l-342 -121l-33 100l387 137h107v-940h321v-104h-780z" />
    <glyph glyph-name="twoonum.tnum" 
d="M164 0v106q165 148 364 320q143 123 182.5 177.5t39.5 117.5v20q0 64 -8.5 100.5t-37.5 65.5t-84 40t-147 11q-135 0 -283 -45l-22 101q147 51 317 51q117 0 193.5 -20.5t117.5 -64t56.5 -99t15.5 -136.5v-18q0 -57 -16.5 -101.5t-70 -108.5t-158.5 -159t-293 -252h557
v-106h-723z" />
    <glyph glyph-name="threeonum.tnum" 
d="M158 -266l16 102q128 -29 299 -29q174 0 238.5 50t64.5 174v90q0 110 -79 161.5t-208 51.5h-262v106h285q112 0 171.5 51t59.5 140v141q0 102 -59 144t-180 42q-148 0 -309 -30l-17 100q152 37 322 37q362 0 362 -285v-153q0 -178 -172 -236q91 -19 148 -89t57 -169v-110
q0 -168 -101.5 -245t-324.5 -77q-186 0 -311 33z" />
    <glyph glyph-name="fouronum.tnum" 
d="M1014 78h-203v-357h-119v357h-608v123l541 843h186v-864h203v-102zM197 180h495v783z" />
    <glyph glyph-name="fiveonum.tnum" 
d="M233 344v700h676v-106h-557v-489q54 -2 250 -15q177 -11 247.5 -87t70.5 -220v-96q0 -165 -93 -247.5t-311 -82.5q-187 0 -334 43l17 98q155 -35 317 -35q158 0 221.5 51.5t63.5 180.5v72q0 57 -8 92.5t-31.5 64t-67 42.5t-112.5 18q-149 8 -349 16z" />
    <glyph glyph-name="sixonum.tnum" 
d="M289 881v-207q51 21 137.5 37t155.5 16q196 0 274 -78.5t78 -240.5v-103q0 -161 -87 -243t-290 -82q-204 0 -295.5 82.5t-91.5 242.5v578q0 127 23 211t80.5 141.5t153.5 82.5t243 25q135 0 233 -28l-14 -101q-102 23 -199 23q-87 0 -148.5 -7t-107 -25.5t-73 -44
t-44 -67.5t-22.5 -91t-6 -121zM578 621q-141 0 -289 -62v-258q0 -120 67.5 -167.5t200.5 -47.5q144 0 201 48.5t57 166.5v113q0 113 -49 160t-188 47z" />
    <glyph glyph-name="sevenonum.tnum" 
d="M131 938v106h823v-100l-635 -1223l-98 56l608 1161h-698z" />
    <glyph glyph-name="eightonum.tnum" 
d="M918 997q0 -112 -51.5 -185.5t-190.5 -135.5q154 -68 215 -144.5t61 -195.5v-41q0 -165 -97.5 -240t-315.5 -75t-316 75t-98 240v41q0 119 60 195.5t212 144.5q-132 61 -184.5 139.5t-52.5 181.5v27q0 319 379 319t379 -319v-27zM834 342q0 52 -13 87.5t-50.5 67.5
t-88 57.5t-143.5 63.5q-176 -70 -235.5 -123t-59.5 -153v-41q0 -121 65.5 -168t229.5 -47t229.5 47t65.5 168v41zM279 989q0 -90 53.5 -142t206.5 -118q155 67 207.5 117.5t52.5 142.5v51q0 98 -58.5 147.5t-201.5 49.5t-201.5 -49t-58.5 -148v-51z" />
    <glyph glyph-name="nineonum.tnum" 
d="M786 164v207q-52 -21 -138 -37.5t-154 -16.5q-196 0 -274.5 79t-78.5 241v102q0 161 87 243.5t290 82.5q204 0 295.5 -83t91.5 -243v-577q0 -127 -23 -211t-80 -142t-153 -83t-243 -25q-132 0 -234 29l14 100q102 -23 199 -23q87 0 148.5 7.5t107 25.5t73 43.5t44 68
t22.5 91.5t6 121zM498 424q142 0 288 61v258q0 120 -67.5 167.5t-200.5 47.5q-144 0 -201 -48.5t-57 -166.5v-112q0 -75 19 -118t71.5 -66t147.5 -23z" />
    <glyph glyph-name="lessonum.tnum" 
d="M102 457v86l775 475l51 -86l-709 -432l713 -434l-51 -86z" />
    <glyph glyph-name="equalonum.tnum" 
d="M180 633v96h715v-96h-715zM180 281v96h715v-96h-715z" />
    <glyph glyph-name="greateronum.tnum" 
d="M973 543v-86l-778 -477l-52 86l713 434l-709 432l52 86z" />
    <glyph glyph-name="centonum.tnum" 
d="M545 -143v217q-177 12 -255.5 88.5t-78.5 218.5v303q0 142 78.5 218.5t255.5 88.5v217h114v-217q125 -3 222 -28l-15 -101q-111 25 -252 25q-157 0 -220.5 -45t-63.5 -166v-287q0 -121 63.5 -166t220.5 -45q141 0 252 25l15 -101q-90 -23 -222 -30v-215h-114z" />
    <glyph glyph-name="sterlingonum.tnum" 
d="M162 475v100h170q-46 71 -67 127.5t-21 122.5q0 119 86.5 179.5t275.5 60.5q171 0 314 -43l-17 -96q-57 13 -145.5 22.5t-147.5 9.5q-132 0 -190 -30.5t-58 -108.5q0 -46 19 -97.5t32 -72t48 -74.5h407l-6 -100h-350q18 -41 18 -88q0 -165 -178 -281h586v-106h-762v102
q96 48 167 123t71 158q0 56 -23 92h-229z" />
    <glyph glyph-name="sectiononum.tnum" 
d="M543 43l-92 -63q-291 378 -291 860q0 120 63.5 172.5t194.5 52.5q64 0 151 -14t150 -35l-19 -92q-163 39 -274 39q-86 0 -116.5 -27.5t-30.5 -104.5q0 -221 65.5 -413t198.5 -375zM573 721l93 63q290 -376 290 -860q0 -120 -63.5 -172.5t-194.5 -52.5q-64 0 -151 14
t-150 35l19 92q163 -39 274 -39q86 0 117 27.5t31 103.5q0 220 -66 413t-199 376z" />
    <glyph glyph-name="yenonum.tnum" 
d="M160 424v90h213l-293 530h125l332 -610l333 610h125l-295 -530h215v-90h-266l-53 -98v-78h319v-88h-319v-160h-119v160h-317v88h317v78l-55 98h-262z" />
    <glyph glyph-name="florinonum.tnum" 
d="M426 438h-188l10 103h186l27 301q10 119 78 171t192 52q120 0 217 -33l-20 -92q-101 23 -191 23q-83 0 -116.5 -29.5t-40.5 -112.5l-25 -280h279l-17 -103h-270l-55 -626q-10 -119 -68 -167t-170 -48q-96 0 -184 30l20 92q82 -20 150 -20q75 0 101 28.5t32 108.5z" />
    <glyph glyph-name="endashonum.tnum" 
d="M182 487v97h709v-97h-709z" />
    <glyph glyph-name="divideonum.tnum" 
d="M932 551v-107h-791v107h791zM473 90v156h127v-156h-127zM473 750v155h127v-155h-127z" />
    <glyph glyph-name="Euroonum.tnum" 
d="M117 629v82h164v45q0 155 94 232t307 77q130 0 248 -31l-17 -100q-111 24 -229 24q-157 0 -221 -45t-64 -165v-37h426v-82h-426v-199h426v-82h-426v-51q0 -121 64 -166t221 -45q118 0 229 25l17 -101q-94 -30 -248 -30q-213 0 -307 77t-94 232v59h-164v82h164v199h-164z
" />
    <glyph glyph-name="perthousandonum.tnum" horiz-adv-x="2162" 
d="M463 20l477 1045l88 -41l-477 -1044zM625 692q0 -219 -256 -219t-256 219v154q0 219 256 219t256 -219v-154zM211 844v-150q0 -68 34 -100.5t124 -32.5t123.5 32.5t33.5 100.5v150q0 68 -33.5 100.5t-123.5 32.5t-124 -32.5t-34 -100.5zM1386 199q0 -219 -256 -219
t-256 219v153q0 108 62 169t194 61t194 -61t62 -169v-153zM973 350v-149q0 -68 33.5 -100.5t123.5 -32.5t124 32.5t34 100.5v149q0 68 -34 100.5t-124 32.5t-123.5 -32.5t-33.5 -100.5zM2050 199q0 -219 -256 -219t-256 219v153q0 108 62 169t194 61t194 -61t62 -169v-153z
M1636 350v-149q0 -68 34 -100.5t124 -32.5t124 32.5t34 100.5v149q0 68 -34 100.5t-124 32.5t-124 -32.5t-34 -100.5z" />
    <glyph glyph-name="minussmcp.tnum" 
d="M268 451v100h537v-100h-537z" />
    <glyph glyph-name="multiplysmcp.tnum" 
d="M860 897l74 -74l-322 -323l322 -324l-74 -74l-323 322l-324 -322l-74 74l322 324l-322 323l74 74l324 -322z" />
    <glyph glyph-name="numbersignsmcp.tnum" 
d="M965 262h-164l-13 -262h-100l12 262h-317l-12 -262h-101l13 262h-170l6 94h170l18 359h-168l6 94h166l15 256h100l-14 -256h317l14 256h101l-15 -256h168l-6 -94h-166l-18 -359h164zM408 715l-19 -359h318l18 359h-317z" />
    <glyph glyph-name="dollarsmcp.tnum" 
d="M471 -207v178q-154 7 -274 52l16 96q156 -43 319 -43q135 0 182.5 37.5t47.5 132.5v49.5t-4 37.5t-8.5 31.5t-18 24t-27.5 21.5t-43 19t-58.5 22t-78.5 24q-78 24 -126.5 41.5t-86 40t-55.5 41t-29.5 53t-13.5 66t-2 88.5q0 131 69.5 195t225.5 73v178h115v-178
q129 -3 245 -33l-14 -102q-146 31 -279 31q-102 0 -154 -17t-70.5 -54t-18.5 -110q0 -38 0.5 -57t9.5 -40.5t18 -30t38 -23.5t56.5 -24t86.5 -27q86 -27 136.5 -45t93 -41.5t61.5 -42t32.5 -53t16 -67.5t2.5 -91q0 -130 -67.5 -199t-227.5 -76v-178h-115z" />
    <glyph glyph-name="percentsmcp.tnum" horiz-adv-x="1509" 
d="M463 20l487 1065l88 -41l-487 -1064zM625 702q0 -219 -256 -219t-256 219v164q0 219 256 219t256 -219v-164zM211 864v-159q0 -68 34 -101t124 -33t123.5 33t33.5 101v159q0 68 -33.5 100.5t-123.5 32.5t-124 -32.5t-34 -100.5zM1386 199q0 -219 -256 -219t-256 219v163
q0 220 256 220t256 -220v-163zM973 360v-159q0 -68 33.5 -100.5t123.5 -32.5t124 32.5t34 100.5v159q0 68 -34 101t-124 33t-123.5 -33t-33.5 -101z" />
    <glyph glyph-name="plussmcp.tnum" 
d="M131 444v107h348v364h115v-364h348v-107h-348v-364h-115v364h-348z" />
    <glyph glyph-name="zerosmcp.tnum" 
d="M909 258q0 -130 -88.5 -204t-281.5 -74q-191 0 -281 74.5t-90 203.5v549q0 129 90 203.5t281 74.5q193 0 281.5 -74t88.5 -204v-549zM539 86q137 0 194.5 44t57.5 138v529q0 94 -57.5 138t-194.5 44t-194.5 -44t-57.5 -138v-529q0 -94 57.5 -138t194.5 -44z" />
    <glyph glyph-name="onesmcp.tnum" 
d="M174 0v102h338v844l-324 -98l-30 98l366 119h107v-963h327v-102h-784z" />
    <glyph glyph-name="twosmcp.tnum" 
d="M186 0v94q76 78 169.5 172.5t170.5 173.5q134 137 168.5 191.5t34.5 132.5v55q0 66 -17.5 98t-68.5 47t-156 15q-133 0 -264 -35l-18 103q122 38 293 38q135 0 212.5 -29t107.5 -82.5t30 -142.5v-71q0 -69 -13 -111t-58 -101.5t-150 -168.5q-93 -97 -170 -173.5
t-99 -99.5h506v-106h-678z" />
    <glyph glyph-name="threesmcp.tnum" 
d="M201 14l14 99q128 -29 272 -29t195 35.5t51 122.5v86q0 80 -48 118.5t-153 38.5h-256v105h263q166 0 166 133v113q0 82 -50.5 113.5t-167.5 31.5t-258 -23l-12 101q124 26 272 26q175 0 254.5 -57.5t79.5 -175.5v-131q0 -69 -27.5 -112t-95.5 -70q73 -17 112.5 -70
t39.5 -133v-90q0 -139 -82 -202.5t-287 -63.5q-165 0 -282 34z" />
    <glyph glyph-name="foursmcp.tnum" 
d="M963 260h-177v-260h-118v260h-576v109l545 696h149v-709h177v-96zM217 356h451v586z" />
    <glyph glyph-name="fivesmcp.tnum" 
d="M248 483v582h622v-107h-505v-366h231q291 0 291 -260v-92q0 -132 -84.5 -196t-280.5 -64q-193 0 -317 40l16 101q140 -35 301 -35q135 0 190.5 35.5t55.5 130.5v76q0 77 -42 116t-146 39h-332z" />
    <glyph glyph-name="sixsmcp.tnum" 
d="M313 700v-141q123 43 256 43q178 0 251 -61.5t73 -196.5v-98q0 -130 -80.5 -198t-265.5 -68q-99 0 -168 18t-109 53t-57.5 82t-17.5 111v450q0 68 5 116.5t19.5 95.5t42 77.5t70.5 55t106.5 35.5t149.5 11q76 0 156.5 -12.5t132.5 -32.5l-19 -96q-140 39 -270 39
q-63 0 -106.5 -5.5t-75 -20.5t-49.5 -34.5t-28 -54.5t-13 -72t-3 -96zM565 496q-142 0 -252 -47v-209q0 -90 55 -124t179 -34q125 0 176 36.5t51 121.5v106q0 87 -43 118.5t-166 31.5z" />
    <glyph glyph-name="sevensmcp.tnum" 
d="M188 958v107h760v-98l-540 -967h-127l542 958h-635z" />
    <glyph glyph-name="eightsmcp.tnum" 
d="M877 791q0 -78 -43.5 -138t-157.5 -108q127 -54 180 -113.5t53 -148.5v-52q0 -131 -88.5 -191t-283.5 -60q-194 0 -282.5 60t-88.5 191v52q0 89 52.5 148t176.5 114q-109 46 -152.5 107t-43.5 139v40q0 116 79 185t259 69q340 0 340 -254v-40zM793 285q0 72 -57 115.5
t-199 93.5q-142 -50 -198 -93.5t-56 -115.5v-47q0 -89 57 -123.5t197 -34.5t198 34.5t58 123.5v47zM313 784q0 -63 49 -103t175 -87q126 47 175.5 87.5t49.5 102.5v60q0 71 -52 108t-173 37q-120 0 -172 -37t-52 -108v-60z" />
    <glyph glyph-name="ninesmcp.tnum" 
d="M762 365v141q-123 -43 -256 -43q-178 0 -251 61.5t-73 196.5v98q0 130 80.5 198t265.5 68q192 0 272.5 -67t80.5 -197v-450q0 -58 -3.5 -101t-14 -85.5t-28.5 -72.5t-47.5 -56.5t-71 -42t-99 -24.5t-130.5 -9q-171 0 -288 45l18 96q140 -39 270 -39q63 0 106.5 5.5
t75 20.5t49.5 34.5t28 54.5t13 72t3 96zM510 569q142 0 252 47v209q0 90 -55 124t-179 34q-125 0 -176 -36.5t-51 -121.5v-106q0 -87 43 -118.5t166 -31.5z" />
    <glyph glyph-name="lesssmcp.tnum" 
d="M109 457v86l774 475l51 -86l-709 -432l713 -434l-51 -86z" />
    <glyph glyph-name="equalsmcp.tnum" 
d="M180 633v96h715v-96h-715zM180 281v96h715v-96h-715z" />
    <glyph glyph-name="greatersmcp.tnum" 
d="M967 543v-86l-779 -477l-51 86l713 434l-709 432l52 86z" />
    <glyph glyph-name="centsmcp.tnum" 
d="M539 -143v217q-177 12 -255.5 88.5t-78.5 218.5v303q0 142 78.5 218.5t255.5 88.5v217h114v-217q124 -3 221 -28l-14 -101q-111 25 -252 25q-157 0 -220.5 -45t-63.5 -166v-287q0 -121 63.5 -166t220.5 -45q141 0 252 25l14 -101q-90 -23 -221 -30v-215h-114z" />
    <glyph glyph-name="sterlingsmcp.tnum" 
d="M162 496v100h170q-46 71 -67 127.5t-21 122.5q0 119 86.5 179t275.5 60q171 0 314 -43l-17 -96q-58 13 -146.5 23t-146.5 10q-132 0 -190 -30.5t-58 -108.5q0 -46 19 -97.5t32 -72t48 -74.5h407l-6 -100h-350q27 -60 27 -109q0 -73 -46 -147t-135 -134h580v-106h-762v102
q98 50 172 124.5t74 156.5q0 50 -31 113h-229z" />
    <glyph glyph-name="sectionsmcp.tnum" 
d="M559 53l-94 -53q-270 428 -270 860q0 120 63 172.5t195 52.5q64 0 151 -14t150 -35l-19 -92q-163 39 -274 39q-93 0 -120.5 -26t-27.5 -105q0 -210 62.5 -399t183.5 -400zM565 733l94 53q271 -430 271 -860q0 -120 -63 -172.5t-195 -52.5q-64 0 -151 14t-150 35l18 92
q69 -17 150.5 -28t124.5 -11q93 0 120 26t27 105q0 210 -62.5 399t-183.5 400z" />
    <glyph glyph-name="yensmcp.tnum" 
d="M160 424v90h213l-305 551h125l344 -631l344 631h125l-306 -551h215v-90h-266l-53 -98v-78h319v-90h-319v-158h-119v158h-317v90h317v78l-55 98h-262z" />
    <glyph glyph-name="florinsmcp.tnum" 
d="M418 459h-189l11 102h186l27 301q10 119 78 171t192 52q123 0 217 -32l-20 -92q-96 22 -191 22q-83 0 -117 -29.5t-41 -111.5l-24 -281h278l-16 -102h-270l-58 -647q-10 -119 -67.5 -167t-169.5 -48q-97 0 -185 30l21 92q82 -20 149 -20q75 0 101 28.5t32 108.5z" />
    <glyph glyph-name="endashsmcp.tnum" 
d="M182 487v97h709v-97h-709z" />
    <glyph glyph-name="dividesmcp.tnum" 
d="M932 551v-107h-791v107h791zM473 90v156h127v-156h-127zM473 750v155h127v-155h-127z" />
    <glyph glyph-name="Eurosmcp.tnum" 
d="M115 621v81h164v74q0 155 94 232t307 77q156 0 270 -30l-16 -101q-111 25 -252 25q-157 0 -221 -45t-64 -166v-66h453v-81h-453v-162h453v-82h-453v-80q0 -121 64 -166t221 -45q141 0 252 25l16 -101q-114 -30 -270 -30q-213 0 -307 77t-94 232v88h-164v82h164v162h-164z
" />
    <glyph glyph-name="perthousandsmcp.tnum" horiz-adv-x="2150" 
d="M463 20l487 1065l88 -41l-487 -1064zM625 702q0 -219 -256 -219t-256 219v164q0 219 256 219t256 -219v-164zM211 864v-159q0 -68 34 -101t124 -33t123.5 33t33.5 101v159q0 68 -33.5 100.5t-123.5 32.5t-124 -32.5t-34 -100.5zM1386 199q0 -219 -256 -219t-256 219v163
q0 220 256 220t256 -220v-163zM973 360v-159q0 -68 33.5 -100.5t123.5 -32.5t124 32.5t34 100.5v159q0 68 -34 101t-124 33t-123.5 -33t-33.5 -101zM2028 199q0 -219 -256 -219t-256 219v163q0 220 256 220t256 -220v-163zM1614 360v-159q0 -68 34 -100.5t124 -32.5
t123.5 32.5t33.5 100.5v159q0 68 -33.5 101t-123.5 33t-124 -33t-34 -101z" />
    <glyph glyph-name="minus.smcp" horiz-adv-x="802" 
d="M133 451v100h537v-100h-537z" />
    <glyph glyph-name="multiply.smcp" horiz-adv-x="1122" 
d="M885 897l73 -74l-321 -323l321 -324l-73 -74l-324 322l-323 -322l-74 74l321 324l-321 323l74 74l323 -322z" />
    <glyph glyph-name="exclam.smcp" horiz-adv-x="536" 
d="M303 350h-70l-24 201v514h119v-514zM205 0v176h127v-176h-127z" />
    <glyph glyph-name="numbersign.smcp" horiz-adv-x="1355" 
d="M1190 262h-246l-12 -262h-105l13 262h-371l-12 -262h-105l13 262h-232l6 96h232l18 355h-229l6 96h227l15 256h104l-14 -256h370l15 256h104l-14 -256h250l-6 -96h-248l-19 -355h246zM494 713l-19 -355h371l18 355h-370z" />
    <glyph glyph-name="dollar.smcp" horiz-adv-x="968" 
d="M416 -197v179q-156 7 -273 51l19 98q152 -45 315 -45q80 0 124 6.5t68.5 28t31 50.5t6.5 85v51.5t-4.5 39t-7.5 31t-18.5 23.5t-27 21t-43.5 18t-58 21t-79 24q-48 14 -83.5 25.5t-67 25t-53 23t-39.5 24.5t-29 25.5t-19.5 30t-12 33.5t-6 40.5t-3 46.5t-0.5 56
q0 99 24.5 153.5t88.5 82.5t182 32v179h114v-179q140 -7 246 -34l-14 -103q-155 33 -279 33q-63 0 -99 -1.5t-66.5 -9.5t-43.5 -17t-22.5 -33t-11 -48.5t-1.5 -70.5q0 -41 0.5 -57.5t8 -40t17 -31.5t37 -23t58 -24.5t88.5 -26.5q65 -19 108.5 -33t82 -31t61 -29.5t41.5 -33
t27 -37t14 -47t7 -57.5t1 -72q0 -70 -12.5 -116.5t-45 -82t-90.5 -53.5t-147 -22v-179h-114z" />
    <glyph glyph-name="percent.smcp" horiz-adv-x="1509" 
d="M463 20l487 1065l88 -41l-487 -1064zM625 702q0 -219 -256 -219t-256 219v164q0 219 256 219t256 -219v-164zM211 864v-159q0 -68 34 -101t124 -33t123.5 33t33.5 101v159q0 68 -33.5 100.5t-123.5 32.5t-124 -32.5t-34 -100.5zM1386 199q0 -219 -256 -219t-256 219v163
q0 220 256 220t256 -220v-163zM973 360v-159q0 -68 33.5 -100.5t123.5 -32.5t124 32.5t34 100.5v159q0 68 -34 101t-124 33t-123.5 -33t-33.5 -101z" />
    <glyph glyph-name="ampersand.smcp" horiz-adv-x="1167" 
d="M1085 485h-176v-460q-164 -45 -346 -45q-204 0 -296.5 61t-92.5 197v102q0 154 143 201q-63 29 -88.5 70t-25.5 110v129q0 120 88 177.5t270 57.5q175 0 322 -36l-11 -95q-164 29 -313 29q-128 0 -182.5 -32t-54.5 -115v-121q0 -127 176 -127h587v-103zM567 82
q112 0 228 22v381h-297q-205 0 -205 -155v-84q0 -90 62 -127t212 -37z" />
    <glyph glyph-name="plus.smcp" horiz-adv-x="1097" 
d="M133 444v107h359v364h114v-364h359v-107h-359v-364h-114v364h-359z" />
    <glyph glyph-name="zero.smcp" horiz-adv-x="1077" 
d="M924 258q0 -128 -95.5 -203t-289.5 -75q-192 0 -288.5 75.5t-96.5 202.5v549q0 127 96.5 202.5t288.5 75.5q194 0 289.5 -75t95.5 -203v-549zM539 86q139 0 202.5 45t63.5 137v529q0 92 -63.5 137t-202.5 45t-203 -45t-64 -137v-529q0 -92 64 -137t203 -45z" />
    <glyph glyph-name="one.smcp" horiz-adv-x="661" 
d="M84 805l-49 96l325 164h107v-1065h-119v934z" />
    <glyph glyph-name="two.smcp" horiz-adv-x="935" 
d="M123 0v94q325 341 330 346q130 136 162 190.5t32 133.5v55q0 67 -15.5 98.5t-64.5 46.5t-153 15q-133 0 -264 -35l-21 103q122 38 295 38q102 0 169 -15t105 -48.5t53 -78.5t15 -112v-71q0 -54 -4.5 -83.5t-26.5 -73.5t-63 -92.5t-119 -131.5q-223 -237 -258 -273h487
v-106h-659z" />
    <glyph glyph-name="three.smcp" horiz-adv-x="905" 
d="M113 14l16 95q131 -29 264 -29q146 0 198 33.5t52 124.5v106q0 141 -192 141h-246v99h248q170 0 170 135v133q0 75 -47 106t-160 31q-124 0 -264 -28l-13 94q143 30 279 30q173 0 248 -58.5t75 -178.5v-121q0 -71 -25.5 -115.5t-92.5 -72.5q139 -36 139 -189v-121
q0 -132 -84 -190.5t-279 -58.5q-158 0 -286 34z" />
    <glyph glyph-name="four.smcp" horiz-adv-x="993" 
d="M922 260h-177v-260h-118v260h-555v109l524 696h149v-709h177v-96zM197 356h430v586z" />
    <glyph glyph-name="five.smcp" horiz-adv-x="964" 
d="M182 483v582h623v-107h-506v-366h231q291 0 291 -260v-92q0 -132 -84.5 -196t-279.5 -64q-179 0 -303 40l16 101q140 -35 287 -35q135 0 190 35.5t55 130.5v76q0 77 -42 116t-146 39h-332z" />
    <glyph glyph-name="six.smcp" horiz-adv-x="974" 
d="M272 719v-160q123 43 256 43q178 0 251 -61.5t73 -196.5v-98q0 -130 -80.5 -198t-265.5 -68q-193 0 -272.5 64t-79.5 194v477q0 101 15 164.5t58.5 113t124.5 71t209 21.5q153 0 266 -38l-14 -97q-116 33 -252 33q-95 0 -150 -11t-87 -43.5t-42 -79.5t-10 -130zM524 496
q-142 0 -252 -47v-209q0 -90 55 -124t179 -34q125 0 176 36.5t51 121.5v106q0 87 -43 118.5t-166 31.5z" />
    <glyph glyph-name="seven.smcp" horiz-adv-x="876" 
d="M92 958v107h723v-98l-520 -967h-127l518 958h-594z" />
    <glyph glyph-name="eight.smcp" horiz-adv-x="1050" 
d="M864 791q0 -78 -43.5 -138t-156.5 -108q127 -54 180 -113.5t53 -148.5v-52q0 -131 -89 -191t-284 -60q-199 0 -284.5 59.5t-85.5 191.5v52q0 89 52.5 148t176.5 114q-110 46 -153.5 107t-43.5 139v40q0 116 79 185t259 69q340 0 340 -254v-40zM780 285q0 72 -57 115.5
t-199 93.5q-142 -50 -198 -93.5t-56 -115.5v-47q0 -89 57 -123.5t197 -34.5t198 34.5t58 123.5v47zM301 784q0 -63 48.5 -103t174.5 -87q126 47 176 87.5t50 102.5v60q0 71 -52.5 108t-173.5 37q-120 0 -171.5 -37t-51.5 -108v-60z" />
    <glyph glyph-name="nine.smcp" horiz-adv-x="974" 
d="M702 346v160q-123 -43 -256 -43q-177 0 -250 61.5t-73 196.5v96q0 130 80.5 199t265.5 69q191 0 271.5 -68t80.5 -196v-473q0 -80 -9 -135t-34.5 -102t-71 -74t-117.5 -42t-175 -15q-142 0 -275 45l19 96q134 -39 256 -39q64 0 108 4.5t77 17.5t52 31t31 50t16 69t4 92z
M451 569q141 0 251 47v209q0 90 -54.5 124t-178.5 34q-125 0 -176 -36.5t-51 -121.5v-106q0 -87 43 -118.5t166 -31.5z" />
    <glyph glyph-name="less.smcp" horiz-adv-x="1126" 
d="M102 457v86l816 475l51 -86l-748 -432l752 -434l-51 -86z" />
    <glyph glyph-name="equal.smcp" horiz-adv-x="1042" 
d="M164 633v96h715v-96h-715zM164 281v96h715v-96h-715z" />
    <glyph glyph-name="greater.smcp" horiz-adv-x="1126" 
d="M1024 543v-86l-819 -477l-51 86l751 434l-747 432l51 86z" />
    <glyph glyph-name="question.smcp" horiz-adv-x="882" 
d="M360 332l-61 92q35 24 92.5 62t110.5 75q61 41 83.5 67t29 57.5t6.5 109.5q0 64 -5.5 96t-29 56t-65 31t-118.5 7q-111 0 -253 -27l-17 99q133 28 275 28q107 0 172 -15t100.5 -52.5t47 -87t11.5 -131.5q0 -138 -22.5 -188t-120.5 -119q-75 -52 -236 -160zM299 0v176h127
v-176h-127z" />
    <glyph glyph-name="at.smcp" horiz-adv-x="1374" 
d="M475 465l33 178q18 80 64.5 114t146.5 34q50 0 111 -13.5t106 -34.5l-66 -327q29 -13 62 -13q110 0 161.5 64.5t51.5 169.5q0 161 -118 257.5t-318 96.5q-210 0 -339.5 -126.5t-129.5 -332.5q0 -208 129 -333t393 -125q172 0 358 63l25 -80q-77 -37 -180 -57t-203 -20
q-297 0 -463 150t-166 402q0 247 161.5 400t418.5 153q130 0 233.5 -35t169.5 -96t100.5 -141.5t34.5 -173.5q0 -145 -82 -232.5t-237 -87.5q-90 0 -141 48q-92 -43 -185 -43q-76 0 -108.5 39.5t-22.5 101.5zM776 451l45 241q-66 17 -112 17q-50 0 -71.5 -15.5t-29.5 -54.5
q-6 -30 -17.5 -88t-17.5 -94q-5 -25 8 -37t48 -12q32 0 74.5 12.5t72.5 30.5z" />
    <glyph glyph-name="a.smcp" horiz-adv-x="1167" 
d="M954 0l-112 274h-520l-109 -274h-121l410 1065h164l409 -1065h-121zM584 985l-226 -612h449z" />
    <glyph glyph-name="b.smcp" horiz-adv-x="1058" 
d="M670 0h-475v1065h456q125 0 190.5 -54t65.5 -161v-125q0 -62 -23 -101t-85 -67q66 -15 106.5 -68t40.5 -131v-125q0 -111 -75.5 -172t-200.5 -61zM827 240v116q0 66 -45.5 103t-140.5 37h-328v-392h353q82 0 121.5 37t39.5 99zM788 737v109q0 115 -139 115h-336v-363h320
q87 0 121 33t34 106z" />
    <glyph glyph-name="c.smcp" horiz-adv-x="974" 
d="M279 297q0 -121 63.5 -166t220.5 -45q145 0 273 25l16 -101q-135 -30 -291 -30q-213 0 -307 77t-94 232v487q0 155 94 232t307 77q147 0 291 -30l-16 -101q-128 25 -273 25q-157 0 -220.5 -45t-63.5 -166v-471z" />
    <glyph glyph-name="d.smcp" horiz-adv-x="1107" 
d="M954 317q0 -72 -17 -126.5t-56.5 -99t-113 -68t-179.5 -23.5h-393v1065h393q106 0 179.5 -23.5t113 -68t56.5 -99t17 -126.5v-431zM836 743q0 115 -55.5 165t-196.5 50h-271v-852h271q141 0 196.5 50t55.5 166v421z" />
    <glyph glyph-name="e.smcp" horiz-adv-x="1030" 
d="M195 0v1065h679v-107h-561v-346h523v-106h-523v-400h564v-106h-682z" />
    <glyph glyph-name="f.smcp" horiz-adv-x="995" 
d="M313 0h-118v1065h688v-107h-570v-383h529v-106h-529v-469z" />
    <glyph glyph-name="g.smcp" horiz-adv-x="1087" 
d="M279 764v-467q0 -119 55.5 -165t214.5 -46q145 0 246 23v370h118v-452q-158 -47 -366 -47q-213 0 -300 76t-87 237v477q0 163 91 239t310 76q195 0 330 -36l-14 -103q-165 33 -316 33q-164 0 -223 -47t-59 -168z" />
    <glyph glyph-name="h.smcp" horiz-adv-x="1193" 
d="M999 0h-118v502h-568v-502h-118v1065h118v-457h568v457h118v-1065z" />
    <glyph glyph-name="i.smcp" horiz-adv-x="528" 
d="M324 1065v-1065h-119v1065h119z" />
    <glyph glyph-name="j.smcp" horiz-adv-x="497" 
d="M195 1065h118v-1047v-56t-9.5 -44.5t-18 -39.5t-40 -45.5t-60 -58.5t-93.5 -81l-72 80q53 46 74.5 64.5t47.5 45t32 34.5t13.5 27t7.5 29v35v1057z" />
    <glyph glyph-name="k.smcp" 
d="M961 1065l-478 -522l510 -543h-149l-500 543l469 522h148zM313 1065v-1065h-118v1065h118z" />
    <glyph glyph-name="l.smcp" horiz-adv-x="948" 
d="M313 1065v-959h533v-106h-651v1065h118z" />
    <glyph glyph-name="m.smcp" horiz-adv-x="1464" 
d="M326 928l-27 -928h-119l37 1065h162l354 -850l354 850h160l37 -1065h-117l-26 928l-324 -793h-168z" />
    <glyph glyph-name="n.smcp" horiz-adv-x="1224" 
d="M870 0l-561 942v-942h-114v1065h159l561 -942v942h115v-1065h-160z" />
    <glyph glyph-name="o.smcp" horiz-adv-x="1163" 
d="M582 -20q-221 0 -321.5 86t-100.5 233v467q0 147 100.5 233t321.5 86t321.5 -86t100.5 -233v-467q0 -147 -100.5 -233t-321.5 -86zM885 760q0 111 -71 165t-232 54t-232 -54t-71 -165v-455q0 -111 71 -165t232 -54t232 54t71 165v455z" />
    <glyph glyph-name="p.smcp" horiz-adv-x="1028" 
d="M612 379h-299v-379h-118v1065h417q172 0 248 -65.5t76 -186.5v-182q0 -121 -76 -186.5t-248 -65.5zM612 485q113 0 159 35t46 117v170q0 82 -46 116.5t-159 34.5h-299v-473h299z" />
    <glyph glyph-name="q.smcp" horiz-adv-x="1163" 
d="M684 -299l-117 279q-214 3 -310.5 88.5t-96.5 230.5v467q0 147 100.5 233t321.5 86t321.5 -86t100.5 -233v-467q0 -128 -76.5 -211t-241.5 -102l102 -244zM885 760q0 111 -71 165t-232 54t-232 -54t-71 -165v-455q0 -111 71 -165t232 -54t232 54t71 165v455z" />
    <glyph glyph-name="r.smcp" horiz-adv-x="1161" 
d="M930 0l-266 383h-21h-330v-383h-118v1065h448q172 0 248 -65.5t76 -186.5v-178q0 -187 -176 -236l278 -399h-139zM643 489q113 0 159 35t46 117v166q0 82 -46 116.5t-159 34.5h-330v-469h330z" />
    <glyph glyph-name="s.smcp" horiz-adv-x="1024" 
d="M881 256q0 -73 -17 -122t-58 -85t-112.5 -52.5t-179.5 -16.5q-88 0 -188 13.5t-172 39.5l18 98q161 -45 344 -45q147 0 196.5 34.5t49.5 135.5v40t-2 32t-3.5 27.5t-10 21.5t-15 19.5t-24 16t-32.5 17t-45 15.5t-56 19t-72 21q-83 25 -135 43t-92.5 40.5t-60 41
t-31.5 51.5t-14.5 64t-2.5 86q0 157 82 215.5t299 58.5q185 0 321 -36l-16 -103q-141 33 -301 33q-76 0 -120 -4t-76 -13t-45.5 -30.5t-19 -48.5t-5.5 -76v-59t10.5 -41t21 -32t47 -26t72 -29t111.5 -34q86 -26 136 -43.5t91.5 -40.5t59.5 -40t30.5 -51.5t14.5 -65t2 -89.5z
" />
    <glyph glyph-name="t.smcp" horiz-adv-x="978" 
d="M430 0v958h-369v107h857v-107h-369v-958h-119z" />
    <glyph glyph-name="u.smcp" horiz-adv-x="1200" 
d="M897 1065h119v-764q0 -146 -101 -233.5t-315 -87.5t-315 87.5t-101 233.5v764h119v-760q0 -108 70.5 -163.5t226.5 -55.5t226.5 55.5t70.5 163.5v760z" />
    <glyph glyph-name="v.smcp" horiz-adv-x="1028" 
d="M438 0l-399 1065h117l358 -963l358 963h117l-399 -1065h-152z" />
    <glyph glyph-name="w.smcp" horiz-adv-x="1593" 
d="M877 1065l260 -967l290 967h115l-325 -1065h-162l-258 969l-258 -969h-162l-326 1065h115l291 -967l260 967h160z" />
    <glyph glyph-name="x.smcp" horiz-adv-x="1107" 
d="M92 0l395 541l-383 524h127l322 -438l321 438h132l-385 -524l395 -541h-129l-334 453l-334 -453h-127z" />
    <glyph glyph-name="y.smcp" horiz-adv-x="1019" 
d="M510 434l344 631h125l-410 -739v-326h-118v326l-410 739h125z" />
    <glyph glyph-name="z.smcp" horiz-adv-x="1091" 
d="M930 969l-627 -867h635v-102h-774v96l627 867h-623v102h762v-96z" />
    <glyph glyph-name="cent.smcp" horiz-adv-x="921" 
d="M467 -143v217q-177 12 -255.5 88.5t-78.5 218.5v303q0 142 78.5 218.5t255.5 88.5v217h115v-217q119 -3 217 -28l-11 -101q-111 25 -251 25q-157 0 -221 -45t-64 -166v-287q0 -121 64 -166t221 -45q140 0 251 25l11 -101q-91 -23 -217 -30v-215h-115z" />
    <glyph glyph-name="sterling.smcp" horiz-adv-x="1062" 
d="M154 475v100h170q-88 136 -88 271q0 119 84.5 179t267.5 60q160 0 303 -43l-17 -96q-143 33 -282 33q-126 0 -182 -29t-56 -106q0 -117 99 -269h387l-6 -100h-330q18 -41 18 -88q0 -155 -157 -281h544v-106h-721v102q88 52 153 125.5t65 155.5q0 56 -23 92h-229z" />
    <glyph glyph-name="section.smcp" horiz-adv-x="1085" 
d="M541 43l-92 -63q-306 397 -306 880q0 120 63.5 172.5t194.5 52.5q64 0 151 -14t150 -35l-18 -92q-163 39 -274 39q-86 0 -117 -27.5t-31 -103.5q0 -424 279 -809zM575 721l93 63q305 -396 305 -880q0 -120 -63.5 -173t-194.5 -53q-64 0 -150.5 14.5t-150.5 35.5l18 92
q69 -17 150.5 -28t124.5 -11q86 0 116.5 27t30.5 104q0 424 -279 809z" />
    <glyph glyph-name="paragraph.smcp" horiz-adv-x="997" 
d="M678 1065h115v-1184q0 -43 -11.5 -68.5t-55 -73.5t-161.5 -163l-69 78q127 127 154.5 161t27.5 62v1188zM123 651q0 177 118.5 295.5t295.5 118.5v-825q-177 0 -295.5 118t-118.5 293z" />
    <glyph glyph-name="germandbls.smcp" horiz-adv-x="2048" 
d="M881 256q0 -73 -17 -122t-58 -85t-112.5 -52.5t-179.5 -16.5q-88 0 -188 13.5t-172 39.5l18 98q161 -45 344 -45q147 0 196.5 34.5t49.5 135.5v40t-2 32t-3.5 27.5t-10 21.5t-15 19.5t-24 16t-32.5 17t-45 15.5t-56 19t-72 21q-83 25 -135 43t-92.5 40.5t-60 41
t-31.5 51.5t-14.5 64t-2.5 86q0 157 82 215.5t299 58.5q185 0 321 -36l-16 -103q-141 33 -301 33q-76 0 -120 -4t-76 -13t-45.5 -30.5t-19 -48.5t-5.5 -76v-59t10.5 -41t21 -32t47 -26t72 -29t111.5 -34q86 -26 136 -43.5t91.5 -40.5t59.5 -40t30.5 -51.5t14.5 -65t2 -89.5z
M1905 256q0 -73 -17 -122t-58 -85t-112.5 -52.5t-179.5 -16.5q-88 0 -188 13.5t-172 39.5l18 98q161 -45 344 -45q147 0 196.5 34.5t49.5 135.5v40t-2 32t-3.5 27.5t-10 21.5t-15 19.5t-24 16t-32.5 17t-45 15.5t-56 19t-72 21q-83 25 -135 43t-92.5 40.5t-60 41t-31.5 51.5
t-14.5 64t-2.5 86q0 157 82 215.5t299 58.5q185 0 321 -36l-16 -103q-141 33 -301 33q-76 0 -120 -4t-76 -13t-45.5 -30.5t-19 -48.5t-5.5 -76v-59t10.5 -41t21 -32t47 -26t72 -29t111.5 -34q86 -26 136 -43.5t91.5 -40.5t59.5 -40t30.5 -51.5t14.5 -65t2 -89.5z" />
    <glyph glyph-name="yen.smcp" horiz-adv-x="1040" 
d="M143 424v90h213l-305 551h125l344 -631l344 631h125l-305 -551h215v-90h-266l-53 -98v-78h319v-90h-319v-158h-119v158h-318v90h318v78l-55 98h-263z" />
    <glyph glyph-name="ae.smcp" horiz-adv-x="1554" 
d="M954 0l-112 274h-520l-109 -274h-121l410 1065h897v-107h-692l133 -346h520v-106h-479l153 -400h367v-106h-447zM584 985l-226 -612h449z" />
    <glyph glyph-name="oslash.smcp" horiz-adv-x="1163" 
d="M582 -20q-164 0 -260 47l-91 -150l-71 43l92 152q-92 79 -92 227v467q0 147 100.5 233t321.5 86q162 0 258 -47l92 150l72 -45l-93 -152q93 -84 93 -225v-467q0 -147 -100.5 -233t-321.5 -86zM279 305q0 -83 34 -131l469 770q-72 35 -200 35q-161 0 -232 -54t-71 -165
v-455zM885 760q0 77 -37 129l-469 -768q66 -35 203 -35q161 0 232 54t71 165v455z" />
    <glyph glyph-name="questiondown.smcp" horiz-adv-x="882" 
d="M522 733l62 -92q-35 -24 -92.5 -62t-110.5 -75q-61 -41 -83.5 -67t-29 -57.5t-6.5 -109.5q0 -64 5.5 -96t28.5 -56t64.5 -31t118.5 -7q117 0 254 26l17 -98q-133 -28 -275 -28q-86 0 -144.5 11t-95.5 31t-57 56.5t-27.5 79.5t-7.5 108q0 137 23 187.5t121 119.5
q93 66 235 160zM604 1065v-176h-127v176h127z" />
    <glyph glyph-name="exclamdown.smcp" horiz-adv-x="536" 
d="M233 715h70l25 -201v-514h-119v514zM205 889v176h127v-176h-127z" />
    <glyph glyph-name="florin.smcp" horiz-adv-x="993" 
d="M375 459h-189l11 102h186l27 301q10 119 78 171t192 52q117 0 211 -32l-14 -92q-96 22 -191 22q-86 0 -118 -29t-40 -112l-24 -281h278l-16 -102h-270l-58 -647q-10 -119 -67.5 -167t-169.5 -48q-93 0 -181 30l17 92q82 -20 149 -20q75 0 101 28.5t32 108.5z" />
    <glyph glyph-name="oe.smcp" horiz-adv-x="1665" 
d="M582 0q-221 0 -321.5 86t-100.5 233v426q0 147 100.5 233.5t321.5 86.5h927v-107h-561v-346h522v-106h-522v-400h563v-106h-929zM582 958q-161 0 -232 -54t-71 -165v-413q0 -111 71 -165.5t232 -54.5h247v852h-247z" />
    <glyph glyph-name="endash.smcp" horiz-adv-x="1015" 
d="M154 524v101h708v-101h-708z" />
    <glyph glyph-name="divide.smcp" horiz-adv-x="1159" 
d="M995 551v-107h-831v107h831zM516 90v156h127v-156h-127zM516 750v155h127v-155h-127z" />
    <glyph glyph-name="Euro.smcp" horiz-adv-x="1046" 
d="M256 631h-164v82h164v80q0 104 33.5 166t118 94t231.5 32q164 0 285 -41l-13 -98q-140 35 -268 35q-162 0 -215 -40t-53 -163v-65h452v-82h-452v-197h452v-82h-452v-65q0 -123 53 -163t215 -40q128 0 268 35l13 -99q-119 -40 -285 -40q-147 0 -231.5 32t-118 94
t-33.5 166v80h-164v82h164v197z" />
    <glyph glyph-name="fi.smcp" horiz-adv-x="1523" 
d="M313 0h-118v1065h688v-107h-570v-383h529v-106h-529v-469zM1319 1065v-1065h-119v1065h119z" />
    <glyph glyph-name="fl.smcp" horiz-adv-x="1943" 
d="M313 0h-118v1065h688v-107h-570v-383h529v-106h-529v-469zM1309 1065v-959h532v-106h-651v1065h119z" />
    <glyph glyph-name="perthousand.smcp" horiz-adv-x="2150" 
d="M463 20l487 1065l88 -41l-487 -1064zM625 702q0 -219 -256 -219t-256 219v164q0 219 256 219t256 -219v-164zM211 864v-159q0 -68 34 -101t124 -33t123.5 33t33.5 101v159q0 68 -33.5 100.5t-123.5 32.5t-124 -32.5t-34 -100.5zM1386 199q0 -219 -256 -219t-256 219v163
q0 220 256 220t256 -220v-163zM973 360v-159q0 -68 33.5 -100.5t123.5 -32.5t124 32.5t34 100.5v159q0 68 -34 101t-124 33t-123.5 -33t-33.5 -101zM2028 199q0 -219 -256 -219t-256 219v163q0 220 256 220t256 -220v-163zM1614 360v-159q0 -68 34 -100.5t124 -32.5
t123.5 32.5t33.5 100.5v159q0 68 -33.5 101t-123.5 33t-124 -33t-34 -101z" />
    <glyph glyph-name="dotlessi.smcp" horiz-adv-x="528" 
d="M324 1065v-1065h-119v1065h119z" />
    <glyph glyph-name="acute.smcp" horiz-adv-x="616" 
d="M209 1174l-55 83q136 81 249 164l60 -90q-132 -93 -254 -157z" />
    <glyph glyph-name="breve.smcp" horiz-adv-x="790" 
d="M580 1374l67 -61q-39 -57 -103 -98t-149 -41t-149 41t-103 98l68 61q80 -108 184 -108q105 0 185 108z" />
    <glyph glyph-name="caron.smcp" horiz-adv-x="813" 
d="M143 1331l45 80q71 -37 220 -127q21 12 63.5 38t79 47t76.5 42l43 -80q-99 -57 -262 -172q-136 96 -265 172z" />
    <glyph glyph-name="cedilla.smcp" horiz-adv-x="641" 
d="M498 -266q0 -70 -51.5 -114t-143.5 -44q-75 0 -160 29l19 71q67 -18 125 -18q116 0 116 72q0 30 -24.5 46.5t-71.5 16.5q-61 0 -119 -12l48 219h86l-31 -143q27 6 57 6q65 0 107.5 -33t42.5 -96z" />
    <glyph glyph-name="circumflex.smcp" horiz-adv-x="796" 
d="M188 1159l-45 80q137 84 256 168q155 -110 254 -168l-43 -80q-80 42 -211 123q-158 -95 -211 -123z" />
    <glyph glyph-name="commaaccent.smcp" horiz-adv-x="565" 
d="M233 -293v176h127v-176l-98 -221l-57 25l74 196h-46z" />
    <glyph glyph-name="dieresis.smcp" horiz-adv-x="802" 
d="M164 1200v123h135v-123h-135zM504 1200v123h135v-123h-135z" />
    <glyph glyph-name="dotaccent.smcp" horiz-adv-x="430" 
d="M262 1219h-119v219h119v-219z" />
    <glyph glyph-name="grave.smcp" horiz-adv-x="616" 
d="M463 1257l-55 -83q-122 64 -254 157l59 90q108 -79 250 -164z" />
    <glyph glyph-name="hungarumlaut.smcp" horiz-adv-x="905" 
d="M209 1157l-66 76q112 90 244 209l70 -82q-100 -95 -248 -203zM514 1157l-65 78q158 130 243 209l70 -82q-103 -96 -248 -205z" />
    <glyph glyph-name="macron.smcp" horiz-adv-x="770" 
d="M143 1202v98h484v-98h-484z" />
    <glyph glyph-name="ogonek.smcp" horiz-adv-x="591" 
d="M449 -393q-57 -31 -132 -31q-74 0 -124 39.5t-50 116.5q0 79 51 149t136 119h119q-98 -67 -149.5 -127.5t-51.5 -132.5q0 -74 84 -74q45 0 92 17z" />
    <glyph glyph-name="ring.smcp" horiz-adv-x="544" 
d="M401 1260q0 -56 -34 -91.5t-95 -35.5t-95 35.5t-34 91.5q0 57 33.5 90.5t95.5 33.5t95.5 -33.5t33.5 -90.5zM332 1260q0 65 -60 65q-61 0 -61 -65q0 -30 15.5 -48t45.5 -18q60 0 60 66z" />
    <glyph glyph-name="tilde.smcp" horiz-adv-x="839" 
d="M422 1208q-6 3 -21 9.5t-20.5 9t-17.5 7t-19.5 6.5t-17.5 3.5t-19 1.5q-53 0 -110 -57l-54 59q29 43 74.5 72t93.5 29q37 0 111 -33q81 -37 117 -37q53 0 98 51l59 -53q-28 -45 -69 -72.5t-88 -27.5q-49 0 -117 32z" />
    <glyph glyph-name="aacute.smcp" horiz-adv-x="1167" 
d="M954 0l-112 274h-520l-109 -274h-121l410 1065h164l409 -1065h-121zM584 985l-226 -612h449zM580 1174l-56 83q142 85 250 164l60 -90q-132 -93 -254 -157z" />
    <glyph glyph-name="aeacute.smcp" horiz-adv-x="1554" 
d="M954 0l-112 274h-520l-109 -274h-121l410 1065h897v-107h-692l133 -346h520v-106h-479l153 -400h367v-106h-447zM584 985l-226 -612h449zM666 1174l-56 83q142 85 250 164l60 -90q-132 -93 -254 -157z" />
    <glyph glyph-name="abreve.smcp" horiz-adv-x="1167" 
d="M954 0l-112 274h-520l-109 -274h-121l410 1065h164l409 -1065h-121zM584 985l-226 -612h449zM768 1374l68 -61q-39 -57 -103 -98t-149 -41t-149 41t-103 98l67 61q80 -108 185 -108q104 0 184 108z" />
    <glyph glyph-name="acircumflex.smcp" horiz-adv-x="1167" 
d="M954 0l-112 274h-520l-109 -274h-121l410 1065h164l409 -1065h-121zM584 985l-226 -612h449zM375 1159l-45 80q137 84 256 168q155 -110 254 -168l-43 -80q-80 42 -211 123q-158 -95 -211 -123z" />
    <glyph glyph-name="adieresis.smcp" horiz-adv-x="1167" 
d="M954 0l-112 274h-520l-109 -274h-121l410 1065h164l409 -1065h-121zM584 985l-226 -612h449zM346 1200v123h135v-123h-135zM686 1200v123h135v-123h-135z" />
    <glyph glyph-name="agrave.smcp" horiz-adv-x="1167" 
d="M954 0l-112 274h-520l-109 -274h-121l410 1065h164l409 -1065h-121zM584 985l-226 -612h449zM651 1257l-55 -83q-122 64 -254 157l59 90q108 -79 250 -164z" />
    <glyph glyph-name="amacron.smcp" horiz-adv-x="1167" 
d="M954 0l-112 274h-520l-109 -274h-121l410 1065h164l409 -1065h-121zM584 985l-226 -612h449zM342 1202v98h483v-98h-483z" />
    <glyph glyph-name="aogonek.smcp" horiz-adv-x="1167" 
d="M1075 -393q-57 -31 -131 -31t-124 39.5t-50 116.5q0 79 49.5 149t134.5 119l-112 274h-520l-109 -274h-121l410 1065h164l409 -1065q-98 -67 -149.5 -127.5t-51.5 -132.5q0 -74 84 -74q46 0 93 17zM584 985l-226 -612h449z" />
    <glyph glyph-name="atilde.smcp" horiz-adv-x="1167" 
d="M954 0l-112 274h-520l-109 -274h-121l410 1065h164l409 -1065h-121zM584 985l-226 -612h449zM600 1208q-6 3 -21 9.5t-20.5 9t-17.5 7t-19.5 6.5t-17.5 3.5t-19 1.5q-53 0 -110 -57l-53 59q29 44 74.5 72.5t92.5 28.5q37 0 111 -33q81 -37 117 -37q53 0 98 51l59 -53
q-28 -45 -69 -72.5t-88 -27.5q-49 0 -117 32z" />
    <glyph glyph-name="aring.smcp" horiz-adv-x="1167" 
d="M954 0l-112 274h-520l-109 -274h-121l410 1065h164l409 -1065h-121zM584 985l-226 -612h449zM713 1260q0 -56 -34 -91.5t-95 -35.5t-95 35.5t-34 91.5q0 57 33.5 90.5t95.5 33.5t95.5 -33.5t33.5 -90.5zM643 1260q0 65 -59 65q-62 0 -62 -65q0 -30 16 -48t46 -18
q59 0 59 66z" />
    <glyph glyph-name="aringacute.smcp" horiz-adv-x="1167" 
d="M713 1262q0 -56 -34 -91.5t-95 -35.5t-95 35.5t-34 91.5q0 57 33.5 90.5t95.5 33.5t95.5 -33.5t33.5 -90.5zM643 1262q0 65 -59 65q-62 0 -62 -65q0 -30 16 -48t46 -18q59 0 59 66zM565 1430l-43 67q131 78 203 131l47 -74q-86 -61 -207 -124zM954 0l-112 274h-520
l-109 -274h-121l410 1065h164l409 -1065h-121zM584 985l-226 -612h449z" />
    <glyph glyph-name="cacute.smcp" horiz-adv-x="974" 
d="M279 297q0 -121 63.5 -166t220.5 -45q145 0 273 25l16 -101q-135 -30 -291 -30q-213 0 -307 77t-94 232v487q0 155 94 232t307 77q147 0 291 -30l-16 -101q-128 25 -273 25q-157 0 -220.5 -45t-63.5 -166v-471zM471 1174l-55 83q142 85 250 164l59 -90
q-132 -93 -254 -157z" />
    <glyph glyph-name="ccaron.smcp" horiz-adv-x="974" 
d="M279 297q0 -121 63.5 -166t220.5 -45q145 0 273 25l16 -101q-135 -30 -291 -30q-213 0 -307 77t-94 232v487q0 155 94 232t307 77q147 0 291 -30l-16 -101q-128 25 -273 25q-157 0 -220.5 -45t-63.5 -166v-471zM299 1331l45 80q63 -33 219 -127q21 12 63.5 38t79 47
t76.5 42l43 -80q-99 -57 -262 -172q-142 99 -264 172z" />
    <glyph glyph-name="ccedilla.smcp" horiz-adv-x="974" 
d="M766 -266q0 -70 -51.5 -114t-143.5 -44q-74 0 -159 29l18 71q67 -18 125 -18q117 0 117 72q0 30 -25 46.5t-72 16.5q-60 0 -118 -12l43 201q-180 10 -260 86.5t-80 220.5v487q0 155 94 232t307 77q147 0 291 -30l-16 -101q-128 25 -273 25q-157 0 -220.5 -45t-63.5 -166
v-471q0 -121 63.5 -166t220.5 -45q145 0 273 25l16 -101q-120 -26 -266 -30l-27 -123q27 6 57 6q65 0 107.5 -33t42.5 -96z" />
    <glyph glyph-name="ccircumflex.smcp" horiz-adv-x="974" 
d="M279 297q0 -121 63.5 -166t220.5 -45q145 0 273 25l16 -101q-135 -30 -291 -30q-213 0 -307 77t-94 232v487q0 155 94 232t307 77q147 0 291 -30l-16 -101q-128 25 -273 25q-157 0 -220.5 -45t-63.5 -166v-471zM348 1159l-45 80q137 84 256 168q155 -110 254 -168
l-43 -80q-80 42 -211 123q-158 -95 -211 -123z" />
    <glyph glyph-name="cdotaccent.smcp" horiz-adv-x="974" 
d="M279 297q0 -121 63.5 -166t220.5 -45q145 0 273 25l16 -101q-135 -30 -291 -30q-213 0 -307 77t-94 232v487q0 155 94 232t307 77q147 0 291 -30l-16 -101q-128 25 -273 25q-157 0 -220.5 -45t-63.5 -166v-471zM614 1219h-118v219h118v-219z" />
    <glyph glyph-name="dcaron.smcp" horiz-adv-x="1107" 
d="M954 317q0 -72 -17 -126.5t-56.5 -99t-113 -68t-179.5 -23.5h-393v1065h393q106 0 179.5 -23.5t113 -68t56.5 -99t17 -126.5v-431zM836 743q0 115 -55.5 165t-196.5 50h-271v-852h271q141 0 196.5 50t55.5 166v421zM303 1331l45 80q63 -33 219 -127q21 12 63.5 38t79 47
t76.5 42l43 -80q-99 -57 -262 -172q-142 99 -264 172z" />
    <glyph glyph-name="dcroat.smcp" horiz-adv-x="1136" 
d="M92 487v99h131v479h393q106 0 179.5 -23.5t113.5 -68t57 -99t17 -126.5v-431q0 -72 -17 -126.5t-57 -99t-113.5 -68t-179.5 -23.5h-393v487h-131zM864 743q0 115 -55.5 165t-196.5 50h-270v-372h242v-99h-242v-381h270q141 0 196.5 50t55.5 166v421z" />
    <glyph glyph-name="eacute.smcp" horiz-adv-x="1030" 
d="M195 0v1065h679v-107h-561v-346h523v-106h-523v-400h564v-106h-682zM492 1174l-56 83q142 85 250 164l59 -90q-135 -95 -253 -157z" />
    <glyph glyph-name="ebreve.smcp" horiz-adv-x="1030" 
d="M195 0v1065h679v-107h-561v-346h523v-106h-523v-400h564v-106h-682zM737 1374l68 -61q-39 -57 -103 -98t-149 -41t-149 41t-103 98l68 61q80 -108 184 -108t184 108z" />
    <glyph glyph-name="ecaron.smcp" horiz-adv-x="1030" 
d="M195 0v1065h679v-107h-561v-346h523v-106h-523v-400h564v-106h-682zM293 1331l45 80q63 -33 219 -127q21 12 63.5 38t79 47t76.5 42l43 -80q-99 -57 -262 -172q-142 99 -264 172z" />
    <glyph glyph-name="ecircumflex.smcp" horiz-adv-x="1030" 
d="M195 0v1065h679v-107h-561v-346h523v-106h-523v-400h564v-106h-682zM338 1159l-45 80q137 84 256 168q155 -110 254 -168l-43 -80q-80 42 -211 123q-158 -95 -211 -123z" />
    <glyph glyph-name="edieresis.smcp" horiz-adv-x="1030" 
d="M195 0v1065h679v-107h-561v-346h523v-106h-523v-400h564v-106h-682zM309 1200v123h135v-123h-135zM649 1200v123h135v-123h-135z" />
    <glyph glyph-name="edotaccent.smcp" horiz-adv-x="1030" 
d="M195 0v1065h679v-107h-561v-346h523v-106h-523v-400h564v-106h-682zM612 1219h-118v219h118v-219z" />
    <glyph glyph-name="egrave.smcp" horiz-adv-x="1030" 
d="M195 0v1065h679v-107h-561v-346h523v-106h-523v-400h564v-106h-682zM635 1257l-55 -83q-122 64 -254 157l59 90q108 -79 250 -164z" />
    <glyph glyph-name="emacron.smcp" horiz-adv-x="1030" 
d="M195 0v1065h679v-107h-561v-346h523v-106h-523v-400h564v-106h-682zM305 1202v98h483v-98h-483z" />
    <glyph glyph-name="eng.smcp" horiz-adv-x="1224" 
d="M870 0l-561 942v-942h-114v1065h159l561 -942v942h115v-1137q0 -103 -31.5 -151t-172.5 -176q-18 -16 -27 -25l-78 86q8 7 23 20q106 96 131 128q32 42 35 105q1 13 1 32v53h-41z" />
    <glyph glyph-name="eogonek.smcp" horiz-adv-x="1030" 
d="M195 0v1065h679v-107h-561v-346h523v-106h-523v-400h564v-106h-113q-98 -67 -149.5 -127.5t-51.5 -132.5q0 -74 84 -74q45 0 92 17l25 -76q-57 -31 -131 -31t-124 39.5t-50 116.5q0 79 50.5 149t135.5 119h-450z" />
    <glyph glyph-name="eth.smcp" horiz-adv-x="1136" 
d="M92 487v99h131v479h393q106 0 179.5 -23.5t113.5 -68t57 -99t17 -126.5v-431q0 -72 -17 -126.5t-57 -99t-113.5 -68t-179.5 -23.5h-393v487h-131zM864 743q0 115 -55.5 165t-196.5 50h-270v-372h242v-99h-242v-381h270q141 0 196.5 50t55.5 166v421z" />
    <glyph glyph-name="gbreve.smcp" horiz-adv-x="1087" 
d="M279 764v-467q0 -119 55.5 -165t214.5 -46q145 0 246 23v370h118v-452q-158 -47 -366 -47q-213 0 -300 76t-87 237v477q0 163 91 239t310 76q195 0 330 -36l-14 -103q-165 33 -316 33q-164 0 -223 -47t-59 -168zM762 1374l67 -61q-39 -57 -102.5 -98t-148.5 -41t-149 41
t-103 98l67 61q80 -108 185 -108q104 0 184 108z" />
    <glyph glyph-name="gcircumflex.smcp" horiz-adv-x="1087" 
d="M279 764v-467q0 -119 55.5 -165t214.5 -46q145 0 246 23v370h118v-452q-158 -47 -366 -47q-213 0 -300 76t-87 237v477q0 163 91 239t310 76q195 0 330 -36l-14 -103q-165 33 -316 33q-164 0 -223 -47t-59 -168zM367 1159l-45 80q137 84 256 168q160 -113 253 -168
l-43 -80q-72 38 -210 123q-158 -95 -211 -123z" />
    <glyph glyph-name="gcommaaccent.smcp" horiz-adv-x="1087" 
d="M279 764v-467q0 -119 55.5 -165t214.5 -46q145 0 246 23v370h118v-452q-158 -47 -366 -47q-213 0 -300 76t-87 237v477q0 163 91 239t310 76q195 0 330 -36l-14 -103q-165 33 -316 33q-164 0 -223 -47t-59 -168zM502 -293v176h127v-176l-99 -221l-57 25l74 196h-45z" />
    <glyph glyph-name="gdotaccent.smcp" horiz-adv-x="1087" 
d="M279 764v-467q0 -119 55.5 -165t214.5 -46q145 0 246 23v370h118v-452q-158 -47 -366 -47q-213 0 -300 76t-87 237v477q0 163 91 239t310 76q195 0 330 -36l-14 -103q-165 33 -316 33q-164 0 -223 -47t-59 -168zM627 1219h-119v219h119v-219z" />
    <glyph glyph-name="hbar.smcp" horiz-adv-x="1214" 
d="M92 813v86h113v166h119v-166h567v166h119v-166h112v-86h-112v-813h-119v502h-567v-502h-119v813h-113zM324 608h567v205h-567v-205z" />
    <glyph glyph-name="hcircumflex.smcp" horiz-adv-x="1193" 
d="M999 0h-118v502h-568v-502h-118v1065h118v-457h568v457h118v-1065zM387 1159l-45 80q137 84 256 168q155 -110 254 -168l-43 -80q-80 42 -211 123q-158 -95 -211 -123z" />
    <glyph glyph-name="iacute.smcp" horiz-adv-x="528" 
d="M324 1065v-1065h-119v1065h119zM260 1174l-55 83q142 85 250 164l59 -90q-132 -93 -254 -157z" />
    <glyph glyph-name="ibreve.smcp" horiz-adv-x="528" 
d="M449 1374l67 -61q-39 -57 -103 -98t-149 -41t-149 41t-103 98l68 61q80 -108 184 -108q105 0 185 108zM324 1065v-1065h-119v1065h119z" />
    <glyph glyph-name="icircumflex.smcp" horiz-adv-x="528" 
d="M324 1065v-1065h-119v1065h119zM55 1159l-45 80q137 84 256 168q155 -110 254 -168l-43 -80q-80 42 -211 123q-158 -95 -211 -123z" />
    <glyph glyph-name="idieresis.smcp" horiz-adv-x="528" 
d="M324 1065v-1065h-119v1065h119zM27 1200v123h135v-123h-135zM367 1200v123h135v-123h-135z" />
    <glyph glyph-name="igrave.smcp" horiz-adv-x="528" 
d="M324 1065v-1065h-119v1065h119zM342 1257l-55 -83q-122 64 -254 157l59 90q108 -79 250 -164z" />
    <glyph glyph-name="imacron.smcp" horiz-adv-x="528" 
d="M23 1202v98h483v-98h-483zM324 1065v-1065h-119v1065h119z" />
    <glyph glyph-name="iogonek.smcp" horiz-adv-x="528" 
d="M381 -393q-57 -31 -131 -31q-87 0 -129.5 43.5t-42.5 118.5q0 131 127 262v1065h119v-1065q-142 -136 -142 -260q0 -74 82 -74q45 0 92 17z" />
    <glyph glyph-name="itilde.smcp" horiz-adv-x="528" 
d="M281 1208q-6 3 -21 9.5t-20.5 9t-17.5 7t-19.5 6.5t-17.5 3.5t-19 1.5q-54 0 -111 -57l-53 59q29 43 74.5 72t93.5 29q37 0 111 -33q81 -37 116 -37q54 0 99 51l59 -53q-28 -45 -69 -72.5t-89 -27.5t-116 32zM324 1065v-1065h-119v1065h119z" />
    <glyph glyph-name="ij.smcp" horiz-adv-x="1026" 
d="M324 1065v-1065h-119v1065h119zM723 1065h119v-1047v-56t-9.5 -44.5t-18 -39.5t-40 -45.5t-60 -58.5t-93.5 -81l-72 80q52 45 74 64.5t47.5 45.5t31.5 34t13.5 27t7.5 29v35v1057z" />
    <glyph glyph-name="jcircumflex.smcp" horiz-adv-x="497" 
d="M195 1065h118v-1047v-56t-9.5 -44.5t-18 -39.5t-40 -45.5t-60 -58.5t-93.5 -81l-72 80q53 46 74.5 64.5t47.5 45t32 34.5t13.5 27t7.5 29v35v1057zM49 1159l-45 80q137 84 256 168q155 -110 254 -168l-43 -80q-80 42 -211 123q-158 -95 -211 -123z" />
    <glyph glyph-name="kcommaaccent.smcp" 
d="M961 1065l-478 -522l510 -543h-149l-500 543l469 522h148zM313 1065v-1065h-118v1065h118zM500 -293v176h127v-176l-99 -221l-57 25l74 196h-45z" />
    <glyph glyph-name="lacute.smcp" horiz-adv-x="948" 
d="M313 1065v-959h533v-106h-651v1065h118zM262 1174l-55 83q142 85 250 164l59 -90q-132 -93 -254 -157z" />
    <glyph glyph-name="lcaron.smcp" horiz-adv-x="948" 
d="M623 889v176h127v-176l-99 -221l-57 24l74 197h-45zM313 1065v-959h533v-106h-651v1065h118z" />
    <glyph glyph-name="lcommaaccent.smcp" horiz-adv-x="948" 
d="M313 1065v-959h533v-106h-651v1065h118zM483 -293v176h127v-176l-98 -221l-57 25l73 196h-45z" />
    <glyph glyph-name="ldot.smcp" horiz-adv-x="948" 
d="M555 440v176h127v-176h-127zM313 1065v-959h533v-106h-651v1065h118z" />
    <glyph glyph-name="lslash.smcp" horiz-adv-x="997" 
d="M109 399l-48 88l183 101v477h118v-414l297 164l48 -88l-345 -188v-433h533v-106h-651v473z" />
    <glyph glyph-name="nacute.smcp" horiz-adv-x="1224" 
d="M870 0l-561 942v-942h-114v1065h159l561 -942v942h115v-1065h-160zM596 1174l-55 83q142 85 250 164l59 -90q-132 -93 -254 -157z" />
    <glyph glyph-name="ncaron.smcp" horiz-adv-x="1224" 
d="M870 0l-561 942v-942h-114v1065h159l561 -942v942h115v-1065h-160zM375 1331l45 80q63 -33 219 -127q21 12 63.5 38t79 47t76.5 42l43 -80q-99 -57 -262 -172q-142 99 -264 172z" />
    <glyph glyph-name="ncommaaccent.smcp" horiz-adv-x="1224" 
d="M870 0l-561 942v-942h-114v1065h159l561 -942v942h115v-1065h-160zM535 -293v176h127v-176l-99 -221l-57 25l74 196h-45z" />
    <glyph glyph-name="ntilde.smcp" horiz-adv-x="1224" 
d="M870 0l-561 942v-942h-114v1065h159l561 -942v942h115v-1065h-160zM623 1208q-6 3 -21 9.5t-20.5 9t-17.5 7t-19.5 6.5t-17.5 3.5t-19 1.5q-54 0 -111 -57l-53 59q29 43 74.5 72t93.5 29q37 0 111 -33q81 -37 116 -37q54 0 99 51l59 -53q-28 -45 -69 -72.5t-89 -27.5
t-116 32z" />
    <glyph glyph-name="oacute.smcp" horiz-adv-x="1163" 
d="M582 -20q-221 0 -321.5 86t-100.5 233v467q0 147 100.5 233t321.5 86t321.5 -86t100.5 -233v-467q0 -147 -100.5 -233t-321.5 -86zM885 760q0 111 -71 165t-232 54t-232 -54t-71 -165v-455q0 -111 71 -165t232 -54t232 54t71 165v455zM567 1174l-55 83q142 85 250 164
l59 -90q-132 -93 -254 -157z" />
    <glyph glyph-name="obreve.smcp" horiz-adv-x="1163" 
d="M582 -20q-221 0 -321.5 86t-100.5 233v467q0 147 100.5 233t321.5 86t321.5 -86t100.5 -233v-467q0 -147 -100.5 -233t-321.5 -86zM885 760q0 111 -71 165t-232 54t-232 -54t-71 -165v-455q0 -111 71 -165t232 -54t232 54t71 165v455zM766 1374l68 -61q-39 -57 -103 -98
t-149 -41t-149 41t-103 98l67 61q80 -108 185 -108q104 0 184 108z" />
    <glyph glyph-name="ocircumflex.smcp" horiz-adv-x="1163" 
d="M582 -20q-221 0 -321.5 86t-100.5 233v467q0 147 100.5 233t321.5 86t321.5 -86t100.5 -233v-467q0 -147 -100.5 -233t-321.5 -86zM885 760q0 111 -71 165t-232 54t-232 -54t-71 -165v-455q0 -111 71 -165t232 -54t232 54t71 165v455zM373 1159l-45 80q137 84 256 168
q155 -110 254 -168l-43 -80q-80 42 -211 123q-158 -95 -211 -123z" />
    <glyph glyph-name="odieresis.smcp" horiz-adv-x="1163" 
d="M582 -20q-221 0 -321.5 86t-100.5 233v467q0 147 100.5 233t321.5 86t321.5 -86t100.5 -233v-467q0 -147 -100.5 -233t-321.5 -86zM885 760q0 111 -71 165t-232 54t-232 -54t-71 -165v-455q0 -111 71 -165t232 -54t232 54t71 165v455zM344 1200v123h135v-123h-135z
M684 1200v123h135v-123h-135z" />
    <glyph glyph-name="ograve.smcp" horiz-adv-x="1163" 
d="M582 -20q-221 0 -321.5 86t-100.5 233v467q0 147 100.5 233t321.5 86t321.5 -86t100.5 -233v-467q0 -147 -100.5 -233t-321.5 -86zM885 760q0 111 -71 165t-232 54t-232 -54t-71 -165v-455q0 -111 71 -165t232 -54t232 54t71 165v455zM666 1257l-56 -83q-122 64 -254 157
l60 90q108 -79 250 -164z" />
    <glyph glyph-name="ohungarumlaut.smcp" horiz-adv-x="1163" 
d="M582 -20q-221 0 -321.5 86t-100.5 233v467q0 147 100.5 233t321.5 86t321.5 -86t100.5 -233v-467q0 -147 -100.5 -233t-321.5 -86zM885 760q0 111 -71 165t-232 54t-232 -54t-71 -165v-455q0 -111 71 -165t232 -54t232 54t71 165v455zM422 1157l-66 76q112 90 244 209
l70 -82q-100 -95 -248 -203zM727 1157l-65 78q158 130 243 209l70 -82q-103 -96 -248 -205z" />
    <glyph glyph-name="omacron.smcp" horiz-adv-x="1163" 
d="M582 -20q-221 0 -321.5 86t-100.5 233v467q0 147 100.5 233t321.5 86t321.5 -86t100.5 -233v-467q0 -147 -100.5 -233t-321.5 -86zM885 760q0 111 -71 165t-232 54t-232 -54t-71 -165v-455q0 -111 71 -165t232 -54t232 54t71 165v455zM338 1202v98h483v-98h-483z" />
    <glyph glyph-name="oslashacute.smcp" horiz-adv-x="1163" 
d="M582 -20q-164 0 -260 47l-91 -150l-71 43l92 152q-92 79 -92 227v467q0 147 100.5 233t321.5 86q162 0 258 -47l92 150l72 -45l-93 -152q93 -84 93 -225v-467q0 -147 -100.5 -233t-321.5 -86zM279 305q0 -83 34 -131l469 770q-72 35 -200 35q-161 0 -232 -54t-71 -165
v-455zM885 760q0 77 -37 129l-469 -768q66 -35 203 -35q161 0 232 54t71 165v455zM543 1174l-56 83q142 85 250 164l60 -90q-132 -93 -254 -157z" />
    <glyph glyph-name="otilde.smcp" horiz-adv-x="1163" 
d="M582 -20q-221 0 -321.5 86t-100.5 233v467q0 147 100.5 233t321.5 86t321.5 -86t100.5 -233v-467q0 -147 -100.5 -233t-321.5 -86zM885 760q0 111 -71 165t-232 54t-232 -54t-71 -165v-455q0 -111 71 -165t232 -54t232 54t71 165v455zM592 1208q-6 3 -21 9.5t-20.5 9
t-17.5 7t-19.5 6.5t-17.5 3.5t-19 1.5q-53 0 -110 -57l-54 59q29 43 74.5 72t93.5 29q37 0 111 -33q81 -37 117 -37q53 0 98 51l59 -53q-28 -45 -69 -72.5t-88 -27.5q-49 0 -117 32z" />
    <glyph glyph-name="racute.smcp" horiz-adv-x="1161" 
d="M930 0l-266 383h-21h-330v-383h-118v1065h448q172 0 248 -65.5t76 -186.5v-178q0 -187 -176 -236l278 -399h-139zM643 489q113 0 159 35t46 117v166q0 82 -46 116.5t-159 34.5h-330v-469h330zM535 1174l-56 83q142 85 250 164l59 -90q-135 -95 -253 -157z" />
    <glyph glyph-name="rcaron.smcp" horiz-adv-x="1161" 
d="M930 0l-266 383h-21h-330v-383h-118v1065h448q172 0 248 -65.5t76 -186.5v-178q0 -187 -176 -236l278 -399h-139zM643 489q113 0 159 35t46 117v166q0 82 -46 116.5t-159 34.5h-330v-469h330zM311 1331l45 80q63 -33 219 -127q191 112 220 127l43 -80q-104 -60 -263 -172
q-142 99 -264 172z" />
    <glyph glyph-name="rcommaaccent.smcp" horiz-adv-x="1161" 
d="M930 0l-266 383h-21h-330v-383h-118v1065h448q172 0 248 -65.5t76 -186.5v-178q0 -187 -176 -236l278 -399h-139zM643 489q113 0 159 35t46 117v166q0 82 -46 116.5t-159 34.5h-330v-469h330zM547 -293v176h127v-176l-99 -221l-57 25l74 196h-45z" />
    <glyph glyph-name="sacute.smcp" horiz-adv-x="1024" 
d="M881 256q0 -73 -17 -122t-58 -85t-112.5 -52.5t-179.5 -16.5q-88 0 -188 13.5t-172 39.5l18 98q161 -45 344 -45q147 0 196.5 34.5t49.5 135.5v40t-2 32t-3.5 27.5t-10 21.5t-15 19.5t-24 16t-32.5 17t-45 15.5t-56 19t-72 21q-83 25 -135 43t-92.5 40.5t-60 41
t-31.5 51.5t-14.5 64t-2.5 86q0 157 82 215.5t299 58.5q185 0 321 -36l-16 -103q-141 33 -301 33q-76 0 -120 -4t-76 -13t-45.5 -30.5t-19 -48.5t-5.5 -76v-59t10.5 -41t21 -32t47 -26t72 -29t111.5 -34q86 -26 136 -43.5t91.5 -40.5t59.5 -40t30.5 -51.5t14.5 -65t2 -89.5z
M481 1174l-55 83q142 85 250 164l59 -90q-132 -93 -254 -157z" />
    <glyph glyph-name="scaron.smcp" horiz-adv-x="1024" 
d="M881 256q0 -73 -17 -122t-58 -85t-112.5 -52.5t-179.5 -16.5q-88 0 -188 13.5t-172 39.5l18 98q161 -45 344 -45q147 0 196.5 34.5t49.5 135.5v40t-2 32t-3.5 27.5t-10 21.5t-15 19.5t-24 16t-32.5 17t-45 15.5t-56 19t-72 21q-83 25 -135 43t-92.5 40.5t-60 41
t-31.5 51.5t-14.5 64t-2.5 86q0 157 82 215.5t299 58.5q185 0 321 -36l-16 -103q-141 33 -301 33q-76 0 -120 -4t-76 -13t-45.5 -30.5t-19 -48.5t-5.5 -76v-59t10.5 -41t21 -32t47 -26t72 -29t111.5 -34q86 -26 136 -43.5t91.5 -40.5t59.5 -40t30.5 -51.5t14.5 -65t2 -89.5z
M285 1331l45 80q63 -33 219 -127q21 12 63.5 38t79 47t76.5 42l43 -80q-99 -57 -262 -172q-142 99 -264 172z" />
    <glyph glyph-name="scedilla.smcp" horiz-adv-x="1024" 
d="M727 -266q0 -70 -51.5 -114t-143.5 -44q-74 0 -159 29l18 71q67 -18 125 -18q117 0 117 72q0 30 -24.5 46.5t-71.5 16.5q-61 0 -119 -12l43 201q-186 7 -307 51l18 98q161 -45 344 -45q147 0 196.5 34.5t49.5 135.5v40t-2 32t-3.5 27.5t-10 21.5t-15 19.5t-24 16
t-32.5 17t-45 15.5t-56 19t-72 21q-83 25 -135 43t-92.5 40.5t-60 41t-31.5 51.5t-14.5 64t-2.5 86q0 157 82 215.5t299 58.5q185 0 321 -36l-16 -103q-141 33 -301 33q-76 0 -120 -4t-76 -13t-45.5 -30.5t-19 -48.5t-5.5 -76v-59t10.5 -41t21 -32t47 -26t72 -29t111.5 -34
q86 -26 136 -43.5t91.5 -40.5t59.5 -40t30.5 -51.5t14.5 -65t2 -89.5q0 -141 -72 -205.5t-262 -70.5l-27 -123q27 6 58 6q65 0 107 -33t42 -96z" />
    <glyph glyph-name="scircumflex.smcp" horiz-adv-x="1024" 
d="M881 256q0 -73 -17 -122t-58 -85t-112.5 -52.5t-179.5 -16.5q-88 0 -188 13.5t-172 39.5l18 98q161 -45 344 -45q147 0 196.5 34.5t49.5 135.5v40t-2 32t-3.5 27.5t-10 21.5t-15 19.5t-24 16t-32.5 17t-45 15.5t-56 19t-72 21q-83 25 -135 43t-92.5 40.5t-60 41
t-31.5 51.5t-14.5 64t-2.5 86q0 157 82 215.5t299 58.5q185 0 321 -36l-16 -103q-141 33 -301 33q-76 0 -120 -4t-76 -13t-45.5 -30.5t-19 -48.5t-5.5 -76v-59t10.5 -41t21 -32t47 -26t72 -29t111.5 -34q86 -26 136 -43.5t91.5 -40.5t59.5 -40t30.5 -51.5t14.5 -65t2 -89.5z
M340 1159l-45 80q137 84 256 168q155 -110 254 -168l-43 -80q-80 42 -211 123q-158 -95 -211 -123z" />
    <glyph glyph-name="scommaaccent.smcp" horiz-adv-x="1024" 
d="M881 256q0 -73 -17 -122t-58 -85t-112.5 -52.5t-179.5 -16.5q-88 0 -188 13.5t-172 39.5l18 98q161 -45 344 -45q147 0 196.5 34.5t49.5 135.5v40t-2 32t-3.5 27.5t-10 21.5t-15 19.5t-24 16t-32.5 17t-45 15.5t-56 19t-72 21q-83 25 -135 43t-92.5 40.5t-60 41
t-31.5 51.5t-14.5 64t-2.5 86q0 157 82 215.5t299 58.5q185 0 321 -36l-16 -103q-141 33 -301 33q-76 0 -120 -4t-76 -13t-45.5 -30.5t-19 -48.5t-5.5 -76v-59t10.5 -41t21 -32t47 -26t72 -29t111.5 -34q86 -26 136 -43.5t91.5 -40.5t59.5 -40t30.5 -51.5t14.5 -65t2 -89.5z
M465 -293v176h127v-176l-98 -221l-58 25l74 196h-45z" />
    <glyph glyph-name="tbar.smcp" horiz-adv-x="978" 
d="M131 426v86h299v446h-369v107h857v-107h-369v-446h299v-86h-299v-426h-119v426h-299z" />
    <glyph glyph-name="tcaron.smcp" horiz-adv-x="978" 
d="M430 0v958h-369v107h857v-107h-369v-958h-119zM229 1331l45 80q71 -37 220 -127q21 12 63.5 38t79 47t76.5 42l43 -80q-99 -57 -262 -172q-136 96 -265 172z" />
    <glyph glyph-name="tcommaaccent.smcp" horiz-adv-x="978" 
d="M430 0v958h-369v107h857v-107h-369v-958h-119zM426 -293v176h127v-176l-98 -221l-58 25l74 196h-45z" />
    <glyph glyph-name="thorn.smcp" horiz-adv-x="1028" 
d="M612 195h-299v-195h-118v1065h118v-184h299q172 0 248 -65.5t76 -186.5v-183q0 -121 -76 -186t-248 -65zM612 301q113 0 159 35t46 117v170q0 82 -46 116.5t-159 34.5h-299v-473h299z" />
    <glyph glyph-name="uacute.smcp" horiz-adv-x="1200" 
d="M897 1065h119v-764q0 -146 -101 -233.5t-315 -87.5t-315 87.5t-101 233.5v764h119v-760q0 -108 70.5 -163.5t226.5 -55.5t226.5 55.5t70.5 163.5v760zM578 1174l-56 83q142 85 250 164l59 -90q-135 -95 -253 -157z" />
    <glyph glyph-name="ubreve.smcp" horiz-adv-x="1200" 
d="M897 1065h119v-764q0 -146 -101 -233.5t-315 -87.5t-315 87.5t-101 233.5v764h119v-760q0 -108 70.5 -163.5t226.5 -55.5t226.5 55.5t70.5 163.5v760zM782 1374l68 -61q-39 -57 -103 -98t-149 -41t-149 41t-103 98l68 61q80 -108 184 -108t184 108z" />
    <glyph glyph-name="ucircumflex.smcp" horiz-adv-x="1200" 
d="M897 1065h119v-764q0 -146 -101 -233.5t-315 -87.5t-315 87.5t-101 233.5v764h119v-760q0 -108 70.5 -163.5t226.5 -55.5t226.5 55.5t70.5 163.5v760zM391 1159l-45 80q137 84 256 168q155 -110 254 -168l-43 -80q-80 42 -211 123q-158 -95 -211 -123z" />
    <glyph glyph-name="udieresis.smcp" horiz-adv-x="1200" 
d="M897 1065h119v-764q0 -146 -101 -233.5t-315 -87.5t-315 87.5t-101 233.5v764h119v-760q0 -108 70.5 -163.5t226.5 -55.5t226.5 55.5t70.5 163.5v760zM362 1200v123h136v-123h-136zM702 1200v123h136v-123h-136z" />
    <glyph glyph-name="ugrave.smcp" horiz-adv-x="1200" 
d="M897 1065h119v-764q0 -146 -101 -233.5t-315 -87.5t-315 87.5t-101 233.5v764h119v-760q0 -108 70.5 -163.5t226.5 -55.5t226.5 55.5t70.5 163.5v760zM702 1257l-55 -83q-122 64 -254 157l60 90q113 -83 249 -164z" />
    <glyph glyph-name="uhungarumlaut.smcp" horiz-adv-x="1200" 
d="M897 1065h119v-764q0 -146 -101 -233.5t-315 -87.5t-315 87.5t-101 233.5v764h119v-760q0 -108 70.5 -163.5t226.5 -55.5t226.5 55.5t70.5 163.5v760zM418 1157l-66 76q112 90 244 209l70 -82q-100 -95 -248 -203zM723 1157l-66 78q167 138 244 209l70 -82
q-103 -96 -248 -205z" />
    <glyph glyph-name="umacron.smcp" horiz-adv-x="1200" 
d="M897 1065h119v-764q0 -146 -101 -233.5t-315 -87.5t-315 87.5t-101 233.5v764h119v-760q0 -108 70.5 -163.5t226.5 -55.5t226.5 55.5t70.5 163.5v760zM358 1202v98h484v-98h-484z" />
    <glyph glyph-name="uogonek.smcp" horiz-adv-x="1200" 
d="M786 -393q-57 -31 -131 -31t-124 39.5t-50 116.5q0 136 191 252q-46 -4 -72 -4q-214 0 -315 87.5t-101 233.5v764h119v-760q0 -108 70.5 -163.5t226.5 -55.5t226.5 55.5t70.5 163.5v760h119v-764q0 -196 -166 -274q-130 -71 -197 -139.5t-67 -147.5q0 -74 84 -74
q45 0 92 17z" />
    <glyph glyph-name="uring.smcp" horiz-adv-x="1200" 
d="M897 1065h119v-764q0 -146 -101 -233.5t-315 -87.5t-315 87.5t-101 233.5v764h119v-760q0 -108 70.5 -163.5t226.5 -55.5t226.5 55.5t70.5 163.5v760zM729 1260q0 -56 -34 -91.5t-95 -35.5t-95 35.5t-34 91.5q0 57 33.5 90.5t95.5 33.5t95.5 -33.5t33.5 -90.5zM659 1260
q0 65 -59 65q-61 0 -61 -65q0 -30 15.5 -48t45.5 -18q59 0 59 66z" />
    <glyph glyph-name="utilde.smcp" horiz-adv-x="1200" 
d="M631 1208q-6 3 -21 9.5t-20.5 9t-17.5 7t-19.5 6.5t-17.5 3.5t-19 1.5q-53 0 -110 -57l-54 59q29 43 74.5 72t93.5 29q37 0 111 -33q81 -37 117 -37q53 0 98 51l59 -53q-28 -45 -69 -72.5t-88 -27.5q-49 0 -117 32zM897 1065h119v-764q0 -146 -101 -233.5t-315 -87.5
t-315 87.5t-101 233.5v764h119v-760q0 -108 70.5 -163.5t226.5 -55.5t226.5 55.5t70.5 163.5v760z" />
    <glyph glyph-name="wacute.smcp" horiz-adv-x="1593" 
d="M877 1065l260 -967l290 967h115l-325 -1065h-162l-258 969l-258 -969h-162l-326 1065h115l291 -967l260 967h160zM782 1174l-55 83q142 85 250 164l59 -90q-132 -93 -254 -157z" />
    <glyph glyph-name="wcircumflex.smcp" horiz-adv-x="1593" 
d="M877 1065l260 -967l290 967h115l-325 -1065h-162l-258 969l-258 -969h-162l-326 1065h115l291 -967l260 967h160zM588 1159l-45 80q137 84 256 168q155 -110 254 -168l-43 -80q-80 42 -211 123q-158 -95 -211 -123z" />
    <glyph glyph-name="wdieresis.smcp" horiz-adv-x="1593" 
d="M877 1065l260 -967l290 967h115l-325 -1065h-162l-258 969l-258 -969h-162l-326 1065h115l291 -967l260 967h160zM559 1200v123h135v-123h-135zM899 1200v123h135v-123h-135z" />
    <glyph glyph-name="wgrave.smcp" horiz-adv-x="1593" 
d="M877 1065l260 -967l290 967h115l-325 -1065h-162l-258 969l-258 -969h-162l-326 1065h115l291 -967l260 967h160zM860 1257l-55 -83q-122 64 -254 157l59 90q108 -79 250 -164z" />
    <glyph glyph-name="yacute.smcp" horiz-adv-x="1019" 
d="M510 434l344 631h125l-410 -739v-326h-118v326l-410 739h125zM494 1174l-56 83q142 85 250 164l60 -90q-132 -93 -254 -157z" />
    <glyph glyph-name="ycircumflex.smcp" horiz-adv-x="1019" 
d="M510 434l344 631h125l-410 -739v-326h-118v326l-410 739h125zM301 1159l-45 80q137 84 256 168q155 -110 254 -168l-43 -80q-80 42 -211 123q-158 -95 -211 -123z" />
    <glyph glyph-name="ydieresis.smcp" horiz-adv-x="1019" 
d="M510 434l344 631h125l-410 -739v-326h-118v326l-410 739h125zM272 1200v123h136v-123h-136zM612 1200v123h136v-123h-136z" />
    <glyph glyph-name="ygrave.smcp" horiz-adv-x="1019" 
d="M510 434l344 631h125l-410 -739v-326h-118v326l-410 739h125zM594 1257l-55 -83q-122 64 -254 157l59 90q108 -79 250 -164z" />
    <glyph glyph-name="zacute.smcp" horiz-adv-x="1091" 
d="M930 969l-627 -867h635v-102h-774v96l627 867h-623v102h762v-96zM494 1174l-56 83q142 85 250 164l60 -90q-132 -93 -254 -157z" />
    <glyph glyph-name="zcaron.smcp" horiz-adv-x="1091" 
d="M930 969l-627 -867h635v-102h-774v96l627 867h-623v102h762v-96zM307 1331l45 80q63 -33 219 -127q191 112 220 127l43 -80q-104 -60 -263 -172q-142 99 -264 172z" />
    <glyph glyph-name="zdotaccent.smcp" horiz-adv-x="1091" 
d="M930 969l-627 -867h635v-102h-774v96l627 867h-623v102h762v-96zM606 1219h-119v219h119v-219z" />
    <glyph glyph-name="ornm01.ornm" horiz-adv-x="1859" 
d="M1716 731v-98h-1429l565 -565l-68 -68l-682 682l682 682l68 -68l-565 -565h1429z" />
    <glyph glyph-name="ornm02.ornm" horiz-adv-x="1859" 
d="M143 633v98h1430l-565 565l67 68l682 -682l-682 -682l-67 68l565 565h-1430z" />
    <glyph glyph-name="ornm03.ornm" horiz-adv-x="1505" 
d="M1372 256l-69 -70l-1012 1012v-799h-96v965h964v-96h-799z" />
    <glyph glyph-name="ornm04.ornm" horiz-adv-x="1505" 
d="M203 186l-70 70l1012 1012h-799v96h965v-965h-97v799z" />
    <glyph glyph-name="ornm05.ornm" horiz-adv-x="1505" 
d="M1303 1178l69 -70l-1012 -1012h799v-96h-964v965h96v-799z" />
    <glyph glyph-name="ornm06.ornm" horiz-adv-x="1505" 
d="M133 1108l70 70l1011 -1012v799h97v-965h-965v96h799z" />
    <glyph glyph-name="ornm07.ornm" horiz-adv-x="1589" 
d="M844 -403h-99v1583l-565 -566l-67 68l682 682l682 -682l-68 -68l-565 566v-1583z" />
    <glyph glyph-name="ornm08.ornm" horiz-adv-x="1589" 
d="M745 1364h99v-1583l565 565l68 -67l-682 -682l-682 682l67 67l565 -565v1583z" />
    <glyph glyph-name="ornm09.ornm" horiz-adv-x="1927" 
d="M1784 731v-96h-1118v96h1118zM852 68l-68 -68l-682 682l682 682l68 -68l-614 -614z" />
    <glyph glyph-name="ornm10.ornm" horiz-adv-x="1927" 
d="M143 635v96h1119v-96h-1119zM1143 0l-68 68l615 614l-615 614l68 68l682 -682z" />
    <glyph glyph-name="ornm11.ornm" horiz-adv-x="1552" 
d="M1419 209l-69 -68l-791 791l70 67zM291 399h-96v965h964v-96h-868v-869z" />
    <glyph glyph-name="ornm12.ornm" horiz-adv-x="1552" 
d="M203 141l-70 68l791 790l69 -67zM1358 399h-96v869h-869v96h965v-965z" />
    <glyph glyph-name="ornm13.ornm" horiz-adv-x="1552" 
d="M1350 1223l69 -68l-790 -790l-70 67zM195 965h96v-869h868v-96h-964v965z" />
    <glyph glyph-name="ornm14.ornm" horiz-adv-x="1552" 
d="M133 1155l70 68l790 -791l-69 -67zM1262 965h96v-965h-965v96h869v869z" />
    <glyph glyph-name="ornm15.ornm" horiz-adv-x="1589" 
d="M844 -403h-96v1224h96v-1224zM180 635l-67 67l682 682l682 -682l-68 -67l-614 614z" />
    <glyph glyph-name="ornm16.ornm" horiz-adv-x="1589" 
d="M748 1364h96v-1204h-96v1204zM113 279l67 67l615 -614l614 614l68 -67l-682 -682z" />
    <glyph glyph-name="ornm17.ornm" horiz-adv-x="1433" 
d="M1290 731v-98h-1024l389 -389l-67 -68l-506 506l506 506l67 -68l-389 -389h1024z" />
    <glyph glyph-name="ornm18.ornm" horiz-adv-x="1433" 
d="M143 633v98h1024l-389 389l68 68l506 -506l-506 -506l-68 68l389 389h-1024z" />
    <glyph glyph-name="ornm19.ornm" horiz-adv-x="1198" 
d="M1065 543l-70 -70l-725 725v-551h-96v717h717v-96h-551z" />
    <glyph glyph-name="ornm20.ornm" horiz-adv-x="1198" 
d="M203 473l-70 70l725 725h-551v96h717v-717h-96v551z" />
    <glyph glyph-name="ornm21.ornm" horiz-adv-x="1198" 
d="M995 891l70 -70l-725 -725h551v-96h-717v717h96v-551z" />
    <glyph glyph-name="ornm22.ornm" horiz-adv-x="1198" 
d="M133 821l70 70l725 -725v551h96v-717h-717v96h551z" />
    <glyph glyph-name="ornm23.ornm" horiz-adv-x="1236" 
d="M668 0h-99v1200l-389 -389l-67 68l505 505l506 -505l-67 -68l-389 389v-1200z" />
    <glyph glyph-name="ornm24.ornm" horiz-adv-x="1236" 
d="M569 1364h99v-1200l389 389l67 -68l-506 -505l-505 505l67 68l389 -389v1200z" />
    <glyph glyph-name="ornm25.ornm" horiz-adv-x="1437" 
d="M655 244l-67 -68l-506 506l506 506l67 -68l-438 -438zM1294 731v-96h-735v96h735z" />
    <glyph glyph-name="ornm26.ornm" horiz-adv-x="1437" 
d="M850 176l-68 68l439 438l-439 438l68 68l506 -506zM143 635v96h736v-96h-736z" />
    <glyph glyph-name="ornm27.ornm" horiz-adv-x="1198" 
d="M268 649h-94v715h715v-94h-621v-621zM1065 543l-68 -70l-520 520l68 70z" />
    <glyph glyph-name="ornm28.ornm" horiz-adv-x="1198" 
d="M1024 649h-94v621h-621v94h715v-715zM201 473l-68 70l520 520l68 -70z" />
    <glyph glyph-name="ornm29.ornm" horiz-adv-x="1198" 
d="M174 715h94v-621h621v-94h-715v715zM997 891l68 -70l-520 -520l-68 70z" />
    <glyph glyph-name="ornm30.ornm" horiz-adv-x="1198" 
d="M930 715h94v-715h-715v94h621v621zM133 821l68 70l520 -520l-68 -70z" />
    <glyph glyph-name="ornm31.ornm" horiz-adv-x="1236" 
d="M180 811l-67 68l505 505l506 -505l-67 -68l-439 438zM668 0h-97v907h97v-907z" />
    <glyph glyph-name="ornm32.ornm" horiz-adv-x="1236" 
d="M113 485l67 68l438 -438l439 438l67 -68l-506 -505zM571 1364h97v-907h-97v907z" />
    <glyph glyph-name="ornm33.ornm" horiz-adv-x="1609" 
d="M102 682q0 190 94.5 352t256.5 256t352 94q114 0 221 -35.5t193.5 -100.5t151.5 -151.5t100.5 -193.5t35.5 -221t-35.5 -221t-100.5 -193.5t-151.5 -151.5t-193.5 -100.5t-221 -35.5q-190 0 -352 94t-256.5 256t-94.5 352zM377 682l428 -428l67 68l-311 311h682v98h-682
l311 311l-67 68z" />
    <glyph glyph-name="ornm34.ornm" horiz-adv-x="1609" 
d="M1507 682q0 -114 -35.5 -221t-100.5 -193.5t-151.5 -151.5t-193.5 -100.5t-221 -35.5q-190 0 -352 94t-256.5 256t-94.5 352t94.5 352t256.5 256t352 94q114 0 221 -35.5t193.5 -100.5t151.5 -151.5t100.5 -193.5t35.5 -221zM805 254l428 428l-428 428l-68 -68l312 -311
h-682v-98h682l-312 -311z" />
    <glyph glyph-name="ornm35.ornm" horiz-adv-x="1609" 
d="M102 682q0 190 94.5 352t256.5 256t352 94q114 0 221 -35.5t193.5 -100.5t151.5 -151.5t100.5 -193.5t35.5 -221t-35.5 -221t-100.5 -193.5t-151.5 -151.5t-193.5 -100.5t-221 -35.5q-190 0 -352 94t-256.5 256t-94.5 352zM508 987v-604h94v440l483 -483l70 70l-483 483
h440v94h-604z" />
    <glyph glyph-name="ornm36.ornm" horiz-adv-x="1609" 
d="M1507 682q0 -114 -35.5 -221t-100.5 -193.5t-151.5 -151.5t-193.5 -100.5t-221 -35.5q-190 0 -352 94t-256.5 256t-94.5 352t94.5 352t256.5 256t352 94q114 0 221 -35.5t193.5 -100.5t151.5 -151.5t100.5 -193.5t35.5 -221zM1102 383v604h-604v-94h440l-483 -483l69 -70
l484 483v-440h94z" />
    <glyph glyph-name="ornm37.ornm" horiz-adv-x="1609" 
d="M102 682q0 190 94.5 352t256.5 256t352 94q114 0 221 -35.5t193.5 -100.5t151.5 -151.5t100.5 -193.5t35.5 -221t-35.5 -221t-100.5 -193.5t-151.5 -151.5t-193.5 -100.5t-221 -35.5q-190 0 -352 94t-256.5 256t-94.5 352zM508 987v-604h604v94h-440l483 484l-70 69
l-483 -483v440h-94z" />
    <glyph glyph-name="ornm38.ornm" horiz-adv-x="1609" 
d="M1507 682q0 -114 -35.5 -221t-100.5 -193.5t-151.5 -151.5t-193.5 -100.5t-221 -35.5q-190 0 -352 94t-256.5 256t-94.5 352t94.5 352t256.5 256t352 94q114 0 221 -35.5t193.5 -100.5t151.5 -151.5t100.5 -193.5t35.5 -221zM1102 383v604h-94v-440l-484 483l-69 -69
l483 -484h-440v-94h604z" />
    <glyph glyph-name="ornm39.ornm" horiz-adv-x="1609" 
d="M805 1384q114 0 221 -35.5t193.5 -100.5t151.5 -151.5t100.5 -193.5t35.5 -221t-35.5 -221t-100.5 -193.5t-151.5 -151.5t-193.5 -100.5t-221 -35.5q-190 0 -352 94t-256.5 256t-94.5 352t94.5 352t256.5 256t352 94zM805 1126l-428 -428l67 -67l312 311v-682h98v682
l311 -311l68 67z" />
    <glyph glyph-name="ornm40.ornm" horiz-adv-x="1609" 
d="M805 -20q-190 0 -352 94t-256.5 256t-94.5 352t94.5 352t256.5 256t352 94q114 0 221 -35.5t193.5 -100.5t151.5 -151.5t100.5 -193.5t35.5 -221t-35.5 -221t-100.5 -193.5t-151.5 -151.5t-193.5 -100.5t-221 -35.5zM377 666l428 -428l428 428l-68 67l-311 -311v682h-98
v-682l-312 311z" />
    <glyph glyph-name="ornm41.ornm" horiz-adv-x="1609" 
d="M102 682q0 190 94.5 352t256.5 256t352 94q114 0 221 -35.5t193.5 -100.5t151.5 -151.5t100.5 -193.5t35.5 -221t-35.5 -221t-100.5 -193.5t-151.5 -151.5t-193.5 -100.5t-221 -35.5q-190 0 -352 94t-256.5 256t-94.5 352zM799 254l67 68l-360 360l360 360l-67 68
l-428 -428zM1257 635v96h-524v-96h524z" />
    <glyph glyph-name="ornm42.ornm" horiz-adv-x="1609" 
d="M1507 682q0 -114 -35.5 -221t-100.5 -193.5t-151.5 -151.5t-193.5 -100.5t-221 -35.5q-190 0 -352 94t-256.5 256t-94.5 352t94.5 352t256.5 256t352 94q114 0 221 -35.5t193.5 -100.5t151.5 -151.5t100.5 -193.5t35.5 -221zM743 322l68 -68l428 428l-428 428l-68 -68
l361 -360zM352 731v-96h525v96h-525z" />
    <glyph glyph-name="ornm43.ornm" horiz-adv-x="1609" 
d="M102 682q0 190 94.5 352t256.5 256t352 94q114 0 221 -35.5t193.5 -100.5t151.5 -151.5t100.5 -193.5t35.5 -221t-35.5 -221t-100.5 -193.5t-151.5 -151.5t-193.5 -100.5t-221 -35.5q-190 0 -352 94t-256.5 256t-94.5 352zM496 410h96v510h510v96h-606v-606zM1090 354
l67 70l-371 371l-67 -70z" />
    </font>
</defs>
</svg>
